Peel.ufo
<glyph name="quotedbl" format="1">
  <advance width="826"/>
  <unicode hex="0022"/>
  <outline>
    <contour>
      <point x="506" y="1034" type="curve" smooth="no"/>
      <point x="454" y="1420" type="line" smooth="yes"/>
      <point x="454" y="1424"/>
      <point x="453" y="1429"/>
      <point x="453" y="1434" type="curve" smooth="yes"/>
      <point x="453" y="1488"/>
      <point x="501" y="1515"/>
      <point x="547" y="1515" type="curve" smooth="yes"/>
      <point x="595" y="1515"/>
      <point x="641" y="1489"/>
      <point x="641" y="1435" type="curve" smooth="yes"/>
      <point x="641" y="1429"/>
      <point x="641" y="1424"/>
      <point x="640" y="1420" type="curve" smooth="yes"/>
      <point x="584" y="1035" type="line" smooth="yes"/>
      <point x="577" y="987"/>
      <point x="560" y="961"/>
      <point x="544" y="961" type="curve" smooth="yes"/>
      <point x="527" y="961"/>
      <point x="511" y="985"/>
    </contour>
    <contour>
      <point x="241" y="1034" type="curve" smooth="no"/>
      <point x="188" y="1420" type="line" smooth="yes"/>
      <point x="188" y="1424"/>
      <point x="187" y="1429"/>
      <point x="187" y="1434" type="curve" smooth="yes"/>
      <point x="187" y="1488"/>
      <point x="235" y="1515"/>
      <point x="282" y="1515" type="curve" smooth="yes"/>
      <point x="329" y="1515"/>
      <point x="375" y="1489"/>
      <point x="375" y="1435" type="curve" smooth="yes"/>
      <point x="375" y="1429"/>
      <point x="375" y="1424"/>
      <point x="374" y="1420" type="curve" smooth="yes"/>
      <point x="318" y="1035" type="line" smooth="no"/>
      <point x="313" y="987"/>
      <point x="295" y="961"/>
      <point x="279" y="961" type="curve" smooth="yes"/>
      <point x="260" y="961"/>
      <point x="245" y="985"/>
    </contour>
  </outline>
</glyph>
<glyph name="parenleft" format="1">
  <advance width="668"/>
  <unicode hex="0028"/>
  <outline>
    <contour>
      <point x="482" y="-108" type="curve"/>
      <point x="588" y="4" type="line"/>
      <point x="389" y="143"/>
      <point x="289" y="453"/>
      <point x="289" y="760" type="curve" smooth="yes"/>
      <point x="289" y="1067"/>
      <point x="389" y="1377"/>
      <point x="588" y="1516" type="curve"/>
      <point x="482" y="1628" type="line"/>
      <point x="224" y="1460"/>
      <point x="96" y="1109"/>
      <point x="96" y="760" type="curve" smooth="yes"/>
      <point x="96" y="411"/>
      <point x="224" y="60"/>
    </contour>
  </outline>
</glyph>
<glyph name="parenright" format="1">
  <advance width="669"/>
  <unicode hex="0029"/>
  <outline>
    <contour>
      <point x="188" y="-108" type="line"/>
      <point x="446" y="60"/>
      <point x="574" y="411"/>
      <point x="574" y="760" type="curve" smooth="yes"/>
      <point x="574" y="1109"/>
      <point x="446" y="1460"/>
      <point x="188" y="1628" type="curve"/>
      <point x="82" y="1516" type="line"/>
      <point x="281" y="1377"/>
      <point x="381" y="1067"/>
      <point x="381" y="760" type="curve" smooth="yes"/>
      <point x="381" y="453"/>
      <point x="281" y="143"/>
      <point x="82" y="4" type="curve"/>
    </contour>
  </outline>
</glyph>
<glyph name="plus" format="1">
  <advance width="1188"/>
  <unicode hex="002b"/>
  <outline>
    <contour>
      <point x="671" y="706" type="line" smooth="no"/>
      <point x="671" y="356" type="line" smooth="no"/>
      <point x="516" y="356" type="line" smooth="no"/>
      <point x="516" y="706" type="line" smooth="no"/>
      <point x="192" y="706" type="line" smooth="no"/>
      <point x="192" y="861" type="line" smooth="no"/>
      <point x="516" y="861" type="line" smooth="no"/>
      <point x="516" y="1211" type="line" smooth="no"/>
      <point x="671" y="1211" type="line" smooth="no"/>
      <point x="671" y="861" type="line" smooth="no"/>
      <point x="995" y="861" type="line" smooth="no"/>
      <point x="995" y="706" type="line" smooth="no"/>
    </contour>
  </outline>
</glyph>
<glyph name="comma" format="1">
  <advance width="253"/>
  <unicode hex="002C"/>
  <outline>
    <contour>
      <point x="80" y="-125" type="line"/>
      <point x="137" y="-125"/>
      <point x="208" y="-21"/>
      <point x="208" y="51" type="curve" smooth="yes"/>
      <point x="208" y="105"/>
      <point x="169" y="130"/>
      <point x="131" y="130" type="curve" smooth="yes"/>
      <point x="91" y="130"/>
      <point x="52" y="104"/>
      <point x="52" y="56" type="curve" smooth="yes"/>
      <point x="52" y="28"/>
      <point x="69" y="0"/>
      <point x="106" y="-10" type="curve"/>
      <point x="106" y="-53"/>
      <point x="95" y="-81"/>
      <point x="67" y="-111" type="curve"/>
    </contour>
  </outline>
</glyph>
<glyph name="hyphen" format="1">
  <advance width="652"/>
  <unicode hex="002D"/>
  <outline>
    <contour>
      <point x="80" y="583" type="line"/>
      <point x="572" y="583" type="line"/>
      <point x="572" y="478" type="line"/>
      <point x="80" y="478" type="line"/>
    </contour>
  </outline>
</glyph>
<glyph name="period" format="1">
  <advance width="348"/>
  <unicode hex="002E"/>
  <outline>
    <contour>
      <point x="75" y="84" type="curve" smooth="yes"/>
      <point x="75" y="153"/>
      <point x="125" y="187"/>
      <point x="175" y="187" type="curve" smooth="yes"/>
      <point x="225" y="187"/>
      <point x="275" y="152"/>
      <point x="275" y="84" type="curve" smooth="yes"/>
      <point x="275" y="18"/>
      <point x="225" y="-14"/>
      <point x="175" y="-14" type="curve" smooth="yes"/>
      <point x="125" y="-14"/>
      <point x="75" y="18"/>
    </contour>
  </outline>
</glyph>
<glyph name="slash" format="1">
  <advance width="1096"/>
  <unicode hex="002f"/>
  <outline>
    <contour>
      <point x="1012" y="1516" type="line" smooth="no"/>
      <point x="273" y="0" type="line" smooth="no"/>
      <point x="81" y="0" type="line" smooth="no"/>
      <point x="822" y="1516" type="line" smooth="no"/>
    </contour>
  </outline>
</glyph>
<glyph name="zero" format="1">
  <advance width="957"/>
  <unicode hex="0030"/>
  <outline>
    <contour>
      <point x="479" y="-15" type="curve" smooth="yes"/>
      <point x="195" y="-15"/>
      <point x="78" y="245"/>
      <point x="78" y="585" type="curve" smooth="yes"/>
      <point x="78" y="942"/>
      <point x="206" y="1186"/>
      <point x="479" y="1186" type="curve" smooth="yes"/>
      <point x="752" y="1186"/>
      <point x="879" y="942"/>
      <point x="879" y="585" type="curve" smooth="yes"/>
      <point x="879" y="245"/>
      <point x="763" y="-15"/>
    </contour>
    <contour>
      <point x="479" y="1066" type="curve" smooth="yes"/>
      <point x="316" y="1066"/>
      <point x="228" y="866"/>
      <point x="228" y="591" type="curve" smooth="yes"/>
      <point x="228" y="311"/>
      <point x="316" y="105"/>
      <point x="479" y="105" type="curve" smooth="yes"/>
      <point x="642" y="105"/>
      <point x="731" y="311"/>
      <point x="731" y="591" type="curve" smooth="yes"/>
      <point x="731" y="866"/>
      <point x="642" y="1066"/>
    </contour>
  </outline>
</glyph>
<glyph name="one" format="1">
  <advance width="609"/>
  <unicode hex="0031"/>
  <outline>
    <contour>
      <point x="347" y="1522" type="curve" smooth="no"/>
      <point x="510" y="1522" type="line" smooth="no"/>
      <point x="510" y="0" type="line" smooth="no"/>
      <point x="329" y="0" type="line" smooth="no"/>
      <point x="329" y="1334" type="line" smooth="no"/>
      <point x="248" y="1283"/>
      <point x="153" y="1242"/>
      <point x="80" y="1220" type="curve" smooth="no"/>
      <point x="80" y="1391" type="line" smooth="no"/>
      <point x="169" y="1431"/>
      <point x="267" y="1464"/>
    </contour>
  </outline>
</glyph>
<glyph name="two" format="1">
  <advance width="1094"/>
  <unicode hex="0032"/>
  <outline>
    <contour>
      <point x="125" y="1404" type="line" smooth="no"/>
      <point x="210" y="1483"/>
      <point x="340" y="1534"/>
      <point x="535" y="1534" type="curve" smooth="yes"/>
      <point x="818" y="1534"/>
      <point x="989" y="1371"/>
      <point x="989" y="1116" type="curve" smooth="yes"/>
      <point x="989" y="926"/>
      <point x="886" y="780"/>
      <point x="718" y="606" type="curve" smooth="no"/>
      <point x="290" y="157" type="line" smooth="no"/>
      <point x="993" y="157" type="line" smooth="no"/>
      <point x="993" y="0" type="line" smooth="no"/>
      <point x="95" y="0" type="line" smooth="no"/>
      <point x="95" y="164" type="line" smooth="no"/>
      <point x="596" y="736" type="line" smooth="no"/>
      <point x="715" y="868"/>
      <point x="791" y="983"/>
      <point x="791" y="1102" type="curve" smooth="yes"/>
      <point x="791" y="1277"/>
      <point x="700" y="1375"/>
      <point x="521" y="1375" type="curve" smooth="yes"/>
      <point x="396" y="1375"/>
      <point x="270" y="1338"/>
      <point x="185" y="1252" type="curve" smooth="no"/>
    </contour>
  </outline>
</glyph>
<glyph name="three" format="1">
  <advance width="961"/>
  <unicode hex="0033"/>
  <outline>
    <contour>
      <point x="423" y="-19" type="curve" smooth="yes"/>
      <point x="715" y="-19"/>
      <point x="932" y="145"/>
      <point x="932" y="411" type="curve" smooth="yes"/>
      <point x="932" y="625"/>
      <point x="817" y="762"/>
      <point x="629" y="803" type="curve"/>
      <point x="795" y="853"/>
      <point x="896" y="973"/>
      <point x="896" y="1165" type="curve" smooth="yes"/>
      <point x="896" y="1407"/>
      <point x="685" y="1536"/>
      <point x="462" y="1536" type="curve" smooth="yes"/>
      <point x="250" y="1536"/>
      <point x="120" y="1494"/>
      <point x="27" y="1423" type="curve"/>
      <point x="83" y="1274" type="line"/>
      <point x="164" y="1338"/>
      <point x="284" y="1380"/>
      <point x="423" y="1380" type="curve" smooth="yes"/>
      <point x="601" y="1380"/>
      <point x="700" y="1305"/>
      <point x="700" y="1138" type="curve" smooth="yes"/>
      <point x="700" y="903"/>
      <point x="480" y="879"/>
      <point x="248" y="879" type="curve"/>
      <point x="248" y="727" type="line"/>
      <point x="532" y="727"/>
      <point x="755" y="687"/>
      <point x="755" y="414" type="curve" smooth="yes"/>
      <point x="755" y="234"/>
      <point x="623" y="137"/>
      <point x="424" y="137" type="curve" smooth="yes"/>
      <point x="270" y="137"/>
      <point x="161" y="187"/>
      <point x="83" y="247" type="curve"/>
      <point x="27" y="97" type="line"/>
      <point x="83" y="44"/>
      <point x="226" y="-19"/>
    </contour>
  </outline>
</glyph>
<glyph name="four" format="1">
  <advance width="950"/>
  <unicode hex="0034"/>
  <outline>
    <contour>
      <point x="872" y="290" type="line"/>
      <point x="738" y="290" type="line"/>
      <point x="738" y="0" type="line"/>
      <point x="608" y="0" type="line"/>
      <point x="608" y="290" type="line"/>
      <point x="78" y="290" type="line"/>
      <point x="78" y="411" type="line"/>
      <point x="593" y="1174" type="line"/>
      <point x="738" y="1174" type="line"/>
      <point x="738" y="403" type="line"/>
      <point x="883" y="403" type="line"/>
    </contour>
    <contour>
      <point x="608" y="997" type="line"/>
      <point x="216" y="403" type="line"/>
      <point x="608" y="403" type="line"/>
    </contour>
  </outline>
</glyph>
<glyph name="five" format="1">
  <advance width="769"/>
  <unicode hex="0035"/>
  <outline>
    <contour>
      <point x="701" y="1174" type="line"/>
      <point x="690" y="1046" type="line"/>
      <point x="211" y="1046" type="line"/>
      <point x="206" y="933"/>
      <point x="204" y="789"/>
      <point x="200" y="676" type="curve"/>
      <point x="263" y="715"/>
      <point x="327" y="733"/>
      <point x="393" y="733" type="curve" smooth="yes"/>
      <point x="630" y="733"/>
      <point x="747" y="575"/>
      <point x="747" y="376" type="curve" smooth="yes"/>
      <point x="747" y="142"/>
      <point x="589" y="-15"/>
      <point x="325" y="-15" type="curve" smooth="yes"/>
      <point x="189" y="-15"/>
      <point x="80" y="29"/>
      <point x="10" y="92" type="curve"/>
      <point x="62" y="203" type="line"/>
      <point x="112" y="165"/>
      <point x="201" y="111"/>
      <point x="330" y="111" type="curve" smooth="yes"/>
      <point x="503" y="111"/>
      <point x="606" y="222"/>
      <point x="606" y="375" type="curve" smooth="yes"/>
      <point x="606" y="509"/>
      <point x="524" y="609"/>
      <point x="365" y="609" type="curve" smooth="yes"/>
      <point x="291" y="609"/>
      <point x="229" y="587"/>
      <point x="179" y="533" type="curve"/>
      <point x="69" y="548" type="line"/>
      <point x="102" y="1174" type="line"/>
    </contour>
  </outline>
</glyph>
<glyph name="six" format="1">
  <advance width="938"/>
  <unicode hex="0036"/>
  <outline>
    <contour>
      <point x="495" y="723" type="curve" smooth="yes"/>
      <point x="692" y="723"/>
      <point x="862" y="570"/>
      <point x="862" y="354" type="curve" smooth="yes"/>
      <point x="862" y="145"/>
      <point x="710" y="-15"/>
      <point x="471" y="-15" type="curve" smooth="yes"/>
      <point x="221" y="-15"/>
      <point x="76" y="160"/>
      <point x="76" y="372" type="curve" smooth="yes"/>
      <point x="76" y="548"/>
      <point x="135" y="657"/>
      <point x="291" y="854" type="curve" smooth="yes"/>
      <point x="359" y="940"/>
      <point x="553" y="1174"/>
      <point x="553" y="1174" type="curve"/>
      <point x="735" y="1174" type="line"/>
      <point x="318" y="676" type="line"/>
      <point x="368" y="703"/>
      <point x="432" y="723"/>
    </contour>
    <contour>
      <point x="224" y="358" type="curve" smooth="yes"/>
      <point x="224" y="224"/>
      <point x="304" y="105"/>
      <point x="466" y="105" type="curve" smooth="yes"/>
      <point x="627" y="105"/>
      <point x="713" y="218"/>
      <point x="713" y="352" type="curve" smooth="yes"/>
      <point x="713" y="497"/>
      <point x="624" y="604"/>
      <point x="466" y="604" type="curve" smooth="yes"/>
      <point x="293" y="604"/>
      <point x="224" y="492"/>
    </contour>
  </outline>
</glyph>
<glyph name="seven" format="1">
  <advance width="836"/>
  <unicode hex="0037"/>
  <outline>
    <contour>
      <point x="200" y="0" type="line"/>
      <point x="601" y="1053" type="line"/>
      <point x="74" y="1053" type="line"/>
      <point x="83" y="1174" type="line"/>
      <point x="760" y="1174" type="line"/>
      <point x="760" y="1069" type="line"/>
      <point x="343" y="0" type="line"/>
    </contour>
  </outline>
</glyph>
<glyph name="eight" format="1">
  <advance width="908"/>
  <unicode hex="0038"/>
  <outline>
    <contour>
      <point x="455" y="-15" type="curve" smooth="yes"/>
      <point x="246" y="-15"/>
      <point x="72" y="97"/>
      <point x="72" y="305" type="curve" smooth="yes"/>
      <point x="72" y="452"/>
      <point x="162" y="564"/>
      <point x="315" y="613" type="curve"/>
      <point x="181" y="662"/>
      <point x="97" y="753"/>
      <point x="97" y="896" type="curve" smooth="yes"/>
      <point x="97" y="1083"/>
      <point x="248" y="1186"/>
      <point x="455" y="1186" type="curve" smooth="yes"/>
      <point x="661" y="1186"/>
      <point x="813" y="1083"/>
      <point x="813" y="896" type="curve" smooth="yes"/>
      <point x="813" y="753"/>
      <point x="734" y="662"/>
      <point x="611" y="613" type="curve"/>
      <point x="751" y="564"/>
      <point x="837" y="452"/>
      <point x="837" y="305" type="curve" smooth="yes"/>
      <point x="837" y="97"/>
      <point x="664" y="-15"/>
    </contour>
    <contour>
      <point x="455" y="548" type="curve"/>
      <point x="315" y="516"/>
      <point x="210" y="440"/>
      <point x="210" y="314" type="curve" smooth="yes"/>
      <point x="210" y="184"/>
      <point x="315" y="105"/>
      <point x="455" y="105" type="curve" smooth="yes"/>
      <point x="595" y="105"/>
      <point x="699" y="184"/>
      <point x="699" y="314" type="curve" smooth="yes"/>
      <point x="699" y="440"/>
      <point x="595" y="516"/>
    </contour>
    <contour>
      <point x="455" y="1066" type="curve" smooth="yes"/>
      <point x="339" y="1066"/>
      <point x="235" y="1008"/>
      <point x="235" y="899" type="curve" smooth="yes"/>
      <point x="235" y="775"/>
      <point x="311" y="696"/>
      <point x="455" y="664" type="curve"/>
      <point x="599" y="696"/>
      <point x="675" y="775"/>
      <point x="675" y="899" type="curve" smooth="yes"/>
      <point x="675" y="1008"/>
      <point x="571" y="1066"/>
    </contour>
  </outline>
</glyph>
<glyph name="nine" format="1">
  <advance width="1212"/>
  <unicode hex="0039"/>
  <outline>
    <contour>
      <point x="262" y="0" type="line"/>
      <point x="486" y="0" type="line"/>
      <point x="486" y="0"/>
      <point x="795" y="379"/>
      <point x="894" y="511" type="curve" smooth="yes"/>
      <point x="1051" y="719"/>
      <point x="1113" y="852"/>
      <point x="1113" y="1049" type="curve" smooth="yes"/>
      <point x="1113" y="1322"/>
      <point x="933" y="1534"/>
      <point x="608" y="1534" type="curve" smooth="yes"/>
      <point x="300" y="1534"/>
      <point x="98" y="1329"/>
      <point x="98" y="1060" type="curve" smooth="yes"/>
      <point x="98" y="784"/>
      <point x="318" y="606"/>
      <point x="574" y="606" type="curve" smooth="yes"/>
      <point x="655" y="606"/>
      <point x="737" y="633"/>
      <point x="802" y="667" type="curve"/>
    </contour>
    <contour>
      <point x="608" y="756" type="curve" smooth="yes"/>
      <point x="404" y="756"/>
      <point x="288" y="878"/>
      <point x="288" y="1063" type="curve" smooth="yes"/>
      <point x="288" y="1237"/>
      <point x="407" y="1380"/>
      <point x="616" y="1380" type="curve" smooth="yes"/>
      <point x="825" y="1380"/>
      <point x="922" y="1241"/>
      <point x="922" y="1069" type="curve" smooth="yes"/>
      <point x="922" y="898"/>
      <point x="833" y="756"/>
    </contour>
  </outline>
</glyph>
<glyph name="semicolon" format="1">
  <advance width="641"/>
  <unicode hex="003b"/>
  <outline>
    <contour>
      <point x="226" y="-101" type="curve" smooth="no"/>
      <point x="203" y="-75" type="line" smooth="no"/>
      <point x="265" y="-19"/>
      <point x="290" y="32"/>
      <point x="290" y="112" type="curve" smooth="no"/>
      <point x="221" y="130"/>
      <point x="190" y="183"/>
      <point x="190" y="234" type="curve" smooth="yes"/>
      <point x="190" y="323"/>
      <point x="254" y="371"/>
      <point x="321" y="371" type="curve" smooth="yes"/>
      <point x="391" y="371"/>
      <point x="464" y="324"/>
      <point x="464" y="225" type="curve" smooth="yes"/>
      <point x="464" y="90"/>
      <point x="332" y="-101"/>
    </contour>
    <contour>
      <point x="181" y="805" type="curve" smooth="yes"/>
      <point x="181" y="894"/>
      <point x="247" y="938"/>
      <point x="311" y="938" type="curve" smooth="yes"/>
      <point x="376" y="938"/>
      <point x="441" y="893"/>
      <point x="441" y="805" type="curve" smooth="yes"/>
      <point x="441" y="720"/>
      <point x="376" y="678"/>
      <point x="311" y="678" type="curve" smooth="yes"/>
      <point x="247" y="678"/>
      <point x="181" y="720"/>
    </contour>
  </outline>
</glyph>
<glyph name="less" format="1">
  <advance width="981"/>
  <unicode hex="003c"/>
  <outline>
    <contour>
      <point x="88" y="496" type="line" smooth="no"/>
      <point x="88" y="669" type="line" smooth="no"/>
      <point x="888" y="1086" type="line" smooth="no"/>
      <point x="888" y="880" type="line" smooth="no"/>
      <point x="242" y="576" type="line" smooth="no"/>
      <point x="888" y="288" type="line" smooth="no"/>
      <point x="888" y="75" type="line" smooth="no"/>
    </contour>
  </outline>
</glyph>
<glyph name="equal" format="1">
  <advance width="1255"/>
  <unicode hex="003d"/>
  <outline>
    <contour>
      <point x="1054" y="706" type="line" smooth="no"/>
      <point x="199" y="706" type="line" smooth="no"/>
      <point x="199" y="863" type="line" smooth="no"/>
      <point x="1054" y="863" type="line" smooth="no"/>
    </contour>
    <contour>
      <point x="1054" y="410" type="line" smooth="no"/>
      <point x="199" y="410" type="line" smooth="no"/>
      <point x="199" y="567" type="line" smooth="no"/>
      <point x="1054" y="567" type="line" smooth="no"/>
    </contour>
  </outline>
</glyph>
<glyph name="greater" format="1">
  <advance width="981"/>
  <unicode hex="003e"/>
  <outline>
    <contour>
      <point x="894" y="496" type="line" smooth="no"/>
      <point x="94" y="75" type="line" smooth="no"/>
      <point x="94" y="288" type="line" smooth="no"/>
      <point x="740" y="576" type="line" smooth="no"/>
      <point x="94" y="880" type="line" smooth="no"/>
      <point x="94" y="1086" type="line" smooth="no"/>
      <point x="894" y="669" type="line" smooth="no"/>
    </contour>
  </outline>
</glyph>
<glyph name="question" format="1">
  <advance width="997"/>
  <unicode hex="003f"/>
  <outline>
    <contour>
      <point x="357" y="435" type="curve" smooth="yes"/>
      <point x="357" y="797"/>
      <point x="675" y="900"/>
      <point x="675" y="1162" type="curve" smooth="yes"/>
      <point x="675" y="1295"/>
      <point x="565" y="1379"/>
      <point x="452" y="1379" type="curve" smooth="yes"/>
      <point x="349" y="1379"/>
      <point x="241" y="1339"/>
      <point x="170" y="1274" type="curve" smooth="no"/>
      <point x="113" y="1424" type="line" smooth="no"/>
      <point x="210" y="1501"/>
      <point x="338" y="1542"/>
      <point x="467" y="1542" type="curve" smooth="yes"/>
      <point x="673" y="1542"/>
      <point x="870" y="1422"/>
      <point x="870" y="1164" type="curve" smooth="yes"/>
      <point x="870" y="854"/>
      <point x="505" y="741"/>
      <point x="438" y="433" type="curve" smooth="yes"/>
      <point x="430" y="398"/>
      <point x="417" y="379"/>
      <point x="395" y="379" type="curve" smooth="yes"/>
      <point x="375" y="379"/>
      <point x="357" y="400"/>
    </contour>
    <contour>
      <point x="286" y="110" type="curve" smooth="yes"/>
      <point x="286" y="198"/>
      <point x="350" y="243"/>
      <point x="416" y="243" type="curve" smooth="yes"/>
      <point x="480" y="243"/>
      <point x="545" y="197"/>
      <point x="545" y="110" type="curve" smooth="yes"/>
      <point x="545" y="24"/>
      <point x="480" y="-17"/>
      <point x="416" y="-17" type="curve" smooth="yes"/>
      <point x="350" y="-17"/>
      <point x="286" y="24"/>
    </contour>
  </outline>
</glyph>
<glyph name="A" format="1">
  <advance width="1187"/>
  <unicode hex="0041"/>
  <outline>
    <contour>
      <point x="585" y="973" type="line"/>
      <point x="418" y="515" type="line"/>
      <point x="765" y="515" type="line"/>
    </contour>
    <contour>
      <point x="992" y="0" type="line"/>
      <point x="826" y="376" type="line"/>
      <point x="360" y="376" type="line"/>
      <point x="203" y="0" type="line"/>
      <point x="46" y="0" type="line"/>
      <point x="523" y="1174" type="line"/>
      <point x="638" y="1174" type="line"/>
      <point x="1141" y="4" type="line"/>
      <point x="1137" y="0" type="line"/>
    </contour>
    <contour>
      <point x="594" y="1174" type="move" name="top"/>
    </contour>
    <contour>
      <point x="1068" y="10" type="move" name="ogonek"/>
    </contour>
  </outline>
</glyph>
<glyph name="B" format="1">
  <advance width="670"/>
  <unicode hex="0042"/>
  <outline>
    <contour>
      <point x="65" y="4" type="line"/>
      <point x="65" y="0" type="line"/>
      <point x="301" y="0" type="line" smooth="yes"/>
      <point x="516" y="0"/>
      <point x="620" y="79"/>
      <point x="620" y="237" type="curve" smooth="yes"/>
      <point x="620" y="274"/>
      <point x="601" y="407"/>
      <point x="440" y="449" type="curve"/>
      <point x="514" y="473"/>
      <point x="550" y="549"/>
      <point x="550" y="617" type="curve" smooth="yes"/>
      <point x="550" y="727"/>
      <point x="467" y="836"/>
      <point x="297" y="836" type="curve" smooth="yes"/>
      <point x="65" y="836" type="line"/>
      <point x="65" y="825" type="line"/>
    </contour>
    <contour>
      <point x="346" y="388" type="line" smooth="yes"/>
      <point x="464" y="388"/>
      <point x="506" y="302"/>
      <point x="506" y="237" type="curve" smooth="yes"/>
      <point x="506" y="114"/>
      <point x="389" y="98"/>
      <point x="294" y="98" type="curve" smooth="yes"/>
      <point x="180" y="98" type="line"/>
      <point x="180" y="388" type="line"/>
    </contour>
    <contour>
      <point x="180" y="476" type="line"/>
      <point x="180" y="739" type="line"/>
      <point x="309" y="739" type="line" smooth="yes"/>
      <point x="404" y="739"/>
      <point x="447" y="678"/>
      <point x="447" y="614" type="curve" smooth="yes"/>
      <point x="447" y="546"/>
      <point x="405" y="476"/>
      <point x="329" y="476" type="curve" smooth="yes"/>
    </contour>
  </outline>
</glyph>
<glyph name="C" format="1">
  <advance width="1174"/>
  <unicode hex="0043"/>
  <outline>
    <contour>
      <point x="78" y="586" type="curve" smooth="yes"/>
      <point x="78" y="968"/>
      <point x="368" y="1186"/>
      <point x="711" y="1186" type="curve" smooth="yes"/>
      <point x="827" y="1186"/>
      <point x="958" y="1157"/>
      <point x="1077" y="1105" type="curve"/>
      <point x="1077" y="934" type="line"/>
      <point x="950" y="1002"/>
      <point x="823" y="1039"/>
      <point x="713" y="1039" type="curve" smooth="yes"/>
      <point x="466" y="1039"/>
      <point x="250" y="868"/>
      <point x="250" y="583" type="curve" smooth="yes"/>
      <point x="250" y="275.675"/>
      <point x="470" y="128"/>
      <point x="707" y="128" type="curve" smooth="yes"/>
      <point x="834" y="128"/>
      <point x="972" y="172.654"/>
      <point x="1077" y="257" type="curve"/>
      <point x="1077" y="90" type="line"/>
      <point x="942" y="16.6981"/>
      <point x="820" y="-15"/>
      <point x="699" y="-15" type="curve" smooth="yes"/>
      <point x="329" y="-15"/>
      <point x="78" y="252.555"/>
    </contour>
    <contour>
      <point x="587" y="1174" type="move" name="top"/>
    </contour>
    <contour>
      <point x="587" y="0" type="move" name="bottom"/>
    </contour>
  </outline>
</glyph>
<glyph name="D" format="1">
  <advance width="851"/>
  <unicode hex="0044"/>
  <outline>
    <contour>
      <point x="65" y="-3" type="line"/>
      <point x="68" y="-6" type="line"/>
      <point x="69" y="-7"/>
      <point x="178" y="-9"/>
      <point x="225" y="-9" type="curve"/>
      <point x="229" y="-9"/>
      <point x="293" y="-9"/>
      <point x="317" y="-9" type="curve"/>
      <point x="330" y="-9"/>
      <point x="395" y="-9"/>
      <point x="408" y="-9" type="curve"/>
      <point x="416" y="-9"/>
      <point x="449" y="-5"/>
      <point x="456" y="-3" type="curve"/>
      <point x="478" y="2"/>
      <point x="539" y="21"/>
      <point x="544" y="24" type="curve"/>
      <point x="640" y="81" type="line"/>
      <point x="718" y="162" type="line"/>
      <point x="775" y="271" type="line"/>
      <point x="799" y="379" type="line"/>
      <point x="799" y="457" type="line"/>
      <point x="772" y="563" type="line"/>
      <point x="715" y="665" type="line"/>
      <point x="643" y="740" type="line"/>
      <point x="544" y="794" type="line"/>
      <point x="426" y="824" type="line"/>
      <point x="71" y="824" type="line"/>
      <point x="65" y="818" type="line"/>
    </contour>
    <contour>
      <point x="177" y="99" type="line"/>
      <point x="177" y="716" type="line"/>
      <point x="183" y="722" type="line"/>
      <point x="411" y="722" type="line"/>
      <point x="505" y="695" type="line"/>
      <point x="568" y="656" type="line"/>
      <point x="631" y="584" type="line"/>
      <point x="635" y="579"/>
      <point x="658" y="535"/>
      <point x="664" y="520" type="curve"/>
      <point x="680" y="482"/>
      <point x="685" y="448"/>
      <point x="685" y="408" type="curve"/>
      <point x="685" y="403"/>
      <point x="685" y="392"/>
      <point x="685" y="391" type="curve"/>
      <point x="661" y="283" type="line"/>
      <point x="659" y="276"/>
      <point x="630" y="225"/>
      <point x="619" y="210" type="curve"/>
      <point x="612" y="202"/>
      <point x="577" y="166"/>
      <point x="568" y="159" type="curve"/>
      <point x="553" y="148"/>
      <point x="503" y="119"/>
      <point x="496" y="117" type="curve"/>
      <point x="384" y="90" type="line"/>
      <point x="384" y="90"/>
      <point x="355" y="90"/>
      <point x="343" y="90" type="curve"/>
      <point x="330" y="90"/>
      <point x="287" y="90"/>
      <point x="282" y="90" type="curve"/>
      <point x="251" y="91"/>
      <point x="180" y="93"/>
      <point x="180" y="93" type="curve"/>
    </contour>
    <contour>
      <point x="541" y="593" type="curve"/>
      <point x="541" y="594"/>
      <point x="537" y="594"/>
      <point x="538" y="593" type="curve"/>
      <point x="538" y="591"/>
      <point x="540" y="591"/>
    </contour>
    <contour>
      <point x="285" y="738" type="curve"/>
      <point x="286" y="738"/>
      <point x="286" y="736"/>
      <point x="285" y="736" type="curve"/>
      <point x="284" y="736"/>
      <point x="284" y="738"/>
    </contour>
  </outline>
</glyph>
<glyph name="E" format="1">
  <advance width="583"/>
  <unicode hex="0045"/>
  <outline>
    <contour>
      <point x="65" y="0" type="line"/>
      <point x="535" y="0" type="line"/>
      <point x="535" y="99" type="line"/>
      <point x="177" y="99" type="line"/>
      <point x="177" y="376" type="line"/>
      <point x="520" y="376" type="line"/>
      <point x="520" y="475" type="line"/>
      <point x="177" y="475" type="line"/>
      <point x="177" y="737" type="line"/>
      <point x="529" y="737" type="line"/>
      <point x="529" y="836" type="line"/>
      <point x="65" y="836" type="line"/>
    </contour>
  </outline>
</glyph>
<glyph name="F" format="1">
  <advance width="558"/>
  <unicode hex="0046"/>
  <outline>
    <contour>
      <point x="179" y="93" type="line"/>
      <point x="179" y="111" type="line"/>
      <point x="179" y="361" type="line"/>
      <point x="182" y="364" type="line"/>
      <point x="187" y="364"/>
      <point x="204" y="364"/>
      <point x="212" y="364" type="curve" smooth="yes"/>
      <point x="257" y="364"/>
      <point x="472" y="360"/>
      <point x="510" y="360" type="curve" smooth="yes"/>
      <point x="517" y="360"/>
      <point x="519" y="371"/>
      <point x="519" y="376" type="curve" smooth="yes"/>
      <point x="519" y="454" type="line" smooth="yes"/>
      <point x="519" y="457"/>
      <point x="515" y="462"/>
      <point x="513" y="463" type="curve"/>
      <point x="433" y="465"/>
      <point x="353" y="466"/>
      <point x="273" y="466" type="curve" smooth="yes"/>
      <point x="247" y="466"/>
      <point x="220" y="466"/>
      <point x="194" y="466" type="curve"/>
      <point x="179" y="469" type="line"/>
      <point x="179" y="728" type="line"/>
      <point x="516" y="728" type="line" smooth="yes"/>
      <point x="534" y="728"/>
      <point x="528" y="775"/>
      <point x="528" y="812" type="curve" smooth="yes"/>
      <point x="528" y="818"/>
      <point x="526" y="827"/>
      <point x="519" y="827" type="curve" smooth="yes"/>
      <point x="73" y="827" type="line" smooth="yes"/>
      <point x="71" y="827"/>
      <point x="67" y="818"/>
      <point x="67" y="818" type="curve"/>
      <point x="67" y="776"/>
      <point x="67" y="728"/>
      <point x="67" y="676" type="curve" smooth="yes"/>
      <point x="67" y="416"/>
      <point x="64" y="69"/>
      <point x="64" y="69" type="curve"/>
      <point x="64" y="0" type="line"/>
      <point x="179" y="0" type="line"/>
    </contour>
  </outline>
</glyph>
<glyph name="G" format="1">
  <advance width="1543"/>
  <unicode hex="0047"/>
  <outline>
    <contour>
      <point x="921" y="1536" type="curve" smooth="yes"/>
      <point x="1077" y="1536"/>
      <point x="1235" y="1496"/>
      <point x="1386" y="1409" type="curve" smooth="no"/>
      <point x="1386" y="1242" type="line" smooth="no"/>
      <point x="1238" y="1333"/>
      <point x="1081" y="1376"/>
      <point x="936" y="1376" type="curve" smooth="yes"/>
      <point x="592" y="1376"/>
      <point x="303" y="1134"/>
      <point x="303" y="731" type="curve" smooth="yes"/>
      <point x="303" y="411"/>
      <point x="531" y="145"/>
      <point x="886" y="145" type="curve" smooth="yes"/>
      <point x="989" y="145"/>
      <point x="1105" y="168"/>
      <point x="1227" y="219" type="curve" smooth="no"/>
      <point x="1228" y="219" type="line" smooth="no"/>
      <point x="1228" y="557" type="line" smooth="no"/>
      <point x="953" y="557" type="line" smooth="no"/>
      <point x="953" y="731" type="line" smooth="no"/>
      <point x="1421" y="731" type="line" smooth="no"/>
      <point x="1421" y="106" type="line" smooth="no"/>
      <point x="1210" y="17"/>
      <point x="1027" y="-19"/>
      <point x="870" y="-19" type="curve" smooth="yes"/>
      <point x="347" y="-19"/>
      <point x="106" y="391"/>
      <point x="106" y="733" type="curve" smooth="yes"/>
      <point x="106" y="1206"/>
      <point x="468" y="1536"/>
    </contour>
  </outline>
</glyph>
<glyph name="H" format="1">
  <advance width="813"/>
  <unicode hex="0048"/>
  <outline>
    <contour>
      <point x="65" y="0" type="line"/>
      <point x="173" y="0" type="line"/>
      <point x="173" y="378" type="line"/>
      <point x="639" y="378" type="line"/>
      <point x="639" y="0" type="line"/>
      <point x="748" y="0" type="line"/>
      <point x="748" y="836" type="line"/>
      <point x="639" y="836" type="line"/>
      <point x="639" y="472" type="line"/>
      <point x="173" y="472" type="line"/>
      <point x="173" y="836" type="line"/>
      <point x="65" y="836" type="line"/>
    </contour>
  </outline>
</glyph>
<glyph name="I" format="1">
  <advance width="335"/>
  <unicode hex="0049"/>
  <outline>
    <contour>
      <point x="243" y="0" type="line"/>
      <point x="92" y="0" type="line"/>
      <point x="92" y="1174" type="line"/>
      <point x="243" y="1174" type="line"/>
    </contour>
    <contour>
      <point x="168" y="1174" type="move" name="top"/>
    </contour>
    <contour>
      <point x="302" y="10" type="move" name="ogonek"/>
    </contour>
  </outline>
</glyph>
<glyph name="J" format="1">
  <advance width="607"/>
  <unicode hex="004A"/>
  <outline>
    <contour>
      <point x="7" y="-394" type="line"/>
      <point x="327" y="-393"/>
      <point x="463" y="-289"/>
      <point x="463" y="-44" type="curve" smooth="yes"/>
      <point x="463" y="1514" type="line"/>
      <point x="272" y="1514" type="line"/>
      <point x="272" y="23" type="line" smooth="yes"/>
      <point x="272" y="-177"/>
      <point x="239" y="-240"/>
      <point x="7" y="-240" type="curve"/>
    </contour>
  </outline>
</glyph>
<glyph name="K" format="1">
  <advance width="1326"/>
  <unicode hex="004B"/>
  <outline>
    <contour>
      <point x="128" y="0" type="line"/>
      <point x="320" y="0" type="line"/>
      <point x="320" y="742" type="line"/>
      <point x="1001" y="0" type="line"/>
      <point x="1260" y="0" type="line"/>
      <point x="1260" y="8" type="line"/>
      <point x="546" y="789" type="line"/>
      <point x="1168" y="1506" type="line"/>
      <point x="1168" y="1516" type="line"/>
      <point x="933" y="1516" type="line"/>
      <point x="320" y="824" type="line"/>
      <point x="320" y="1516" type="line"/>
      <point x="128" y="1516" type="line"/>
    </contour>
  </outline>
</glyph>
<glyph name="L" format="1">
  <advance width="561"/>
  <unicode hex="004C"/>
  <outline>
    <contour>
      <point x="88" y="0" type="line"/>
      <point x="540" y="0" type="line"/>
      <point x="540" y="101" type="line"/>
      <point x="196" y="101" type="line"/>
      <point x="196" y="795" type="line"/>
      <point x="88" y="795" type="line"/>
      <point x="88" y="8" type="line"/>
    </contour>
  </outline>
</glyph>
<glyph name="M" format="1">
  <advance width="1613"/>
  <unicode hex="004D"/>
  <outline>
    <contour>
      <point x="128" y="0" type="line"/>
      <point x="319" y="0" type="line"/>
      <point x="319" y="1204" type="line"/>
      <point x="792" y="605" type="line"/>
      <point x="826" y="605" type="line"/>
      <point x="1294" y="1189" type="line"/>
      <point x="1294" y="0" type="line"/>
      <point x="1485" y="0" type="line"/>
      <point x="1485" y="1516" type="line"/>
      <point x="1308" y="1516" type="line"/>
      <point x="809" y="876" type="line"/>
      <point x="302" y="1516" type="line"/>
      <point x="128" y="1516" type="line"/>
    </contour>
  </outline>
</glyph>
<glyph name="N" format="1">
  <advance width="1241"/>
  <unicode hex="004E"/>
  <outline>
    <contour>
      <point x="98" y="0" type="line"/>
      <point x="98" y="1174" type="line"/>
      <point x="220" y="1174" type="line"/>
      <point x="996" y="248" type="line"/>
      <point x="996" y="1174" type="line"/>
      <point x="1143" y="1174" type="line"/>
      <point x="1143" y="0" type="line"/>
      <point x="1014" y="0" type="line"/>
      <point x="242" y="918" type="line"/>
      <point x="242" y="0" type="line"/>
    </contour>
    <contour>
      <point x="621" y="1174" type="move" name="top"/>
    </contour>
    <contour>
      <point x="621" y="0" type="move" name="bottom"/>
    </contour>
  </outline>
</glyph>
<glyph name="O" format="1">
  <advance width="960"/>
  <unicode hex="004F"/>
  <outline>
    <contour>
      <point x="165" y="417" type="curve" smooth="yes"/>
      <point x="165" y="596"/>
      <point x="307" y="742"/>
      <point x="480" y="742" type="curve" smooth="yes"/>
      <point x="653" y="742"/>
      <point x="795" y="596"/>
      <point x="795" y="417" type="curve" smooth="yes"/>
      <point x="795" y="238"/>
      <point x="653" y="92"/>
      <point x="480" y="92" type="curve" smooth="yes"/>
      <point x="307" y="92"/>
      <point x="165" y="238"/>
    </contour>
    <contour>
      <point x="53" y="417" type="curve" smooth="yes"/>
      <point x="53" y="181"/>
      <point x="244" y="-10"/>
      <point x="480" y="-10" type="curve" smooth="yes"/>
      <point x="716" y="-10"/>
      <point x="907" y="181"/>
      <point x="907" y="417" type="curve" smooth="yes"/>
      <point x="907" y="653"/>
      <point x="716" y="844"/>
      <point x="480" y="844" type="curve" smooth="yes"/>
      <point x="244" y="844"/>
      <point x="53" y="653"/>
    </contour>
  </outline>
</glyph>
<glyph name="P" format="1">
  <advance width="1038"/>
  <unicode hex="0050"/>
  <outline>
    <contour>
      <point x="128" y="0" type="line"/>
      <point x="319" y="0" type="line"/>
      <point x="319" y="690" type="line"/>
      <point x="421" y="690" type="line" smooth="yes"/>
      <point x="807" y="690"/>
      <point x="961" y="868"/>
      <point x="961" y="1118" type="curve" smooth="yes"/>
      <point x="961" y="1401"/>
      <point x="747" y="1516"/>
      <point x="469" y="1516" type="curve" smooth="yes"/>
      <point x="128" y="1516" type="line"/>
    </contour>
    <contour>
      <point x="319" y="856" type="line"/>
      <point x="319" y="1352" type="line"/>
      <point x="449" y="1352" type="line" smooth="yes"/>
      <point x="713" y="1352"/>
      <point x="760" y="1231"/>
      <point x="760" y="1107" type="curve" smooth="yes"/>
      <point x="760" y="879"/>
      <point x="564" y="856"/>
      <point x="329" y="856" type="curve" smooth="yes"/>
    </contour>
  </outline>
</glyph>
<glyph name="Q" format="1">
  <advance width="948"/>
  <unicode hex="0051"/>
  <outline>
    <contour>
      <point x="425" y="1" type="line"/>
      <point x="460" y="-77"/>
      <point x="557" y="-197"/>
      <point x="682" y="-228" type="curve"/>
      <point x="787" y="-167" type="line"/>
      <point x="787" y="-149" type="line"/>
      <point x="625" y="-151"/>
      <point x="515" y="6"/>
      <point x="497" y="65" type="curve"/>
    </contour>
    <component base="O" xOffset="-10"/>
  </outline>
</glyph>
<glyph name="R" format="1">
  <advance width="850"/>
  <unicode hex="0052"/>
  <outline>
    <contour>
      <point x="839" y="0" type="curve"/>
      <point x="654" y="0" type="line"/>
      <point x="546" y="164"/>
      <point x="455" y="355"/>
      <point x="375" y="534" type="curve"/>
      <point x="358" y="534"/>
      <point x="341" y="533"/>
      <point x="323" y="533" type="curve" smooth="yes"/>
      <point x="250" y="533" type="line"/>
      <point x="250" y="0" type="line"/>
      <point x="95" y="0" type="line"/>
      <point x="95" y="1174" type="line"/>
      <point x="360" y="1174" type="line" smooth="yes"/>
      <point x="575" y="1174"/>
      <point x="742" y="1084"/>
      <point x="742" y="865" type="curve" smooth="yes"/>
      <point x="742" y="720"/>
      <point x="671" y="606"/>
      <point x="509" y="555" type="curve"/>
      <point x="599" y="358"/>
      <point x="699" y="184"/>
    </contour>
    <contour>
      <point x="583" y="857" type="curve" smooth="yes"/>
      <point x="583" y="951"/>
      <point x="546" y="1044"/>
      <point x="344" y="1044" type="curve" smooth="yes"/>
      <point x="252" y="1044" type="line"/>
      <point x="252" y="665" type="line"/>
      <point x="434" y="665"/>
      <point x="583" y="683"/>
    </contour>
    <contour>
      <point x="425" y="1174" type="move" name="top"/>
    </contour>
    <contour>
      <point x="425" y="0" type="move" name="bottom"/>
    </contour>
  </outline>
</glyph>
<glyph name="S" format="1">
  <advance width="569"/>
  <unicode hex="0053"/>
  <outline>
    <contour>
      <point x="60" y="184" type="curve" smooth="yes"/>
      <point x="60" y="180"/>
      <point x="60" y="166"/>
      <point x="60" y="165" type="curve" smooth="yes"/>
      <point x="62" y="135"/>
      <point x="65" y="67"/>
      <point x="65" y="67" type="curve"/>
      <point x="74" y="58" type="line" smooth="yes"/>
      <point x="81" y="51"/>
      <point x="143" y="20"/>
      <point x="163" y="14" type="curve" smooth="yes"/>
      <point x="179" y="8"/>
      <point x="258" y="-9"/>
      <point x="275" y="-9" type="curve" smooth="yes"/>
      <point x="275" y="-9"/>
      <point x="283" y="-10"/>
      <point x="284" y="-10" type="curve" smooth="yes"/>
      <point x="410" y="-10"/>
      <point x="515" y="88"/>
      <point x="515" y="215" type="curve" smooth="yes"/>
      <point x="515" y="257"/>
      <point x="508" y="298"/>
      <point x="484" y="334" type="curve" smooth="yes"/>
      <point x="474" y="350"/>
      <point x="435" y="398"/>
      <point x="431" y="401" type="curve" smooth="yes"/>
      <point x="247" y="522" type="line" smooth="yes"/>
      <point x="218" y="541"/>
      <point x="163" y="592"/>
      <point x="163" y="638" type="curve" smooth="yes"/>
      <point x="163" y="704"/>
      <point x="243" y="740"/>
      <point x="298" y="740" type="curve" smooth="yes"/>
      <point x="360" y="740"/>
      <point x="407" y="712"/>
      <point x="458" y="678" type="curve" smooth="yes"/>
      <point x="464" y="673"/>
      <point x="468" y="664"/>
      <point x="477" y="664" type="curve" smooth="yes"/>
      <point x="480" y="664"/>
      <point x="484" y="666"/>
      <point x="484" y="669" type="curve" smooth="yes"/>
      <point x="484" y="789" type="line"/>
      <point x="484" y="790"/>
      <point x="481" y="793"/>
      <point x="480" y="793" type="curve" smooth="yes"/>
      <point x="472" y="798"/>
      <point x="447" y="811"/>
      <point x="444" y="811" type="curve" smooth="yes"/>
      <point x="428" y="817"/>
      <point x="349" y="839"/>
      <point x="333" y="842" type="curve" smooth="yes"/>
      <point x="327" y="844"/>
      <point x="301" y="844"/>
      <point x="295" y="844" type="curve" smooth="yes"/>
      <point x="286" y="844"/>
      <point x="259" y="844"/>
      <point x="256" y="842" type="curve"/>
      <point x="243" y="841"/>
      <point x="181" y="822"/>
      <point x="167" y="816" type="curve" smooth="yes"/>
      <point x="99" y="786"/>
      <point x="56" y="707"/>
      <point x="56" y="635" type="curve" smooth="yes"/>
      <point x="56" y="567"/>
      <point x="89" y="495"/>
      <point x="145" y="454" type="curve" smooth="yes"/>
      <point x="382" y="285" type="line" smooth="yes"/>
      <point x="401" y="270"/>
      <point x="404" y="236"/>
      <point x="404" y="214" type="curve" smooth="yes"/>
      <point x="404" y="138"/>
      <point x="345" y="98"/>
      <point x="274" y="98" type="curve" smooth="yes"/>
      <point x="261" y="98"/>
      <point x="234" y="98"/>
      <point x="225" y="103" type="curve" smooth="yes"/>
      <point x="149" y="138" type="line"/>
      <point x="74" y="209" type="line"/>
      <point x="74" y="209"/>
      <point x="71" y="209"/>
      <point x="69" y="209" type="curve" smooth="yes"/>
      <point x="66" y="209"/>
      <point x="62" y="209"/>
      <point x="60" y="205" type="curve" smooth="yes"/>
      <point x="60" y="202"/>
      <point x="60" y="187"/>
    </contour>
  </outline>
</glyph>
<glyph name="T" format="1">
  <advance width="1020"/>
  <unicode hex="0054"/>
  <outline>
    <contour>
      <point x="429" y="0" type="line"/>
      <point x="429" y="1035" type="line"/>
      <point x="30" y="1035" type="line"/>
      <point x="30" y="1174" type="line"/>
      <point x="990" y="1174" type="line"/>
      <point x="990" y="1035" type="line"/>
      <point x="588" y="1035" type="line"/>
      <point x="588" y="0" type="line"/>
    </contour>
    <contour>
      <point x="510" y="1174" type="move" name="top"/>
    </contour>
    <contour>
      <point x="510" y="0" type="move" name="bottom"/>
    </contour>
    <contour>
      <point x="510" y="587" type="move" name="center"/>
    </contour>
  </outline>
</glyph>
<glyph name="U" format="1">
  <advance width="817"/>
  <unicode hex="0055"/>
  <outline>
    <contour>
      <point x="61" y="333" type="line" smooth="yes"/>
      <point x="61" y="104"/>
      <point x="235" y="-10"/>
      <point x="409" y="-10" type="curve" smooth="yes"/>
      <point x="583" y="-10"/>
      <point x="757" y="104"/>
      <point x="757" y="334" type="curve" smooth="yes"/>
      <point x="757" y="836" type="line"/>
      <point x="641" y="836" type="line"/>
      <point x="641" y="336" type="line" smooth="yes"/>
      <point x="641" y="170"/>
      <point x="525" y="88"/>
      <point x="408" y="88" type="curve" smooth="yes"/>
      <point x="292" y="88"/>
      <point x="176" y="170"/>
      <point x="176" y="336" type="curve" smooth="yes"/>
      <point x="176" y="836" type="line"/>
      <point x="61" y="836" type="line"/>
    </contour>
  </outline>
</glyph>
<glyph name="V" format="1">
  <advance width="1281"/>
  <unicode hex="0056"/>
  <outline>
    <contour>
      <point x="621" y="-13" type="line"/>
      <point x="677" y="-13" type="line"/>
      <point x="1285" y="1515" type="line"/>
      <point x="1086" y="1515" type="line"/>
      <point x="650" y="366" type="line"/>
      <point x="192" y="1515" type="line"/>
      <point x="-8" y="1515" type="line"/>
    </contour>
  </outline>
</glyph>
<glyph name="W" format="1">
  <advance width="1291"/>
  <unicode hex="0057"/>
  <outline>
    <contour>
      <point x="645" y="637" type="line"/>
      <point x="899" y="-10" type="line"/>
      <point x="931" y="-10" type="line"/>
      <point x="1241" y="794" type="line"/>
      <point x="1127" y="794" type="line"/>
      <point x="916" y="226" type="line"/>
      <point x="699" y="794" type="line"/>
      <point x="593" y="794" type="line"/>
      <point x="371" y="231" type="line"/>
      <point x="169" y="794" type="line"/>
      <point x="50" y="794" type="line"/>
      <point x="357" y="-9" type="line"/>
      <point x="387" y="-9" type="line"/>
    </contour>
  </outline>
</glyph>
<glyph name="X" format="1">
  <advance width="1180"/>
  <unicode hex="0058"/>
  <outline>
    <contour>
      <point x="591" y="478" type="line"/>
      <point x="209" y="0" type="line"/>
      <point x="3" y="0" type="line"/>
      <point x="484" y="610" type="line"/>
      <point x="30" y="1174" type="line"/>
      <point x="232" y="1174" type="line"/>
      <point x="589" y="727" type="line"/>
      <point x="950" y="1174" type="line"/>
      <point x="1151" y="1174" type="line"/>
      <point x="687" y="608" type="line"/>
      <point x="1177" y="0" type="line"/>
      <point x="982" y="0" type="line"/>
    </contour>
  </outline>
</glyph>
<glyph name="Y" format="1">
  <advance width="986"/>
  <unicode hex="0059"/>
  <outline>
    <contour>
      <point x="411" y="622" type="line"/>
      <point x="3" y="1174" type="line"/>
      <point x="189" y="1174" type="line"/>
      <point x="492" y="744" type="line"/>
      <point x="808" y="1174" type="line"/>
      <point x="983" y="1174" type="line"/>
      <point x="578" y="618" type="line"/>
      <point x="578" y="0" type="line"/>
      <point x="411" y="0" type="line"/>
    </contour>
    <contour>
      <point x="493" y="1174" type="move" name="top"/>
    </contour>
  </outline>
</glyph>
<glyph name="Z" format="1">
  <advance width="809"/>
  <unicode hex="005A"/>
  <outline>
    <contour>
      <point x="737" y="0" type="line"/>
      <point x="737" y="96" type="line"/>
      <point x="255" y="96" type="line"/>
      <point x="735" y="829" type="line"/>
      <point x="729" y="836" type="line"/>
      <point x="88" y="836" type="line"/>
      <point x="88" y="743" type="line"/>
      <point x="541" y="743" type="line"/>
      <point x="60" y="7" type="line"/>
      <point x="62" y="0" type="line"/>
    </contour>
  </outline>
</glyph>
<glyph name="bracketleft" format="1">
  <advance width="549"/>
  <unicode hex="005B"/>
  <outline>
    <contour>
      <point x="93" y="-15" type="line"/>
      <point x="93" y="1210" type="line"/>
      <point x="538" y="1210" type="line"/>
      <point x="538" y="1067" type="line"/>
      <point x="257" y="1067" type="line"/>
      <point x="257" y="128" type="line"/>
      <point x="538" y="128" type="line"/>
      <point x="538" y="-15" type="line"/>
    </contour>
  </outline>
</glyph>
<glyph name="backslash" format="1">
  <advance width="1096"/>
  <unicode hex="005c"/>
  <outline>
    <contour>
      <point x="85" y="1516" type="line" smooth="no"/>
      <point x="275" y="1516" type="line" smooth="no"/>
      <point x="1016" y="0" type="line" smooth="no"/>
      <point x="824" y="0" type="line" smooth="no"/>
    </contour>
  </outline>
</glyph>
<glyph name="bracketright" format="1">
  <advance width="713"/>
  <unicode hex="005d"/>
  <outline>
    <contour>
      <point x="667" y="1567" type="line" smooth="no"/>
      <point x="667" y="-18" type="line" smooth="no"/>
      <point x="91" y="-18" type="line" smooth="no"/>
      <point x="91" y="167" type="line" smooth="no"/>
      <point x="453" y="167" type="line" smooth="no"/>
      <point x="453" y="1382" type="line" smooth="no"/>
      <point x="91" y="1382" type="line" smooth="no"/>
      <point x="91" y="1567" type="line" smooth="no"/>
    </contour>
  </outline>
</glyph>
<glyph name="grave" format="1">
  <advance width="284"/>
  <unicode hex="0060"/>
  <outline>
    <contour>
      <point x="182" y="417" type="curve"/>
      <point x="248" y="125" type="line" smooth="yes"/>
      <point x="250" y="120"/>
      <point x="250" y="114"/>
      <point x="250" y="111" type="curve" smooth="yes"/>
      <point x="250" y="104"/>
      <point x="247" y="100"/>
      <point x="243" y="100" type="curve" smooth="yes"/>
      <point x="238" y="100"/>
      <point x="230" y="104"/>
      <point x="223" y="114" type="curve" smooth="yes"/>
      <point x="61" y="352" type="line"/>
      <point x="44" y="374"/>
      <point x="37" y="395"/>
      <point x="37" y="414" type="curve" smooth="yes"/>
      <point x="37" y="455"/>
      <point x="72" y="483"/>
      <point x="108" y="483" type="curve" smooth="yes"/>
      <point x="137" y="483"/>
      <point x="167" y="465"/>
    </contour>
    <contour>
      <point x="143.5" y="770" type="move" name="_top"/>
    </contour>
  </outline>
</glyph>
<glyph name="a" format="1">
  <advance width="958"/>
  <unicode hex="0061"/>
  <outline>
    <contour>
      <point x="354" y="-21" type="curve" smooth="yes"/>
      <point x="435" y="-21"/>
      <point x="566" y="23"/>
      <point x="631" y="138" type="curve"/>
      <point x="663" y="71"/>
      <point x="751" y="15"/>
      <point x="813" y="-14" type="curve"/>
      <point x="911" y="128" type="line"/>
      <point x="829" y="171"/>
      <point x="780" y="177"/>
      <point x="780" y="285" type="curve" smooth="yes"/>
      <point x="780" y="693" type="line" smooth="yes"/>
      <point x="780" y="924"/>
      <point x="595" y="1006"/>
      <point x="429" y="1006" type="curve" smooth="yes"/>
      <point x="288" y="1006"/>
      <point x="143" y="919"/>
      <point x="104" y="878" type="curve"/>
      <point x="155" y="725" type="line"/>
      <point x="224" y="792"/>
      <point x="321" y="841"/>
      <point x="433" y="841" type="curve" smooth="yes"/>
      <point x="544" y="841"/>
      <point x="603" y="755"/>
      <point x="603" y="625" type="curve" smooth="yes"/>
      <point x="603" y="612"/>
      <point x="602" y="573"/>
      <point x="602" y="568" type="curve"/>
      <point x="438" y="525" type="line" smooth="yes"/>
      <point x="183" y="458"/>
      <point x="86" y="339"/>
      <point x="86" y="230" type="curve" smooth="yes"/>
      <point x="86" y="45"/>
      <point x="207" y="-21"/>
    </contour>
    <contour>
      <point x="602" y="224" type="line"/>
      <point x="559.903297246" y="171.238799214"/>
      <point x="462.043495512" y="115.642186616"/>
      <point x="384.281451781" y="115.564667576" type="curve" smooth="yes"/>
      <point x="323.501688239" y="115.504077746"/>
      <point x="275.0" y="149.361082673"/>
      <point x="275" y="245" type="curve" smooth="yes"/>
      <point x="275" y="380"/>
      <point x="477" y="419"/>
      <point x="602" y="460" type="curve"/>
    </contour>
  </outline>
</glyph>
<glyph name="b" format="1">
  <advance width="1063"/>
  <unicode hex="0062"/>
  <outline>
    <contour>
      <point x="420" y="-18" type="curve" smooth="yes"/>
      <point x="778" y="-18"/>
      <point x="982" y="212"/>
      <point x="982" y="545" type="curve" smooth="yes"/>
      <point x="982" y="843"/>
      <point x="788" y="1017"/>
      <point x="564" y="1017" type="curve" smooth="yes"/>
      <point x="473" y="1017"/>
      <point x="377" y="990"/>
      <point x="286" y="927" type="curve"/>
      <point x="286" y="1490" type="line"/>
      <point x="107" y="1490" type="line"/>
      <point x="107" y="49" type="line"/>
      <point x="107" y="49"/>
      <point x="244" y="-18"/>
    </contour>
    <contour>
      <point x="426" y="115" type="curve" smooth="yes"/>
      <point x="382" y="115"/>
      <point x="332" y="115"/>
      <point x="286" y="136" type="curve"/>
      <point x="286" y="767" type="line"/>
      <point x="286" y="767"/>
      <point x="385" y="869"/>
      <point x="556" y="869" type="curve" smooth="yes"/>
      <point x="707" y="869"/>
      <point x="795" y="732"/>
      <point x="795" y="532" type="curve" smooth="yes"/>
      <point x="795" y="299"/>
      <point x="653" y="115"/>
    </contour>
  </outline>
</glyph>
<glyph name="c" format="1">
  <advance width="944"/>
  <unicode hex="0063"/>
  <outline>
    <contour>
      <point x="591" y="-19" type="curve" smooth="yes"/>
      <point x="616" y="-19"/>
      <point x="771" y="-13"/>
      <point x="862" y="44" type="curve"/>
      <point x="862" y="211" type="line"/>
      <point x="845" y="211" type="line"/>
      <point x="773" y="168"/>
      <point x="682" y="133"/>
      <point x="603" y="133" type="curve" smooth="yes"/>
      <point x="374" y="133"/>
      <point x="264" y="328"/>
      <point x="264" y="501" type="curve" smooth="yes"/>
      <point x="264" y="674"/>
      <point x="383" y="863"/>
      <point x="600" y="863" type="curve" smooth="yes"/>
      <point x="701" y="863"/>
      <point x="750" y="846"/>
      <point x="839" y="798" type="curve"/>
      <point x="839" y="961" type="line"/>
      <point x="784" y="997"/>
      <point x="670" y="1017"/>
      <point x="584" y="1017" type="curve" smooth="yes"/>
      <point x="317" y="1017"/>
      <point x="80" y="811"/>
      <point x="80" y="500" type="curve" smooth="yes"/>
      <point x="80" y="195"/>
      <point x="302" y="-19"/>
    </contour>
  </outline>
</glyph>
<glyph name="d" format="1">
  <advance width="773"/>
  <unicode hex="0064"/>
  <outline>
    <contour>
      <point x="693" y="1034" type="line"/>
      <point x="693" y="49" type="line"/>
      <point x="693" y="49"/>
      <point x="566.021" y="-10"/>
      <point x="427" y="-10" type="curve" smooth="yes"/>
      <point x="171.694" y="-10"/>
      <point x="62" y="167"/>
      <point x="62" y="381" type="curve" smooth="yes"/>
      <point x="62" y="590"/>
      <point x="199" y="712"/>
      <point x="356" y="712" type="curve" smooth="yes"/>
      <point x="420" y="712"/>
      <point x="490" y="692"/>
      <point x="554" y="649" type="curve"/>
      <point x="554" y="1034" type="line"/>
    </contour>
    <contour>
      <point x="420" y="98" type="curve" smooth="yes"/>
      <point x="462" y="98"/>
      <point x="506" y="104"/>
      <point x="554" y="116" type="curve"/>
      <point x="554" y="529" type="line"/>
      <point x="554" y="529"/>
      <point x="483" y="601"/>
      <point x="363" y="601" type="curve" smooth="yes"/>
      <point x="259.821" y="601"/>
      <point x="201" y="509.052"/>
      <point x="201" y="377" type="curve" smooth="yes"/>
      <point x="201" y="211.593"/>
      <point x="289.573" y="98"/>
    </contour>
    <contour>
      <point x="387" y="385" type="move" name="center"/>
    </contour>
  </outline>
</glyph>
<glyph name="e" format="1">
  <advance width="822"/>
  <unicode hex="0065"/>
  <outline>
    <contour>
      <point x="605" y="477" type="line"/>
      <point x="603.753" y="587.975"/>
      <point x="523.802" y="669"/>
      <point x="416" y="669" type="curve" smooth="yes"/>
      <point x="302.253" y="669"/>
      <point x="233.046" y="584.149"/>
      <point x="215" y="477" type="curve"/>
    </contour>
    <contour>
      <point x="475.341" y="-15.039" type="curve" smooth="yes"/>
      <point x="226.82" y="-15.039"/>
      <point x="62" y="152.858"/>
      <point x="62" y="398" type="curve" smooth="yes"/>
      <point x="62" y="608.022"/>
      <point x="207.519" y="784"/>
      <point x="411" y="784" type="curve" smooth="yes"/>
      <point x="628.311" y="784"/>
      <point x="731" y="626.266"/>
      <point x="731" y="405" type="curve" smooth="yes"/>
      <point x="731" y="384" type="line"/>
      <point x="210" y="384" type="line"/>
      <point x="211.846" y="217.855"/>
      <point x="310.052" y="100"/>
      <point x="474" y="100" type="curve" smooth="yes"/>
      <point x="559.333" y="100"/>
      <point x="640.333" y="125.333"/>
      <point x="717" y="176" type="curve"/>
      <point x="717" y="55" type="line"/>
      <point x="647.275" y="9.38565"/>
      <point x="566.716" y="-15.039"/>
    </contour>
    <contour>
      <point x="411" y="770" type="move" name="top"/>
    </contour>
    <contour>
      <point x="411" y="0" type="move" name="bottom"/>
    </contour>
    <contour>
      <point x="740" y="10" type="move" name="ogonek"/>
    </contour>
  </outline>
</glyph>
<glyph name="f" format="1">
  <advance width="619"/>
  <unicode hex="0066"/>
  <outline>
    <contour>
      <point x="173" y="0" type="line"/>
      <point x="352" y="0" type="line"/>
      <point x="352" y="854" type="line"/>
      <point x="530" y="854" type="line"/>
      <point x="530" y="998" type="line"/>
      <point x="352" y="998" type="line"/>
      <point x="352" y="1072" type="line" smooth="yes"/>
      <point x="352" y="1214"/>
      <point x="403" y="1275"/>
      <point x="513" y="1275" type="curve" smooth="yes"/>
      <point x="548" y="1275"/>
      <point x="589" y="1266"/>
      <point x="641" y="1244" type="curve"/>
      <point x="641" y="1404" type="line"/>
      <point x="579" y="1424"/>
      <point x="525" y="1433"/>
      <point x="475" y="1433" type="curve" smooth="yes"/>
      <point x="271" y="1433"/>
      <point x="169" y="1289"/>
      <point x="169" y="1072" type="curve" smooth="yes"/>
      <point x="169" y="998" type="line"/>
      <point x="39" y="998" type="line"/>
      <point x="39" y="860" type="line"/>
      <point x="173" y="860" type="line"/>
    </contour>
  </outline>
</glyph>
<glyph name="g" format="1">
  <advance width="817"/>
  <unicode hex="0067"/>
  <outline>
    <contour>
      <point x="446" y="0" type="curve" smooth="yes"/>
      <point x="192.286" y="0"/>
      <point x="62" y="201"/>
      <point x="62" y="406" type="curve" smooth="yes"/>
      <point x="62" y="622"/>
      <point x="230" y="784"/>
      <point x="398" y="784" type="curve" smooth="yes"/>
      <point x="466" y="784"/>
      <point x="537" y="758.901"/>
      <point x="605" y="703" type="curve"/>
      <point x="605" y="770" type="line"/>
      <point x="740" y="770" type="line"/>
      <point x="740" y="-41" type="line" smooth="yes"/>
      <point x="740" y="-268.793"/>
      <point x="607.647" y="-355.709"/>
      <point x="439.868" y="-355.709" type="curve" smooth="yes"/>
      <point x="365.169" y="-355.709"/>
      <point x="282.898" y="-332.5"/>
      <point x="203" y="-293" type="curve"/>
      <point x="203" y="-172" type="line"/>
      <point x="279.869" y="-209.501"/>
      <point x="364.451" y="-242.355"/>
      <point x="435.881" y="-242.355" type="curve" smooth="yes"/>
      <point x="571.864" y="-242.355"/>
      <point x="602" y="-164.002"/>
      <point x="602" y="57" type="curve"/>
      <point x="602" y="57"/>
      <point x="542.973" y="0"/>
    </contour>
    <contour>
      <point x="204" y="399" type="curve" smooth="yes"/>
      <point x="204" y="220.604"/>
      <point x="298.667" y="116.679"/>
      <point x="441.498" y="116.679" type="curve" smooth="yes"/>
      <point x="489.933" y="116.679"/>
      <point x="544.076" y="129.367"/>
      <point x="602" y="156" type="curve"/>
      <point x="602" y="596" type="line"/>
      <point x="544" y="645"/>
      <point x="484" y="666"/>
      <point x="430" y="666" type="curve" smooth="yes"/>
      <point x="315.452" y="666"/>
      <point x="204" y="566"/>
    </contour>
    <contour>
      <point x="409" y="770" type="move" name="top"/>
    </contour>
  </outline>
</glyph>
<glyph name="h" format="1">
  <advance width="550"/>
  <unicode hex="0068"/>
  <outline>
    <contour>
      <point x="65" y="0" type="line"/>
      <point x="163" y="0" type="line"/>
      <point x="163" y="392" type="line"/>
      <point x="194" y="432"/>
      <point x="282" y="464"/>
      <point x="320" y="464" type="curve" smooth="yes"/>
      <point x="388" y="464"/>
      <point x="415" y="424"/>
      <point x="415" y="323" type="curve" smooth="yes"/>
      <point x="415" y="0" type="line"/>
      <point x="511" y="0" type="line"/>
      <point x="511" y="355" type="line" smooth="yes"/>
      <point x="511" y="488"/>
      <point x="426" y="548"/>
      <point x="332" y="548" type="curve" smooth="yes"/>
      <point x="272" y="548"/>
      <point x="208" y="524"/>
      <point x="161" y="479" type="curve"/>
      <point x="161" y="794" type="line"/>
      <point x="65" y="794" type="line"/>
    </contour>
  </outline>
</glyph>
<glyph name="i" format="1">
  <advance width="319"/>
  <unicode hex="0069"/>
  <outline>
    <contour>
      <point x="160" y="892" type="curve" smooth="yes"/>
      <point x="97" y="892"/>
      <point x="63" y="937"/>
      <point x="63" y="985" type="curve" smooth="yes"/>
      <point x="63" y="1032"/>
      <point x="97" y="1078"/>
      <point x="160" y="1078" type="curve" smooth="yes"/>
      <point x="223" y="1078"/>
      <point x="256" y="1032"/>
      <point x="256" y="985" type="curve" smooth="yes"/>
      <point x="256" y="937"/>
      <point x="223" y="892"/>
    </contour>
    <contour>
      <point x="228" y="770" type="line"/>
      <point x="228" y="0" type="line"/>
      <point x="91" y="0" type="line"/>
      <point x="91" y="770" type="line"/>
    </contour>
  </outline>
</glyph>
<glyph name="j" format="1">
  <advance width="301"/>
  <unicode hex="006A"/>
  <outline>
    <contour>
      <point x="43" y="-208" type="line"/>
      <point x="209" y="-208"/>
      <point x="230" y="-94"/>
      <point x="230" y="-43" type="curve" smooth="yes"/>
      <point x="230" y="548" type="line"/>
      <point x="130" y="548" type="line"/>
      <point x="130" y="2" type="line" smooth="yes"/>
      <point x="130" y="-61"/>
      <point x="130" y="-131"/>
      <point x="28" y="-131" type="curve"/>
    </contour>
    <contour>
      <point x="183" y="622" type="curve" smooth="yes"/>
      <point x="228" y="622"/>
      <point x="250" y="654"/>
      <point x="250" y="687" type="curve" smooth="yes"/>
      <point x="250" y="719"/>
      <point x="228" y="752"/>
      <point x="183" y="752" type="curve" smooth="yes"/>
      <point x="138" y="752"/>
      <point x="115" y="719"/>
      <point x="115" y="687" type="curve" smooth="yes"/>
      <point x="115" y="654"/>
      <point x="138" y="622"/>
    </contour>
  </outline>
</glyph>
<glyph name="k" format="1">
  <advance width="777"/>
  <unicode hex="006B"/>
  <outline>
    <contour>
      <point x="554" y="770" type="line"/>
      <point x="731" y="770" type="line"/>
      <point x="380" y="407" type="line"/>
      <point x="774" y="0" type="line"/>
      <point x="590" y="0" type="line"/>
      <point x="220" y="388" type="line"/>
      <point x="220" y="0" type="line"/>
      <point x="83" y="0" type="line"/>
      <point x="83" y="1151" type="line"/>
      <point x="220" y="1151" type="line"/>
      <point x="220" y="415" type="line"/>
    </contour>
    <contour>
      <point x="389" y="0" type="move" name="bottom"/>
    </contour>
  </outline>
</glyph>
<glyph name="l" format="1">
  <advance width="231"/>
  <unicode hex="006C"/>
  <outline>
    <contour>
      <point x="166" y="794" type="line"/>
      <point x="65" y="794" type="line"/>
      <point x="65" y="0" type="line"/>
      <point x="166" y="0" type="line"/>
    </contour>
  </outline>
</glyph>
<glyph name="m" format="1">
  <advance width="1664"/>
  <unicode hex="006d"/>
  <outline>
    <contour>
      <point x="738" y="0" type="line" smooth="no"/>
      <point x="738" y="675" type="line" smooth="yes"/>
      <point x="738" y="794"/>
      <point x="656" y="859"/>
      <point x="570" y="859" type="curve" smooth="yes"/>
      <point x="458" y="859"/>
      <point x="332" y="777"/>
      <point x="283" y="709" type="curve" smooth="no"/>
      <point x="283" y="0" type="line" smooth="no"/>
      <point x="104" y="0" type="line" smooth="no"/>
      <point x="104" y="996" type="line" smooth="no"/>
      <point x="278" y="996" type="line" smooth="no"/>
      <point x="278" y="839" type="line" smooth="no"/>
      <point x="413" y="1006"/>
      <point x="542" y="1015"/>
      <point x="598" y="1015" type="curve" smooth="yes"/>
      <point x="733" y="1015"/>
      <point x="833" y="944"/>
      <point x="878" y="815" type="curve" smooth="no"/>
      <point x="1032" y="1012"/>
      <point x="1195" y="1015"/>
      <point x="1232" y="1015" type="curve" smooth="yes"/>
      <point x="1390" y="1015"/>
      <point x="1563" y="924"/>
      <point x="1563" y="661" type="curve" smooth="yes"/>
      <point x="1563" y="0" type="line" smooth="no"/>
      <point x="1384" y="0" type="line" smooth="no"/>
      <point x="1384" y="661" type="line" smooth="yes"/>
      <point x="1384" y="770"/>
      <point x="1334" y="859"/>
      <point x="1211" y="859" type="curve" smooth="yes"/>
      <point x="1096" y="859"/>
      <point x="978" y="789"/>
      <point x="916" y="697" type="curve" smooth="no"/>
      <point x="916" y="0" type="line" smooth="no"/>
    </contour>
  </outline>
</glyph>
<glyph name="n" format="1">
  <advance width="568"/>
  <unicode hex="006E"/>
  <outline>
    <contour>
      <point x="504" y="366" type="line" smooth="yes"/>
      <point x="504" y="474"/>
      <point x="436" y="548"/>
      <point x="336" y="548" type="curve" smooth="yes"/>
      <point x="306" y="548"/>
      <point x="232" y="543"/>
      <point x="160" y="467" type="curve"/>
      <point x="160" y="537" type="line"/>
      <point x="65" y="537" type="line"/>
      <point x="65" y="0" type="line"/>
      <point x="162" y="0" type="line"/>
      <point x="162" y="382" type="line"/>
      <point x="191" y="419"/>
      <point x="262" y="463"/>
      <point x="327" y="463" type="curve" smooth="yes"/>
      <point x="368" y="463"/>
      <point x="408" y="428"/>
      <point x="408" y="364" type="curve" smooth="yes"/>
      <point x="408" y="0" type="line"/>
      <point x="504" y="0" type="line"/>
    </contour>
  </outline>
</glyph>
<glyph name="o" format="1">
  <advance width="1198"/>
  <unicode hex="006F"/>
  <outline>
    <contour>
      <point x="598" y="133" type="curve" smooth="yes"/>
      <point x="396" y="133"/>
      <point x="259" y="298"/>
      <point x="259" y="498" type="curve" smooth="yes"/>
      <point x="259" y="701"/>
      <point x="396" y="863"/>
      <point x="598" y="863" type="curve" smooth="yes"/>
      <point x="800" y="863"/>
      <point x="939" y="701"/>
      <point x="939" y="498" type="curve" smooth="yes"/>
      <point x="939" y="298"/>
      <point x="800" y="133"/>
    </contour>
    <contour>
      <point x="598" y="-19" type="curve" smooth="yes"/>
      <point x="881" y="-19"/>
      <point x="1118" y="186"/>
      <point x="1118" y="500" type="curve" smooth="yes"/>
      <point x="1118" y="812"/>
      <point x="881" y="1017"/>
      <point x="598" y="1017" type="curve" smooth="yes"/>
      <point x="315" y="1017"/>
      <point x="80" y="812"/>
      <point x="80" y="500" type="curve" smooth="yes"/>
      <point x="80" y="186"/>
      <point x="315" y="-19"/>
    </contour>
  </outline>
</glyph>
<glyph name="p" format="1">
  <advance width="598"/>
  <unicode hex="0070"/>
  <outline>
    <contour>
      <point x="65" y="-194" type="line"/>
      <point x="163" y="-194" type="line"/>
      <point x="163" y="19" type="line"/>
      <point x="163" y="19"/>
      <point x="206" y="-10"/>
      <point x="276" y="-10" type="curve" smooth="yes"/>
      <point x="452" y="-10"/>
      <point x="544" y="141"/>
      <point x="544" y="285" type="curve" smooth="yes"/>
      <point x="544" y="419"/>
      <point x="465" y="548"/>
      <point x="300" y="548" type="curve" smooth="yes"/>
      <point x="255" y="548"/>
      <point x="207" y="530"/>
      <point x="161" y="489" type="curve"/>
      <point x="161" y="537" type="line"/>
      <point x="65" y="537" type="line"/>
    </contour>
    <contour>
      <point x="163" y="414" type="line"/>
      <point x="163" y="414"/>
      <point x="215" y="461"/>
      <point x="290" y="461" type="curve" smooth="yes"/>
      <point x="392" y="461"/>
      <point x="440" y="375"/>
      <point x="440" y="284" type="curve" smooth="yes"/>
      <point x="440" y="183"/>
      <point x="380" y="75"/>
      <point x="268" y="75" type="curve" smooth="yes"/>
      <point x="196" y="75"/>
      <point x="163" y="102"/>
      <point x="163" y="102" type="curve"/>
    </contour>
  </outline>
</glyph>
<glyph name="q" format="1">
  <advance width="574"/>
  <unicode hex="0071"/>
  <outline>
    <contour>
      <point x="510" y="537" type="line"/>
      <point x="414" y="537" type="line"/>
      <point x="414" y="498" type="line"/>
      <point x="367" y="532"/>
      <point x="317" y="547"/>
      <point x="270" y="547" type="curve" smooth="yes"/>
      <point x="148" y="547"/>
      <point x="36" y="436"/>
      <point x="36" y="279" type="curve" smooth="yes"/>
      <point x="36" y="136"/>
      <point x="133" y="-10"/>
      <point x="309" y="-10" type="curve" smooth="yes"/>
      <point x="373" y="-10"/>
      <point x="412" y="19"/>
      <point x="412" y="19" type="curve"/>
      <point x="412" y="-194" type="line"/>
      <point x="510" y="-194" type="line"/>
    </contour>
    <contour>
      <point x="412" y="102" type="line"/>
      <point x="412" y="102"/>
      <point x="382" y="75"/>
      <point x="317" y="75" type="curve" smooth="yes"/>
      <point x="206" y="75"/>
      <point x="140" y="178"/>
      <point x="140" y="274" type="curve" smooth="yes"/>
      <point x="140" y="391"/>
      <point x="210" y="465"/>
      <point x="292" y="465" type="curve" smooth="yes"/>
      <point x="330" y="465"/>
      <point x="371" y="452"/>
      <point x="412" y="423" type="curve"/>
    </contour>
  </outline>
</glyph>
<glyph name="r" format="1">
  <advance width="633"/>
  <unicode hex="0072"/>
  <outline>
    <contour>
      <point x="81" y="770" type="line"/>
      <point x="218" y="770" type="line"/>
      <point x="218" y="579" type="line"/>
      <point x="246" y="673.14"/>
      <point x="321" y="785"/>
      <point x="432" y="785" type="curve" smooth="yes"/>
      <point x="470" y="785"/>
      <point x="535" y="762"/>
      <point x="595" y="695" type="curve"/>
      <point x="504" y="572" type="line"/>
      <point x="480" y="602"/>
      <point x="442" y="638"/>
      <point x="398" y="638" type="curve" smooth="yes"/>
      <point x="335" y="638"/>
      <point x="218" y="570"/>
      <point x="218" y="318" type="curve" smooth="yes"/>
      <point x="218" y="0" type="line"/>
      <point x="81" y="0" type="line"/>
    </contour>
    <contour>
      <point x="317" y="770" type="move" name="top"/>
    </contour>
    <contour>
      <point x="317" y="0" type="move" name="bottom"/>
    </contour>
  </outline>
</glyph>
<glyph name="s" format="1">
  <advance width="468"/>
  <unicode hex="0073"/>
  <outline>
    <contour>
      <point x="65" y="47" type="line"/>
      <point x="102" y="10"/>
      <point x="172" y="-10"/>
      <point x="239" y="-10" type="curve" smooth="yes"/>
      <point x="341" y="-10"/>
      <point x="407" y="56"/>
      <point x="407" y="133" type="curve" smooth="yes"/>
      <point x="407" y="180"/>
      <point x="380" y="233"/>
      <point x="318" y="273" type="curve" smooth="yes"/>
      <point x="226" y="332" type="line" smooth="yes"/>
      <point x="185" y="358"/>
      <point x="170" y="387"/>
      <point x="170" y="407" type="curve" smooth="yes"/>
      <point x="170" y="453"/>
      <point x="209" y="469"/>
      <point x="254" y="469" type="curve" smooth="yes"/>
      <point x="298" y="469"/>
      <point x="349" y="453"/>
      <point x="376" y="437" type="curve"/>
      <point x="376" y="513" type="line"/>
      <point x="339" y="536"/>
      <point x="290" y="548"/>
      <point x="242" y="548" type="curve" smooth="yes"/>
      <point x="127" y="548"/>
      <point x="66" y="480"/>
      <point x="66" y="407" type="curve" smooth="yes"/>
      <point x="66" y="357"/>
      <point x="94" y="304"/>
      <point x="151" y="267" type="curve" smooth="yes"/>
      <point x="254" y="200" type="line" smooth="yes"/>
      <point x="284" y="180"/>
      <point x="297" y="153"/>
      <point x="297" y="132" type="curve" smooth="yes"/>
      <point x="297" y="91"/>
      <point x="267" y="72"/>
      <point x="228" y="72" type="curve" smooth="yes"/>
      <point x="174" y="72"/>
      <point x="100" y="104"/>
      <point x="62" y="133" type="curve"/>
    </contour>
  </outline>
</glyph>
<glyph name="t" format="1">
  <advance width="747"/>
  <unicode hex="0074"/>
  <outline>
    <contour>
      <point x="451" y="-21" type="curve" smooth="yes"/>
      <point x="538" y="-21"/>
      <point x="629" y="5"/>
      <point x="702" y="62" type="curve"/>
      <point x="702" y="220" type="line"/>
      <point x="633" y="172"/>
      <point x="545" y="129"/>
      <point x="475" y="129" type="curve" smooth="yes"/>
      <point x="402" y="129"/>
      <point x="343" y="163"/>
      <point x="343" y="264" type="curve" smooth="yes"/>
      <point x="343" y="859" type="line"/>
      <point x="651" y="859" type="line"/>
      <point x="651" y="996" type="line"/>
      <point x="343" y="996" type="line"/>
      <point x="343" y="1238" type="line"/>
      <point x="323" y="1238" type="line"/>
      <point x="17" y="895" type="line" smooth="yes"/>
      <point x="12" y="888"/>
      <point x="8" y="880"/>
      <point x="8" y="873" type="curve" smooth="yes"/>
      <point x="8" y="865"/>
      <point x="20" y="859"/>
      <point x="35" y="859" type="curve" smooth="yes"/>
      <point x="165" y="859" type="line"/>
      <point x="165" y="234" type="line" smooth="yes"/>
      <point x="165" y="72"/>
      <point x="298" y="-21"/>
    </contour>
  </outline>
</glyph>
<glyph name="u" format="1">
  <advance width="559"/>
  <unicode hex="0075"/>
  <outline>
    <contour>
      <point x="64" y="181" type="line" smooth="yes"/>
      <point x="64" y="55"/>
      <point x="145" y="-9"/>
      <point x="235" y="-9" type="curve" smooth="yes"/>
      <point x="292" y="-9"/>
      <point x="352" y="17"/>
      <point x="398" y="70" type="curve"/>
      <point x="398" y="0" type="line"/>
      <point x="494" y="0" type="line"/>
      <point x="494" y="537" type="line"/>
      <point x="396" y="537" type="line"/>
      <point x="396" y="155" type="line"/>
      <point x="363" y="103"/>
      <point x="308" y="76"/>
      <point x="260" y="76" type="curve" smooth="yes"/>
      <point x="206" y="76"/>
      <point x="160" y="110"/>
      <point x="160" y="183" type="curve" smooth="yes"/>
      <point x="160" y="537" type="line"/>
      <point x="64" y="537" type="line"/>
    </contour>
  </outline>
</glyph>
<glyph name="v" format="1">
  <advance width="1002"/>
  <unicode hex="0076"/>
  <outline>
    <contour>
      <point x="501" y="341" type="line" smooth="no"/>
      <point x="765" y="998" type="line" smooth="no"/>
      <point x="968" y="998" type="line" smooth="no"/>
      <point x="514" y="0" type="line" smooth="no"/>
      <point x="484" y="0" type="line" smooth="no"/>
      <point x="34" y="998" type="line" smooth="no"/>
      <point x="234" y="998" type="line" smooth="no"/>
    </contour>
  </outline>
</glyph>
<glyph name="w" format="1">
  <advance width="1061"/>
  <unicode hex="0077"/>
  <outline>
    <contour>
      <point x="759" y="302" type="line"/>
      <point x="887" y="770" type="line"/>
      <point x="1030" y="770" type="line"/>
      <point x="780" y="0" type="line"/>
      <point x="750" y="0" type="line"/>
      <point x="535" y="587" type="line"/>
      <point x="314" y="0" type="line"/>
      <point x="281" y="0" type="line"/>
      <point x="31" y="770" type="line"/>
      <point x="187" y="770" type="line"/>
      <point x="306" y="307" type="line"/>
      <point x="466" y="770" type="line"/>
      <point x="593" y="770" type="line"/>
    </contour>
    <contour>
      <point x="531" y="770" type="move" name="top"/>
    </contour>
  </outline>
</glyph>
<glyph name="x" format="1">
  <advance width="1066"/>
  <unicode hex="0078"/>
  <outline>
    <contour>
      <point x="29" y="0" type="line"/>
      <point x="257" y="0" type="line"/>
      <point x="538" y="368" type="line"/>
      <point x="833" y="0" type="line"/>
      <point x="1037" y="0" type="line"/>
      <point x="640" y="499" type="line"/>
      <point x="1023" y="998" type="line"/>
      <point x="800" y="998" type="line"/>
      <point x="528" y="643" type="line"/>
      <point x="246" y="998" type="line"/>
      <point x="41" y="998" type="line"/>
      <point x="426" y="513" type="line"/>
    </contour>
  </outline>
</glyph>
<glyph name="y" format="1">
  <advance width="1003"/>
  <unicode hex="0079"/>
  <outline>
    <contour>
      <point x="203" y="-268" type="line"/>
      <point x="400" y="-268" type="line"/>
      <point x="993" y="998" type="line"/>
      <point x="800" y="998" type="line"/>
      <point x="535" y="406" type="line"/>
      <point x="263" y="998" type="line"/>
      <point x="45" y="998" type="line"/>
      <point x="434" y="246" type="line"/>
    </contour>
  </outline>
</glyph>
<glyph name="z" format="1">
  <advance width="695"/>
  <unicode hex="007A"/>
  <outline>
    <contour>
      <point x="78" y="770" type="line"/>
      <point x="625" y="770" type="line"/>
      <point x="638" y="735" type="line"/>
      <point x="252" y="108" type="line"/>
      <point x="628" y="108" type="line"/>
      <point x="628" y="0" type="line"/>
      <point x="56" y="0" type="line"/>
      <point x="49" y="26" type="line"/>
      <point x="436" y="661" type="line"/>
      <point x="78" y="661" type="line"/>
    </contour>
    <contour>
      <point x="348" y="770" type="move" name="top"/>
    </contour>
  </outline>
</glyph>
<glyph name="braceleft" format="1">
  <advance width="740"/>
  <unicode hex="007b"/>
  <outline>
    <contour>
      <point x="82" y="653" type="curve" smooth="no"/>
      <point x="82" y="818" type="line" smooth="no"/>
      <point x="92" y="818"/>
      <point x="98" y="819"/>
      <point x="108" y="819" type="curve" smooth="yes"/>
      <point x="204" y="828"/>
      <point x="278" y="885"/>
      <point x="278" y="1031" type="curve" smooth="yes"/>
      <point x="278" y="1425" type="line" smooth="no"/>
      <point x="277" y="1651"/>
      <point x="463" y="1737"/>
      <point x="650" y="1737" type="curve" smooth="no"/>
      <point x="650" y="1570" type="line" smooth="no"/>
      <point x="543" y="1570"/>
      <point x="455" y="1515"/>
      <point x="455" y="1357" type="curve" smooth="yes"/>
      <point x="455" y="964" type="line" smooth="yes"/>
      <point x="455" y="860"/>
      <point x="387" y="787"/>
      <point x="282" y="736" type="curve" smooth="no"/>
      <point x="387" y="687"/>
      <point x="455" y="612"/>
      <point x="455" y="508" type="curve" smooth="yes"/>
      <point x="455" y="115" type="line" smooth="yes"/>
      <point x="455" y="-43"/>
      <point x="543" y="-99"/>
      <point x="650" y="-99" type="curve" smooth="no"/>
      <point x="650" y="-266" type="line" smooth="no"/>
      <point x="463" y="-266"/>
      <point x="278" y="-177"/>
      <point x="278" y="47" type="curve" smooth="yes"/>
      <point x="278" y="442" type="line" smooth="yes"/>
      <point x="278" y="587"/>
      <point x="204" y="643"/>
      <point x="108" y="652" type="curve" smooth="yes"/>
      <point x="98" y="652"/>
      <point x="92" y="653"/>
    </contour>
  </outline>
</glyph>
<glyph name="bar" format="1">
  <advance width="429"/>
  <unicode hex="007c"/>
  <outline>
    <contour>
      <point x="311" y="1645" type="line" smooth="no"/>
      <point x="311" y="-129" type="line" smooth="no"/>
      <point x="119" y="-129" type="line" smooth="no"/>
      <point x="119" y="1645" type="line" smooth="no"/>
    </contour>
  </outline>
</glyph>
<glyph name="braceright" format="1">
  <advance width="740"/>
  <unicode hex="007d"/>
  <outline>
    <contour>
      <point x="659" y="653" type="line" smooth="no"/>
      <point x="649" y="653"/>
      <point x="643" y="652"/>
      <point x="633" y="652" type="curve" smooth="yes"/>
      <point x="537" y="643"/>
      <point x="463" y="587"/>
      <point x="463" y="442" type="curve" smooth="yes"/>
      <point x="463" y="47" type="line" smooth="yes"/>
      <point x="463" y="-177"/>
      <point x="278" y="-266"/>
      <point x="91" y="-266" type="curve" smooth="no"/>
      <point x="91" y="-99" type="line" smooth="no"/>
      <point x="198" y="-99"/>
      <point x="286" y="-43"/>
      <point x="286" y="115" type="curve" smooth="yes"/>
      <point x="286" y="508" type="line" smooth="yes"/>
      <point x="286" y="612"/>
      <point x="354" y="687"/>
      <point x="459" y="736" type="curve" smooth="no"/>
      <point x="354" y="787"/>
      <point x="286" y="860"/>
      <point x="286" y="964" type="curve" smooth="yes"/>
      <point x="286" y="1357" type="line" smooth="yes"/>
      <point x="286" y="1515"/>
      <point x="198" y="1570"/>
      <point x="91" y="1570" type="curve" smooth="no"/>
      <point x="91" y="1737" type="line" smooth="no"/>
      <point x="278" y="1737"/>
      <point x="464" y="1651"/>
      <point x="463" y="1425" type="curve" smooth="no"/>
      <point x="463" y="1031" type="line" smooth="yes"/>
      <point x="463" y="885"/>
      <point x="537" y="828"/>
      <point x="633" y="819" type="curve" smooth="yes"/>
      <point x="643" y="819"/>
      <point x="649" y="818"/>
      <point x="659" y="818" type="curve" smooth="no"/>
    </contour>
  </outline>
</glyph>
<glyph name="exclamdown" format="1">
  <advance width="609"/>
  <unicode hex="00A1"/>
  <outline>
    <contour>
      <point x="294" y="-18" type="curve" smooth="yes"/>
      <point x="350" y="-18"/>
      <point x="407" y="17"/>
      <point x="407" y="87" type="curve" smooth="yes"/>
      <point x="407" y="94" type="line"/>
      <point x="335" y="1148" type="line" smooth="yes"/>
      <point x="333" y="1188"/>
      <point x="319" y="1206"/>
      <point x="305" y="1206" type="curve" smooth="yes"/>
      <point x="291" y="1206"/>
      <point x="276" y="1188"/>
      <point x="273" y="1151" type="curve" smooth="yes"/>
      <point x="186" y="94" type="line"/>
      <point x="186" y="83" type="line" smooth="yes"/>
      <point x="186" y="15"/>
      <point x="239" y="-18"/>
    </contour>
    <contour>
      <point x="307" y="1367" type="curve" smooth="yes"/>
      <point x="371" y="1367"/>
      <point x="437" y="1411"/>
      <point x="437" y="1500" type="curve" smooth="yes"/>
      <point x="437" y="1585"/>
      <point x="371" y="1627"/>
      <point x="307" y="1627" type="curve" smooth="yes"/>
      <point x="242" y="1627"/>
      <point x="177" y="1585"/>
      <point x="177" y="1500" type="curve" smooth="yes"/>
      <point x="177" y="1412"/>
      <point x="242" y="1367"/>
    </contour>
  </outline>
</glyph>
<glyph name="cent" format="1">
  <advance width="992"/>
  <unicode hex="00a2"/>
  <outline>
    <contour>
      <point x="561" y="839" type="line" smooth="no"/>
      <point x="560" y="839" type="line" smooth="no"/>
      <point x="385" y="808"/>
      <point x="291" y="648"/>
      <point x="291" y="497" type="curve" smooth="yes"/>
      <point x="291" y="351"/>
      <point x="379" y="189"/>
      <point x="561" y="155" type="curve" smooth="no"/>
    </contour>
    <contour>
      <point x="561" y="1" type="line" smooth="no"/>
      <point x="301" y="27"/>
      <point x="108" y="222"/>
      <point x="108" y="496" type="curve" smooth="yes"/>
      <point x="108" y="779"/>
      <point x="316" y="975"/>
      <point x="561" y="997" type="curve" smooth="no"/>
      <point x="561" y="1255" type="line" smooth="no"/>
      <point x="647" y="1254" type="line" smooth="no"/>
      <point x="647" y="1000" type="line" smooth="no"/>
      <point x="727" y="995"/>
      <point x="817" y="977"/>
      <point x="865" y="946" type="curve" smooth="no"/>
      <point x="865" y="782" type="line" smooth="no"/>
      <point x="785" y="826"/>
      <point x="736" y="846"/>
      <point x="647" y="848" type="curve" smooth="no"/>
      <point x="647" y="152" type="line" smooth="no"/>
      <point x="724" y="158"/>
      <point x="805" y="190"/>
      <point x="873" y="231" type="curve" smooth="no"/>
      <point x="890" y="231" type="line" smooth="no"/>
      <point x="890" y="63" type="line" smooth="no"/>
      <point x="816" y="19"/>
      <point x="703" y="6"/>
      <point x="647" y="2" type="curve" smooth="no"/>
      <point x="647" y="-215" type="line" smooth="no"/>
      <point x="561" y="-215" type="line" smooth="no"/>
    </contour>
  </outline>
</glyph>
<glyph name="yen" format="1">
  <advance width="1266"/>
  <unicode hex="00a5"/>
  <outline>
    <contour>
      <point x="529" y="0" type="line" smooth="no"/>
      <point x="529" y="411" type="line" smooth="no"/>
      <point x="41" y="411" type="line" smooth="no"/>
      <point x="41" y="568" type="line" smooth="no"/>
      <point x="529" y="568" type="line" smooth="no"/>
      <point x="529" y="706" type="line" smooth="no"/>
      <point x="41" y="706" type="line" smooth="no"/>
      <point x="41" y="863" type="line" smooth="no"/>
      <point x="486.091" y="863" type="line" smooth="no"/>
      <point x="3" y="1516" type="line" smooth="no"/>
      <point x="239" y="1516" type="line" smooth="no"/>
      <point x="630" y="957" type="line" smooth="no"/>
      <point x="1038" y="1516" type="line" smooth="no"/>
      <point x="1259" y="1516" type="line" smooth="no"/>
      <point x="783.594" y="863" type="line" smooth="no"/>
      <point x="1221" y="863" type="line" smooth="no"/>
      <point x="1221" y="706" type="line" smooth="no"/>
      <point x="737" y="706" type="line" smooth="no"/>
      <point x="737" y="568" type="line" smooth="no"/>
      <point x="1221" y="568" type="line" smooth="no"/>
      <point x="1221" y="411" type="line" smooth="no"/>
      <point x="737" y="411" type="line" smooth="no"/>
      <point x="737" y="0" type="line" smooth="no"/>
    </contour>
  </outline>
</glyph>
<glyph name="dieresis" format="1">
  <advance width="801"/>
  <unicode hex="00A8"/>
  <outline>
    <contour>
      <point x="213" y="-3" type="curve" smooth="yes"/>
      <point x="271" y="-3"/>
      <point x="331" y="34"/>
      <point x="331" y="110" type="curve" smooth="yes"/>
      <point x="331" y="190"/>
      <point x="271" y="230"/>
      <point x="213" y="230" type="curve" smooth="yes"/>
      <point x="155" y="230"/>
      <point x="97" y="190"/>
      <point x="97" y="110" type="curve" smooth="yes"/>
      <point x="97" y="35"/>
      <point x="155" y="-3"/>
    </contour>
    <contour>
      <point x="590" y="-3" type="curve" smooth="yes"/>
      <point x="648" y="-3"/>
      <point x="706" y="34"/>
      <point x="706" y="110" type="curve" smooth="yes"/>
      <point x="706" y="190"/>
      <point x="648" y="230"/>
      <point x="590" y="230" type="curve" smooth="yes"/>
      <point x="532" y="230"/>
      <point x="472" y="190"/>
      <point x="472" y="110" type="curve" smooth="yes"/>
      <point x="472" y="35"/>
      <point x="532" y="-3"/>
    </contour>
  </outline>
</glyph>
<glyph name="guillemotleft" format="1">
  <advance width="768"/>
  <unicode hex="00ab"/>
  <outline>
    <contour>
      <point x="91" y="432" type="line" smooth="no"/>
      <point x="91" y="589" type="line" smooth="no"/>
      <point x="674" y="979" type="line" smooth="no"/>
      <point x="674" y="786" type="line" smooth="no"/>
      <point x="221" y="506" type="line" smooth="no"/>
      <point x="674" y="233" type="line" smooth="no"/>
      <point x="674" y="25" type="line" smooth="no"/>
    </contour>
  </outline>
</glyph>
<glyph name="registered" format="1">
  <advance width="1813"/>
  <unicode hex="00ae"/>
  <outline>
    <contour>
      <point x="907" y="2" type="curve" smooth="yes"/>
      <point x="548" y="2"/>
      <point x="186" y="244"/>
      <point x="186" y="726" type="curve" smooth="yes"/>
      <point x="186" y="1209"/>
      <point x="551" y="1448"/>
      <point x="910" y="1448" type="curve" smooth="yes"/>
      <point x="1269" y="1448"/>
      <point x="1632" y="1209"/>
      <point x="1632" y="726" type="curve" smooth="yes"/>
      <point x="1632" y="245"/>
      <point x="1267" y="2"/>
    </contour>
    <contour>
      <point x="908" y="1333" type="curve" smooth="yes"/>
      <point x="618" y="1333"/>
      <point x="323" y="1132"/>
      <point x="323" y="726" type="curve" smooth="yes"/>
      <point x="323" y="322"/>
      <point x="618" y="118"/>
      <point x="909" y="118" type="curve" smooth="yes"/>
      <point x="1200" y="118"/>
      <point x="1495" y="321"/>
      <point x="1495" y="726" type="curve" smooth="yes"/>
      <point x="1495" y="1130"/>
      <point x="1199" y="1333"/>
    </contour>
    <contour>
      <point x="1172" y="946" type="curve" smooth="no"/>
      <point x="1174" y="947" type="line" smooth="no"/>
      <point x="1174" y="832"/>
      <point x="1119" y="742"/>
      <point x="992" y="702" type="curve" smooth="no"/>
      <point x="1050" y="556"/>
      <point x="1129" y="410"/>
      <point x="1202" y="289" type="curve" smooth="no"/>
      <point x="1201" y="258" type="line" smooth="no"/>
      <point x="1082" y="258" type="line" smooth="no"/>
      <point x="1027" y="348"/>
      <point x="936" y="543"/>
      <point x="878" y="687" type="curve" smooth="no"/>
      <point x="877" y="687" type="line" smooth="yes"/>
      <point x="865" y="687"/>
      <point x="853" y="686"/>
      <point x="841" y="686" type="curve" smooth="yes"/>
      <point x="779" y="686" type="line" smooth="no"/>
      <point x="779" y="258" type="line" smooth="no"/>
      <point x="662" y="258" type="line" smooth="no"/>
      <point x="662" y="1192" type="line" smooth="no"/>
      <point x="871" y="1192" type="line" smooth="yes"/>
      <point x="1040" y="1192"/>
      <point x="1172" y="1122"/>
    </contour>
    <contour>
      <point x="808" y="784" type="line" smooth="no"/>
      <point x="809" y="784" type="line" smooth="yes"/>
      <point x="940" y="784"/>
      <point x="1049" y="799"/>
      <point x="1049" y="940" type="curve" smooth="yes"/>
      <point x="1049" y="1016"/>
      <point x="1018" y="1091"/>
      <point x="857" y="1091" type="curve" smooth="yes"/>
      <point x="778" y="1091" type="line" smooth="no"/>
      <point x="778" y="784" type="line" smooth="no"/>
    </contour>
  </outline>
</glyph>
<glyph name="macron" format="1">
  <advance width="721"/>
  <unicode hex="00AF"/>
  <outline>
    <contour>
      <point x="104" y="1" type="line"/>
      <point x="617" y="1" type="line"/>
      <point x="617" y="153" type="line"/>
      <point x="104" y="153" type="line"/>
    </contour>
  </outline>
</glyph>
<glyph name="acute" format="1">
  <advance width="370"/>
  <unicode hex="00B4"/>
  <outline>
    <contour>
      <point x="50" y="127" type="curve" smooth="yes"/>
      <point x="54" y="127"/>
      <point x="65" y="134"/>
      <point x="74" y="148" type="curve"/>
      <point x="295" y="439" type="line" smooth="yes"/>
      <point x="318" y="470"/>
      <point x="329" y="500"/>
      <point x="329" y="524" type="curve" smooth="yes"/>
      <point x="329" y="577"/>
      <point x="284" y="611"/>
      <point x="238" y="611" type="curve" smooth="yes"/>
      <point x="198" y="611"/>
      <point x="158" y="587"/>
      <point x="140" y="524" type="curve"/>
      <point x="43" y="162" type="line" smooth="yes"/>
      <point x="41" y="155"/>
      <point x="40" y="146"/>
      <point x="40" y="142" type="curve" smooth="yes"/>
      <point x="40" y="134"/>
      <point x="43" y="127"/>
    </contour>
  </outline>
</glyph>
<glyph name="paragraph" format="1">
  <advance width="1243"/>
  <unicode hex="00b6"/>
  <outline>
    <contour>
      <point x="629" y="162" type="curve" smooth="yes"/>
      <point x="630" y="162"/>
      <point x="630" y="164"/>
      <point x="629" y="164" type="curve" smooth="yes"/>
      <point x="628" y="164"/>
      <point x="628" y="162"/>
    </contour>
    <contour>
      <point x="901" y="2257" type="curve" smooth="yes"/>
      <point x="902" y="2257"/>
      <point x="902" y="2260"/>
      <point x="901" y="2260" type="curve" smooth="yes"/>
      <point x="899" y="2260"/>
      <point x="899" y="2257"/>
    </contour>
    <contour>
      <point x="1165" y="2326" type="curve" smooth="no"/>
      <point x="1170" y="2323"/>
      <point x="1173" y="2318"/>
      <point x="1175" y="2312" type="curve" smooth="yes"/>
      <point x="1175" y="2309"/>
      <point x="1176" y="2289"/>
      <point x="1176" y="2285" type="curve" smooth="yes"/>
      <point x="1176" y="2278"/>
      <point x="1180" y="2240"/>
      <point x="1162" y="2240" type="curve" smooth="no"/>
      <point x="1145" y="2238"/>
      <point x="1068" y="2236"/>
      <point x="1052" y="2236" type="curve" smooth="no"/>
      <point x="1047" y="2235"/>
      <point x="1046" y="2237"/>
      <point x="1042" y="2232" type="curve" smooth="no"/>
      <point x="1045" y="1549"/>
      <point x="1033" y="868"/>
      <point x="1038" y="185" type="curve" smooth="no"/>
      <point x="1037" y="177"/>
      <point x="1033" y="153"/>
      <point x="1020" y="153" type="curve" smooth="yes"/>
      <point x="947" y="153" type="line" smooth="no"/>
      <point x="937" y="163" type="line" smooth="no"/>
      <point x="937" y="2225" type="line" smooth="yes"/>
      <point x="937" y="2227"/>
      <point x="935" y="2232"/>
      <point x="934" y="2232" type="curve" smooth="yes"/>
      <point x="929" y="2233"/>
      <point x="916" y="2236"/>
      <point x="915" y="2236" type="curve" smooth="yes"/>
      <point x="715" y="2236" type="line" smooth="no"/>
      <point x="709" y="2222" type="line" smooth="no"/>
      <point x="710" y="1968"/>
      <point x="710" y="785"/>
      <point x="709" y="532" type="curve" smooth="yes"/>
      <point x="709" y="423"/>
      <point x="707" y="168"/>
      <point x="705" y="166" type="curve" smooth="yes"/>
      <point x="696" y="158" type="line" smooth="no"/>
      <point x="619" y="158" type="line" smooth="yes"/>
      <point x="610" y="158"/>
      <point x="606" y="189"/>
      <point x="606" y="190" type="curve" smooth="yes"/>
      <point x="605" y="212"/>
      <point x="605" y="316"/>
      <point x="605" y="337" type="curve" smooth="yes"/>
      <point x="605" y="568"/>
      <point x="609" y="798"/>
      <point x="609" y="1029" type="curve" smooth="yes"/>
      <point x="609" y="1283" type="line" smooth="yes"/>
      <point x="609" y="1321"/>
      <point x="606" y="1414"/>
      <point x="606" y="1415" type="curve" smooth="yes"/>
      <point x="596" y="1425" type="line" smooth="no"/>
      <point x="280" y="1406"/>
      <point x="90" y="1585"/>
      <point x="90" y="1889" type="curve" smooth="yes"/>
      <point x="90" y="2281"/>
      <point x="415" y="2333"/>
      <point x="733" y="2333" type="curve" smooth="yes"/>
      <point x="765" y="2333"/>
      <point x="861" y="2331"/>
      <point x="869" y="2331" type="curve" smooth="yes"/>
      <point x="913" y="2331"/>
      <point x="1121" y="2328"/>
    </contour>
  </outline>
</glyph>
<glyph name="cedilla" format="1">
  <advance width="415"/>
  <unicode hex="00B8"/>
  <outline>
    <contour>
      <point x="54" y="188" type="curve"/>
      <point x="51" y="191"/>
      <point x="45" y="196"/>
      <point x="45" y="199" type="curve" smooth="yes"/>
      <point x="45" y="201"/>
      <point x="49" y="203"/>
      <point x="55" y="203" type="curve" smooth="yes"/>
      <point x="75" y="203"/>
      <point x="125" y="190"/>
      <point x="173" y="190" type="curve" smooth="yes"/>
      <point x="218" y="190"/>
      <point x="260" y="201"/>
      <point x="260" y="244" type="curve" smooth="yes"/>
      <point x="260" y="302"/>
      <point x="138" y="295"/>
      <point x="118" y="295" type="curve"/>
      <point x="185" y="492" type="line"/>
      <point x="243" y="492" type="line"/>
      <point x="212" y="394" type="line"/>
      <point x="302" y="394"/>
      <point x="362" y="341"/>
      <point x="362" y="270" type="curve" smooth="yes"/>
      <point x="362" y="183"/>
      <point x="283" y="153"/>
      <point x="202" y="153" type="curve" smooth="yes"/>
      <point x="145" y="153"/>
      <point x="87" y="168"/>
    </contour>
    <contour>
      <point x="203.5" y="0" type="move" name="_bottom"/>
    </contour>
  </outline>
</glyph>
<glyph name="guillemotright" format="1">
  <advance width="768"/>
  <unicode hex="00bb"/>
  <outline>
    <contour>
      <point x="674" y="432" type="line" smooth="no"/>
      <point x="91" y="25" type="line" smooth="no"/>
      <point x="91" y="233" type="line" smooth="no"/>
      <point x="544" y="506" type="line" smooth="no"/>
      <point x="91" y="786" type="line" smooth="no"/>
      <point x="91" y="979" type="line" smooth="no"/>
      <point x="674" y="589" type="line" smooth="no"/>
    </contour>
  </outline>
</glyph>
<glyph name="questiondown" format="1">
  <advance width="997"/>
  <unicode hex="00BF"/>
  <outline>
    <contour>
      <point x="532" y="-17" type="curve" smooth="yes"/>
      <point x="661" y="-17"/>
      <point x="789" y="24"/>
      <point x="886" y="101" type="curve"/>
      <point x="829" y="251" type="line"/>
      <point x="758" y="186"/>
      <point x="650" y="146"/>
      <point x="547" y="146" type="curve" smooth="yes"/>
      <point x="434" y="146"/>
      <point x="324" y="230"/>
      <point x="324" y="363" type="curve" smooth="yes"/>
      <point x="324" y="625"/>
      <point x="642" y="728"/>
      <point x="642" y="1090" type="curve" smooth="yes"/>
      <point x="642" y="1125"/>
      <point x="624" y="1146"/>
      <point x="604" y="1146" type="curve" smooth="yes"/>
      <point x="582" y="1146"/>
      <point x="569" y="1127"/>
      <point x="561" y="1092" type="curve" smooth="yes"/>
      <point x="494" y="784"/>
      <point x="129" y="671"/>
      <point x="129" y="361" type="curve" smooth="yes"/>
      <point x="129" y="103"/>
      <point x="326" y="-17"/>
    </contour>
    <contour>
      <point x="583" y="1282" type="curve" smooth="yes"/>
      <point x="649" y="1282"/>
      <point x="713" y="1327"/>
      <point x="713" y="1415" type="curve" smooth="yes"/>
      <point x="713" y="1501"/>
      <point x="649" y="1542"/>
      <point x="583" y="1542" type="curve" smooth="yes"/>
      <point x="519" y="1542"/>
      <point x="454" y="1501"/>
      <point x="454" y="1415" type="curve" smooth="yes"/>
      <point x="454" y="1328"/>
      <point x="519" y="1282"/>
    </contour>
  </outline>
</glyph>
<glyph name="Agrave" format="1">
  <advance width="1527"/>
  <unicode hex="00c0"/>
  <outline>
    <contour>
      <point x="812" y="2078" type="curve" smooth="no"/>
      <point x="897" y="1701" type="line" smooth="no"/>
      <point x="900" y="1694"/>
      <point x="900" y="1687"/>
      <point x="900" y="1682" type="curve" smooth="yes"/>
      <point x="900" y="1673"/>
      <point x="896" y="1668"/>
      <point x="892" y="1668" type="curve" smooth="yes"/>
      <point x="884" y="1668"/>
      <point x="874" y="1673"/>
      <point x="865" y="1687" type="curve" smooth="yes"/>
      <point x="656" y="1994" type="line" smooth="no"/>
      <point x="633" y="2022"/>
      <point x="623" y="2050"/>
      <point x="623" y="2075" type="curve" smooth="yes"/>
      <point x="623" y="2128"/>
      <point x="670" y="2164"/>
      <point x="716" y="2164" type="curve" smooth="yes"/>
      <point x="753" y="2164"/>
      <point x="792" y="2141"/>
    </contour>
    <contour>
      <point x="817" y="1515" type="line" smooth="no"/>
      <point x="1466" y="3" type="line" smooth="no"/>
      <point x="1463" y="0" type="line" smooth="no"/>
      <point x="1277" y="0" type="line" smooth="no"/>
      <point x="1064" y="488" type="line" smooth="no"/>
      <point x="460" y="488" type="line" smooth="no"/>
      <point x="258" y="0" type="line" smooth="no"/>
      <point x="60" y="0" type="line" smooth="no"/>
      <point x="674" y="1515" type="line" smooth="no"/>
    </contour>
    <contour>
      <point x="988" y="662" type="line" smooth="no"/>
      <point x="751" y="1266" type="line" smooth="no"/>
      <point x="533" y="662" type="line" smooth="no"/>
    </contour>
  </outline>
</glyph>
<glyph name="Aacute" format="1">
  <advance width="1527"/>
  <unicode hex="00c1"/>
  <outline>
    <contour>
      <point x="621" y="1703" type="curve" smooth="yes"/>
      <point x="718" y="2065" type="line" smooth="no"/>
      <point x="736" y="2128"/>
      <point x="776" y="2152"/>
      <point x="816" y="2152" type="curve" smooth="yes"/>
      <point x="861" y="2152"/>
      <point x="907" y="2118"/>
      <point x="907" y="2065" type="curve" smooth="yes"/>
      <point x="907" y="2041"/>
      <point x="896" y="2011"/>
      <point x="873" y="1980" type="curve" smooth="yes"/>
      <point x="652" y="1689" type="line" smooth="no"/>
      <point x="643" y="1674"/>
      <point x="632" y="1668"/>
      <point x="628" y="1668" type="curve" smooth="yes"/>
      <point x="621" y="1668"/>
      <point x="618" y="1674"/>
      <point x="618" y="1683" type="curve" smooth="yes"/>
      <point x="618" y="1688"/>
      <point x="619" y="1696"/>
    </contour>
    <contour>
      <point x="817" y="1515" type="line" smooth="no"/>
      <point x="1466" y="2" type="line" smooth="no"/>
      <point x="1463" y="0" type="line" smooth="no"/>
      <point x="1277" y="0" type="line" smooth="no"/>
      <point x="1064" y="487" type="line" smooth="no"/>
      <point x="460" y="487" type="line" smooth="no"/>
      <point x="258" y="0" type="line" smooth="no"/>
      <point x="60" y="0" type="line" smooth="no"/>
      <point x="674" y="1515" type="line" smooth="no"/>
    </contour>
    <contour>
      <point x="988" y="662" type="line" smooth="no"/>
      <point x="751" y="1266" type="line" smooth="no"/>
      <point x="533" y="662" type="line" smooth="no"/>
    </contour>
  </outline>
</glyph>
<glyph name="Acircumflex" format="1">
  <advance width="1527"/>
  <unicode hex="00c2"/>
  <outline>
    <contour>
      <point x="763" y="1876" type="line" smooth="no"/>
      <point x="468" y="1670" type="line" smooth="yes"/>
      <point x="465" y="1669"/>
      <point x="465" y="1669"/>
      <point x="464" y="1669" type="curve" smooth="yes"/>
      <point x="462" y="1669"/>
      <point x="460" y="1670"/>
      <point x="460" y="1671" type="curve" smooth="yes"/>
      <point x="460" y="1672"/>
      <point x="460" y="1674"/>
      <point x="461" y="1674" type="curve" smooth="yes"/>
      <point x="726" y="2081" type="line" smooth="no"/>
      <point x="734" y="2089"/>
      <point x="749" y="2096"/>
      <point x="763" y="2096" type="curve" smooth="yes"/>
      <point x="777" y="2096"/>
      <point x="795" y="2089"/>
      <point x="802" y="2081" type="curve" smooth="no"/>
      <point x="1066" y="1674" type="line" smooth="no"/>
      <point x="1066" y="1671" type="line" smooth="yes"/>
      <point x="1066" y="1670"/>
      <point x="1065" y="1669"/>
      <point x="1064" y="1669" type="curve" smooth="yes"/>
      <point x="1063" y="1669"/>
      <point x="1062" y="1669"/>
      <point x="1059" y="1670" type="curve" smooth="yes"/>
    </contour>
    <contour>
      <point x="817" y="1516" type="line" smooth="no"/>
      <point x="1466" y="3" type="line" smooth="no"/>
      <point x="1463" y="0" type="line" smooth="no"/>
      <point x="1277" y="0" type="line" smooth="no"/>
      <point x="1064" y="487" type="line" smooth="no"/>
      <point x="460" y="487" type="line" smooth="no"/>
      <point x="258" y="0" type="line" smooth="no"/>
      <point x="60" y="0" type="line" smooth="no"/>
      <point x="674" y="1516" type="line" smooth="no"/>
    </contour>
    <contour>
      <point x="988" y="662" type="line" smooth="no"/>
      <point x="751" y="1265" type="line" smooth="no"/>
      <point x="533" y="662" type="line" smooth="no"/>
    </contour>
  </outline>
</glyph>
<glyph name="Adieresis" format="1">
  <advance width="1527"/>
  <unicode hex="00c4"/>
  <outline>
    <contour>
      <point x="833" y="1781" type="curve" smooth="yes"/>
      <point x="833" y="1859"/>
      <point x="893" y="1901"/>
      <point x="950" y="1901" type="curve" smooth="yes"/>
      <point x="1009" y="1901"/>
      <point x="1067" y="1859"/>
      <point x="1067" y="1781" type="curve" smooth="yes"/>
      <point x="1067" y="1705"/>
      <point x="1009" y="1667"/>
      <point x="950" y="1667" type="curve" smooth="yes"/>
      <point x="893" y="1667"/>
      <point x="833" y="1706"/>
    </contour>
    <contour>
      <point x="458" y="1781" type="curve" smooth="yes"/>
      <point x="458" y="1859"/>
      <point x="516" y="1901"/>
      <point x="574" y="1901" type="curve" smooth="yes"/>
      <point x="632" y="1901"/>
      <point x="692" y="1859"/>
      <point x="692" y="1781" type="curve" smooth="yes"/>
      <point x="692" y="1705"/>
      <point x="632" y="1667"/>
      <point x="574" y="1667" type="curve" smooth="yes"/>
      <point x="516" y="1667"/>
      <point x="458" y="1706"/>
    </contour>
    <contour>
      <point x="817" y="1516" type="line" smooth="no"/>
      <point x="1466" y="2" type="line" smooth="no"/>
      <point x="1463" y="0" type="line" smooth="no"/>
      <point x="1277" y="0" type="line" smooth="no"/>
      <point x="1064" y="487" type="line" smooth="no"/>
      <point x="460" y="487" type="line" smooth="no"/>
      <point x="258" y="0" type="line" smooth="no"/>
      <point x="60" y="0" type="line" smooth="no"/>
      <point x="674" y="1516" type="line" smooth="no"/>
    </contour>
    <contour>
      <point x="988" y="661" type="line" smooth="no"/>
      <point x="751" y="1265" type="line" smooth="no"/>
      <point x="533" y="661" type="line" smooth="no"/>
    </contour>
  </outline>
</glyph>
<glyph name="Aring" format="1">
  <advance width="1527"/>
  <unicode hex="00c5"/>
  <outline>
    <contour>
      <point x="622" y="1721" type="curve" smooth="yes"/>
      <point x="622" y="1646"/>
      <point x="687" y="1606"/>
      <point x="749" y="1606" type="curve" smooth="yes"/>
      <point x="811" y="1606"/>
      <point x="870" y="1646"/>
      <point x="870" y="1721" type="curve" smooth="yes"/>
      <point x="870" y="1798"/>
      <point x="810" y="1836"/>
      <point x="748" y="1836" type="curve" smooth="yes"/>
      <point x="686" y="1836"/>
      <point x="622" y="1798"/>
    </contour>
    <contour>
      <point x="985" y="1721" type="curve" smooth="yes"/>
      <point x="985" y="1604.89"/>
      <point x="909.977" y="1535.59"/>
      <point x="818.466" y="1512.58" type="curve" smooth="no"/>
      <point x="1466" y="3" type="line" smooth="no"/>
      <point x="1463" y="0" type="line" smooth="no"/>
      <point x="1277" y="0" type="line" smooth="no"/>
      <point x="1064" y="487" type="line" smooth="no"/>
      <point x="460" y="487" type="line" smooth="no"/>
      <point x="258" y="0" type="line" smooth="no"/>
      <point x="60" y="0" type="line" smooth="no"/>
      <point x="673.197" y="1514.02" type="line" smooth="no"/>
      <point x="583.754" y="1538.7"/>
      <point x="510" y="1608.85"/>
      <point x="510" y="1723" type="curve" smooth="yes"/>
      <point x="510" y="1865"/>
      <point x="629" y="1938"/>
      <point x="749" y="1938" type="curve" smooth="yes"/>
      <point x="868" y="1938"/>
      <point x="985" y="1865"/>
    </contour>
    <contour>
      <point x="988" y="662" type="line" smooth="no"/>
      <point x="751" y="1266" type="line" smooth="no"/>
      <point x="533" y="662" type="line" smooth="no"/>
    </contour>
  </outline>
</glyph>
<glyph name="AE" format="1">
  <advance width="1642"/>
  <unicode hex="00c6"/>
  <outline>
    <contour>
      <point x="811" y="662" type="line" smooth="no"/>
      <point x="811" y="1265" type="line" smooth="no"/>
      <point x="556" y="662" type="line" smooth="no"/>
    </contour>
    <contour>
      <point x="1543" y="1516" type="line" smooth="no"/>
      <point x="1543" y="1339" type="line" smooth="no"/>
      <point x="1002" y="1339" type="line" smooth="no"/>
      <point x="1002" y="856" type="line" smooth="no"/>
      <point x="1529" y="856" type="line" smooth="no"/>
      <point x="1529" y="682" type="line" smooth="no"/>
      <point x="1002" y="682" type="line" smooth="no"/>
      <point x="1002" y="177" type="line" smooth="no"/>
      <point x="1555" y="177" type="line" smooth="no"/>
      <point x="1555" y="0" type="line" smooth="no"/>
      <point x="811" y="0" type="line" smooth="no"/>
      <point x="811" y="487" type="line" smooth="no"/>
      <point x="484" y="487" type="line" smooth="no"/>
      <point x="264" y="0" type="line" smooth="no"/>
      <point x="48" y="0" type="line" smooth="no"/>
      <point x="731" y="1516" type="line" smooth="no"/>
    </contour>
  </outline>
</glyph>
<glyph name="Ccedilla" format="1">
  <advance width="1511"/>
  <unicode hex="00c7"/>
  <outline>
    <contour>
      <point x="535" y="-399" type="curve" smooth="no"/>
      <point x="532" y="-396"/>
      <point x="523" y="-388"/>
      <point x="523" y="-385" type="curve" smooth="yes"/>
      <point x="523" y="-382"/>
      <point x="529" y="-379"/>
      <point x="536" y="-379" type="curve" smooth="yes"/>
      <point x="563" y="-379"/>
      <point x="628" y="-397"/>
      <point x="690" y="-397" type="curve" smooth="yes"/>
      <point x="748" y="-397"/>
      <point x="802" y="-382"/>
      <point x="802" y="-327" type="curve" smooth="yes"/>
      <point x="802" y="-252"/>
      <point x="644" y="-260"/>
      <point x="618" y="-260" type="curve" smooth="no"/>
      <point x="705" y="-4" type="line" smooth="no"/>
      <point x="743.862" y="-4" type="line" smooth="no"/>
      <point x="358.889" y="64.7746"/>
      <point x="106" y="378.928"/>
      <point x="106" y="760" type="curve" smooth="yes"/>
      <point x="106" y="1239"/>
      <point x="481" y="1537"/>
      <point x="920" y="1537" type="curve" smooth="yes"/>
      <point x="1067" y="1537"/>
      <point x="1238" y="1499"/>
      <point x="1391" y="1432" type="curve" smooth="no"/>
      <point x="1391" y="1215" type="line" smooth="no"/>
      <point x="1225" y="1303"/>
      <point x="1064" y="1351"/>
      <point x="922" y="1351" type="curve" smooth="yes"/>
      <point x="604" y="1351"/>
      <point x="325" y="1126"/>
      <point x="325" y="754" type="curve" smooth="yes"/>
      <point x="325" y="354"/>
      <point x="608" y="160"/>
      <point x="916" y="160" type="curve" smooth="yes"/>
      <point x="1077" y="160"/>
      <point x="1254" y="218"/>
      <point x="1391" y="326" type="curve" smooth="no"/>
      <point x="1391" y="116" type="line" smooth="no"/>
      <point x="1214" y="21"/>
      <point x="1060" y="-18"/>
      <point x="905" y="-18" type="curve" smooth="yes"/>
      <point x="861.449" y="-18"/>
      <point x="819.156" y="-15.0791"/>
      <point x="778.258" y="-9.43909" type="curve" smooth="no"/>
      <point x="739" y="-132" type="line" smooth="no"/>
      <point x="857" y="-132"/>
      <point x="934" y="-200"/>
      <point x="934" y="-292" type="curve" smooth="yes"/>
      <point x="934" y="-405"/>
      <point x="832" y="-445"/>
      <point x="727" y="-445" type="curve" smooth="yes"/>
      <point x="653" y="-445"/>
      <point x="578" y="-425"/>
    </contour>
  </outline>
</glyph>
<glyph name="Egrave" format="1">
  <advance width="1060"/>
  <unicode hex="00c8"/>
  <outline>
    <contour>
      <point x="594" y="2078" type="curve" smooth="no"/>
      <point x="680" y="1701" type="line" smooth="yes"/>
      <point x="682" y="1694"/>
      <point x="682" y="1687"/>
      <point x="682" y="1682" type="curve" smooth="yes"/>
      <point x="682" y="1673"/>
      <point x="679" y="1668"/>
      <point x="673" y="1668" type="curve" smooth="yes"/>
      <point x="667" y="1668"/>
      <point x="656" y="1673"/>
      <point x="647" y="1687" type="curve" smooth="yes"/>
      <point x="437" y="1994" type="line" smooth="no"/>
      <point x="416" y="2022"/>
      <point x="406" y="2050"/>
      <point x="406" y="2075" type="curve" smooth="yes"/>
      <point x="406" y="2128"/>
      <point x="451" y="2164"/>
      <point x="498" y="2164" type="curve" smooth="yes"/>
      <point x="536" y="2164"/>
      <point x="575" y="2141"/>
    </contour>
    <contour>
      <point x="960" y="1515" type="line" smooth="no"/>
      <point x="960" y="1339" type="line" smooth="no"/>
      <point x="319" y="1339" type="line" smooth="no"/>
      <point x="319" y="856" type="line" smooth="no"/>
      <point x="946" y="856" type="line" smooth="no"/>
      <point x="946" y="682" type="line" smooth="no"/>
      <point x="319" y="682" type="line" smooth="no"/>
      <point x="319" y="176" type="line" smooth="no"/>
      <point x="973" y="176" type="line" smooth="no"/>
      <point x="973" y="0" type="line" smooth="no"/>
      <point x="128" y="0" type="line" smooth="no"/>
      <point x="128" y="1515" type="line" smooth="no"/>
    </contour>
  </outline>
</glyph>
<glyph name="Eacute" format="1">
  <advance width="1060"/>
  <unicode hex="00c9"/>
  <outline>
    <contour>
      <point x="404" y="1703" type="curve" smooth="yes"/>
      <point x="499" y="2065" type="line" smooth="no"/>
      <point x="518" y="2128"/>
      <point x="556" y="2152"/>
      <point x="598" y="2152" type="curve" smooth="yes"/>
      <point x="643" y="2152"/>
      <point x="688" y="2118"/>
      <point x="688" y="2065" type="curve" smooth="yes"/>
      <point x="688" y="2041"/>
      <point x="679" y="2011"/>
      <point x="655" y="1980" type="curve" smooth="yes"/>
      <point x="433" y="1689" type="line" smooth="no"/>
      <point x="424" y="1674"/>
      <point x="415" y="1668"/>
      <point x="408" y="1668" type="curve" smooth="yes"/>
      <point x="404" y="1668"/>
      <point x="401" y="1674"/>
      <point x="401" y="1683" type="curve" smooth="yes"/>
      <point x="401" y="1688"/>
      <point x="402" y="1696"/>
    </contour>
    <contour>
      <point x="960" y="1515" type="line" smooth="no"/>
      <point x="960" y="1339" type="line" smooth="no"/>
      <point x="319" y="1339" type="line" smooth="no"/>
      <point x="319" y="856" type="line" smooth="no"/>
      <point x="946" y="856" type="line" smooth="no"/>
      <point x="946" y="680" type="line" smooth="no"/>
      <point x="319" y="680" type="line" smooth="no"/>
      <point x="319" y="176" type="line" smooth="no"/>
      <point x="973" y="176" type="line" smooth="no"/>
      <point x="973" y="0" type="line" smooth="no"/>
      <point x="128" y="0" type="line" smooth="no"/>
      <point x="128" y="1515" type="line" smooth="no"/>
    </contour>
  </outline>
</glyph>
<glyph name="Ecircumflex" format="1">
  <advance width="1060"/>
  <unicode hex="00ca"/>
  <outline>
    <contour>
      <point x="545" y="1876" type="line" smooth="no"/>
      <point x="248" y="1670" type="line" smooth="yes"/>
      <point x="247" y="1669"/>
      <point x="247" y="1669"/>
      <point x="246" y="1669" type="curve" smooth="yes"/>
      <point x="244" y="1669"/>
      <point x="239" y="1670"/>
      <point x="239" y="1671" type="curve" smooth="yes"/>
      <point x="239" y="1672"/>
      <point x="239" y="1674"/>
      <point x="243" y="1674" type="curve" smooth="no"/>
      <point x="507" y="2081" type="line" smooth="yes"/>
      <point x="513" y="2089"/>
      <point x="529" y="2096"/>
      <point x="545" y="2096" type="curve" smooth="yes"/>
      <point x="556" y="2096"/>
      <point x="576" y="2089"/>
      <point x="582" y="2081" type="curve" smooth="yes"/>
      <point x="846" y="1674" type="line" smooth="no"/>
      <point x="846" y="1671" type="line" smooth="yes"/>
      <point x="846" y="1670"/>
      <point x="844" y="1669"/>
      <point x="843" y="1669" type="curve" smooth="yes"/>
      <point x="842" y="1669"/>
      <point x="841" y="1669"/>
      <point x="840" y="1670" type="curve" smooth="yes"/>
    </contour>
    <contour>
      <point x="960" y="1516" type="line" smooth="no"/>
      <point x="960" y="1339" type="line" smooth="no"/>
      <point x="319" y="1339" type="line" smooth="no"/>
      <point x="319" y="856" type="line" smooth="no"/>
      <point x="946" y="856" type="line" smooth="no"/>
      <point x="946" y="682" type="line" smooth="no"/>
      <point x="319" y="682" type="line" smooth="no"/>
      <point x="319" y="177" type="line" smooth="no"/>
      <point x="973" y="177" type="line" smooth="no"/>
      <point x="973" y="0" type="line" smooth="no"/>
      <point x="128" y="0" type="line" smooth="no"/>
      <point x="128" y="1516" type="line" smooth="no"/>
    </contour>
  </outline>
</glyph>
<glyph name="Edieresis" format="1">
  <advance width="1060"/>
  <unicode hex="00cb"/>
  <outline>
    <contour>
      <point x="614" y="1781" type="curve" smooth="yes"/>
      <point x="614" y="1859"/>
      <point x="674" y="1901"/>
      <point x="733" y="1901" type="curve" smooth="yes"/>
      <point x="791" y="1901"/>
      <point x="850" y="1859"/>
      <point x="850" y="1781" type="curve" smooth="yes"/>
      <point x="850" y="1705"/>
      <point x="791" y="1667"/>
      <point x="733" y="1667" type="curve" smooth="yes"/>
      <point x="674" y="1667"/>
      <point x="614" y="1706"/>
    </contour>
    <contour>
      <point x="238" y="1781" type="curve" smooth="yes"/>
      <point x="238" y="1859"/>
      <point x="297" y="1901"/>
      <point x="355" y="1901" type="curve" smooth="yes"/>
      <point x="415" y="1901"/>
      <point x="474" y="1859"/>
      <point x="474" y="1781" type="curve" smooth="yes"/>
      <point x="474" y="1705"/>
      <point x="415" y="1667"/>
      <point x="355" y="1667" type="curve" smooth="yes"/>
      <point x="297" y="1667"/>
      <point x="238" y="1706"/>
    </contour>
    <contour>
      <point x="960" y="1516" type="line" smooth="no"/>
      <point x="960" y="1338" type="line" smooth="no"/>
      <point x="319" y="1338" type="line" smooth="no"/>
      <point x="319" y="857" type="line" smooth="no"/>
      <point x="946" y="857" type="line" smooth="no"/>
      <point x="946" y="682" type="line" smooth="no"/>
      <point x="319" y="682" type="line" smooth="no"/>
      <point x="319" y="175" type="line" smooth="no"/>
      <point x="973" y="175" type="line" smooth="no"/>
      <point x="973" y="0" type="line" smooth="no"/>
      <point x="128" y="0" type="line" smooth="no"/>
      <point x="128" y="1516" type="line" smooth="no"/>
    </contour>
  </outline>
</glyph>
<glyph name="Igrave" format="1">
  <advance width="429"/>
  <unicode hex="00cc"/>
  <outline>
    <contour>
      <point x="264" y="2078" type="curve" smooth="no"/>
      <point x="350" y="1701" type="line" smooth="yes"/>
      <point x="352" y="1694"/>
      <point x="352" y="1687"/>
      <point x="352" y="1682" type="curve" smooth="yes"/>
      <point x="352" y="1673"/>
      <point x="349" y="1668"/>
      <point x="344" y="1668" type="curve" smooth="yes"/>
      <point x="337" y="1668"/>
      <point x="327" y="1673"/>
      <point x="318" y="1687" type="curve" smooth="yes"/>
      <point x="108" y="1994" type="line" smooth="no"/>
      <point x="86" y="2022"/>
      <point x="76" y="2050"/>
      <point x="76" y="2075" type="curve" smooth="yes"/>
      <point x="76" y="2128"/>
      <point x="122" y="2164"/>
      <point x="169" y="2164" type="curve" smooth="yes"/>
      <point x="206" y="2164"/>
      <point x="245" y="2141"/>
    </contour>
    <contour>
      <point x="312" y="1515" type="line" smooth="no"/>
      <point x="312" y="0" type="line" smooth="no"/>
      <point x="119" y="0" type="line" smooth="no"/>
      <point x="119" y="1515" type="line" smooth="no"/>
    </contour>
  </outline>
</glyph>
<glyph name="Iacute" format="1">
  <advance width="429"/>
  <unicode hex="00cd"/>
  <outline>
    <contour>
      <point x="73" y="1703" type="curve" smooth="yes"/>
      <point x="170" y="2065" type="line" smooth="no"/>
      <point x="188" y="2128"/>
      <point x="228" y="2152"/>
      <point x="268" y="2152" type="curve" smooth="yes"/>
      <point x="313" y="2152"/>
      <point x="359" y="2118"/>
      <point x="359" y="2065" type="curve" smooth="yes"/>
      <point x="359" y="2041"/>
      <point x="348" y="2011"/>
      <point x="325" y="1980" type="curve" smooth="yes"/>
      <point x="104" y="1689" type="line" smooth="no"/>
      <point x="95" y="1674"/>
      <point x="84" y="1668"/>
      <point x="80" y="1668" type="curve" smooth="yes"/>
      <point x="73" y="1668"/>
      <point x="70" y="1674"/>
      <point x="70" y="1683" type="curve" smooth="yes"/>
      <point x="70" y="1688"/>
      <point x="71" y="1696"/>
    </contour>
    <contour>
      <point x="311" y="1515" type="line" smooth="no"/>
      <point x="311" y="0" type="line" smooth="no"/>
      <point x="119" y="0" type="line" smooth="no"/>
      <point x="119" y="1515" type="line" smooth="no"/>
    </contour>
  </outline>
</glyph>
<glyph name="Icircumflex" format="1">
  <advance width="429"/>
  <unicode hex="00ce"/>
  <outline>
    <contour>
      <point x="215" y="1876" type="line" smooth="no"/>
      <point x="-80" y="1670" type="line" smooth="yes"/>
      <point x="-83" y="1669"/>
      <point x="-83" y="1669"/>
      <point x="-84" y="1669" type="curve" smooth="yes"/>
      <point x="-86" y="1669"/>
      <point x="-88" y="1670"/>
      <point x="-88" y="1671" type="curve" smooth="yes"/>
      <point x="-88" y="1672"/>
      <point x="-88" y="1674"/>
      <point x="-87" y="1674" type="curve" smooth="yes"/>
      <point x="178" y="2081" type="line" smooth="no"/>
      <point x="186" y="2089"/>
      <point x="201" y="2096"/>
      <point x="215" y="2096" type="curve" smooth="yes"/>
      <point x="229" y="2096"/>
      <point x="247" y="2089"/>
      <point x="254" y="2081" type="curve" smooth="no"/>
      <point x="518" y="1674" type="line" smooth="no"/>
      <point x="518" y="1671" type="line" smooth="yes"/>
      <point x="518" y="1670"/>
      <point x="517" y="1669"/>
      <point x="516" y="1669" type="curve" smooth="yes"/>
      <point x="515" y="1669"/>
      <point x="514" y="1669"/>
      <point x="511" y="1670" type="curve" smooth="yes"/>
    </contour>
    <contour>
      <point x="311" y="1516" type="line" smooth="no"/>
      <point x="311" y="0" type="line" smooth="no"/>
      <point x="119" y="0" type="line" smooth="no"/>
      <point x="119" y="1516" type="line" smooth="no"/>
    </contour>
  </outline>
</glyph>
<glyph name="Idieresis" format="1">
  <advance width="429"/>
  <unicode hex="00cf"/>
  <outline>
    <contour>
      <point x="285" y="1781" type="curve" smooth="yes"/>
      <point x="285" y="1859"/>
      <point x="345" y="1901"/>
      <point x="403" y="1901" type="curve" smooth="yes"/>
      <point x="461" y="1901"/>
      <point x="519" y="1859"/>
      <point x="519" y="1781" type="curve" smooth="yes"/>
      <point x="519" y="1705"/>
      <point x="461" y="1667"/>
      <point x="403" y="1667" type="curve" smooth="yes"/>
      <point x="345" y="1667"/>
      <point x="285" y="1706"/>
    </contour>
    <contour>
      <point x="-90" y="1781" type="curve" smooth="yes"/>
      <point x="-90" y="1859"/>
      <point x="-32" y="1901"/>
      <point x="26" y="1901" type="curve" smooth="yes"/>
      <point x="84" y="1901"/>
      <point x="144" y="1859"/>
      <point x="144" y="1781" type="curve" smooth="yes"/>
      <point x="144" y="1705"/>
      <point x="84" y="1667"/>
      <point x="26" y="1667" type="curve" smooth="yes"/>
      <point x="-32" y="1667"/>
      <point x="-90" y="1706"/>
    </contour>
    <contour>
      <point x="311" y="1516" type="line" smooth="no"/>
      <point x="311" y="0" type="line" smooth="no"/>
      <point x="119" y="0" type="line" smooth="no"/>
      <point x="119" y="1516" type="line" smooth="no"/>
    </contour>
  </outline>
</glyph>
<glyph name="Eth" format="1">
  <advance width="1207"/>
  <unicode hex="00D0"/>
  <outline>
    <contour>
      <point x="263.0" y="140.0" type="line"/>
      <point x="515.0" y="140.0" type="line" smooth="yes"/>
      <point x="781.0" y="140.0"/>
      <point x="963.0" y="291.0"/>
      <point x="963.0" y="589.0" type="curve" smooth="yes"/>
      <point x="963.0" y="926.0"/>
      <point x="782.0" y="1032.0"/>
      <point x="553.0" y="1032.0" type="curve" smooth="yes"/>
      <point x="263.0" y="1032.0" type="line"/>
    </contour>
    <contour>
      <point x="98.0" y="0.0" type="line"/>
      <point x="98.0" y="1174.0" type="line"/>
      <point x="574.0" y="1174.0" type="line" smooth="yes"/>
      <point x="936.0" y="1174.0"/>
      <point x="1128.0" y="935.0"/>
      <point x="1128.0" y="592.0" type="curve" smooth="yes"/>
      <point x="1128.0" y="276.0"/>
      <point x="921.0" y="0.0"/>
      <point x="548.0" y="0.0" type="curve" smooth="yes"/>
    </contour>
    <component base="macron" xOffset="-50" yOffset="546"/>
    <contour>
      <point x="604.0" y="1174.0" type="move" name="top"/>
    </contour>
    <contour>
      <point x="604.0" y="587.0" type="move" name="center"/>
    </contour>
  </outline>
</glyph>
<glyph name="Eth" format="1">
  <advance width="1564"/>
  <unicode hex="00d0"/>
  <outline>
    <contour>
      <point x="128" y="0" type="line" smooth="no"/>
      <point x="128" y="708" type="line" smooth="no"/>
      <point x="39" y="708" type="line" smooth="no"/>
      <point x="39" y="861" type="line" smooth="no"/>
      <point x="128" y="861" type="line" smooth="no"/>
      <point x="128" y="1520" type="line" smooth="no"/>
      <point x="745" y="1520" type="line" smooth="yes"/>
      <point x="1212" y="1520"/>
      <point x="1461" y="1211"/>
      <point x="1461" y="767" type="curve" smooth="yes"/>
      <point x="1461" y="358"/>
      <point x="1194" y="0"/>
      <point x="710" y="0" type="curve" smooth="yes"/>
    </contour>
    <contour>
      <point x="341" y="708" type="line" smooth="no"/>
      <point x="341" y="181" type="line" smooth="no"/>
      <point x="667" y="181" type="line" smooth="yes"/>
      <point x="1012" y="181"/>
      <point x="1248" y="377"/>
      <point x="1248" y="763" type="curve" smooth="yes"/>
      <point x="1248" y="1199"/>
      <point x="1013" y="1337"/>
      <point x="716" y="1337" type="curve" smooth="yes"/>
      <point x="341" y="1337" type="line" smooth="no"/>
      <point x="341" y="861" type="line" smooth="no"/>
      <point x="553" y="861" type="line" smooth="no"/>
      <point x="553" y="708" type="line" smooth="no"/>
    </contour>
  </outline>
</glyph>
<glyph name="Ograve" format="1">
  <advance width="1757"/>
  <unicode hex="00D2"/>
  <outline>
    <contour>
      <point x="1004" y="1667" type="curve" smooth="yes"/>
      <point x="1009" y="1667"/>
      <point x="1012" y="1672"/>
      <point x="1012" y="1681" type="curve" smooth="yes"/>
      <point x="1012" y="1685"/>
      <point x="1012" y="1693"/>
      <point x="1010" y="1701" type="curve" smooth="yes"/>
      <point x="925" y="2078" type="line"/>
      <point x="905" y="2140"/>
      <point x="866" y="2164"/>
      <point x="829" y="2164" type="curve" smooth="yes"/>
      <point x="782" y="2164"/>
      <point x="736" y="2127"/>
      <point x="736" y="2074" type="curve" smooth="yes"/>
      <point x="736" y="2049"/>
      <point x="746" y="2022"/>
      <point x="768" y="1994" type="curve"/>
      <point x="978" y="1685" type="line" smooth="yes"/>
      <point x="987" y="1672"/>
      <point x="997" y="1667"/>
    </contour>
    <contour>
      <point x="877" y="162" type="curve" smooth="yes"/>
      <point x="562" y="162"/>
      <point x="305" y="429"/>
      <point x="305" y="758" type="curve" smooth="yes"/>
      <point x="305" y="1087"/>
      <point x="562" y="1355"/>
      <point x="877" y="1355" type="curve" smooth="yes"/>
      <point x="1192" y="1355"/>
      <point x="1451" y="1087"/>
      <point x="1451" y="758" type="curve" smooth="yes"/>
      <point x="1451" y="429"/>
      <point x="1192" y="162"/>
    </contour>
    <contour>
      <point x="877" y="-21" type="curve" smooth="yes"/>
      <point x="1301" y="-21"/>
      <point x="1650" y="330"/>
      <point x="1650" y="758" type="curve" smooth="yes"/>
      <point x="1650" y="1187"/>
      <point x="1301" y="1535"/>
      <point x="877" y="1535" type="curve" smooth="yes"/>
      <point x="452" y="1535"/>
      <point x="105" y="1187"/>
      <point x="105" y="758" type="curve" smooth="yes"/>
      <point x="105" y="330"/>
      <point x="452" y="-21"/>
    </contour>
  </outline>
</glyph>
<glyph name="Oacute" format="1">
  <advance width="1757"/>
  <unicode hex="00d3"/>
  <outline>
    <contour>
      <point x="734" y="1704" type="curve" smooth="yes"/>
      <point x="830" y="2066" type="line" smooth="no"/>
      <point x="849" y="2128"/>
      <point x="889" y="2153"/>
      <point x="929" y="2153" type="curve" smooth="yes"/>
      <point x="974" y="2153"/>
      <point x="1020" y="2119"/>
      <point x="1020" y="2066" type="curve" smooth="yes"/>
      <point x="1020" y="2040"/>
      <point x="1009" y="2011"/>
      <point x="985" y="1981" type="curve" smooth="yes"/>
      <point x="764" y="1690" type="line" smooth="no"/>
      <point x="755" y="1674"/>
      <point x="745" y="1668"/>
      <point x="739" y="1668" type="curve" smooth="yes"/>
      <point x="734" y="1668"/>
      <point x="731" y="1674"/>
      <point x="731" y="1683" type="curve" smooth="yes"/>
      <point x="731" y="1687"/>
      <point x="732" y="1696"/>
    </contour>
    <contour>
      <point x="877" y="-20" type="curve" smooth="yes"/>
      <point x="452" y="-20"/>
      <point x="105" y="330"/>
      <point x="105" y="759" type="curve" smooth="yes"/>
      <point x="105" y="1188"/>
      <point x="452" y="1536"/>
      <point x="877" y="1536" type="curve" smooth="yes"/>
      <point x="1301" y="1536"/>
      <point x="1650" y="1188"/>
      <point x="1650" y="759" type="curve" smooth="yes"/>
      <point x="1650" y="330"/>
      <point x="1301" y="-20"/>
    </contour>
    <contour>
      <point x="877" y="1356" type="curve" smooth="yes"/>
      <point x="562" y="1356"/>
      <point x="305" y="1088"/>
      <point x="305" y="759" type="curve" smooth="yes"/>
      <point x="305" y="429"/>
      <point x="562" y="162"/>
      <point x="877" y="162" type="curve" smooth="yes"/>
      <point x="1192" y="162"/>
      <point x="1451" y="429"/>
      <point x="1451" y="759" type="curve" smooth="yes"/>
      <point x="1451" y="1088"/>
      <point x="1192" y="1356"/>
    </contour>
  </outline>
</glyph>
<glyph name="Otilde" format="1">
  <advance width="1757"/>
  <unicode hex="00d5"/>
  <outline>
    <contour>
      <point x="646" y="1756" type="curve" smooth="yes"/>
      <point x="591" y="1756"/>
      <point x="558" y="1711"/>
      <point x="542" y="1711" type="curve" smooth="yes"/>
      <point x="534" y="1711"/>
      <point x="527" y="1716"/>
      <point x="527" y="1725" type="curve" smooth="yes"/>
      <point x="527" y="1729"/>
      <point x="529" y="1733"/>
      <point x="534" y="1740" type="curve" smooth="yes"/>
      <point x="586" y="1827"/>
      <point x="645" y="1885"/>
      <point x="737" y="1885" type="curve" smooth="yes"/>
      <point x="864" y="1885"/>
      <point x="1021" y="1795"/>
      <point x="1105" y="1795" type="curve" smooth="yes"/>
      <point x="1163" y="1795"/>
      <point x="1195" y="1842"/>
      <point x="1212" y="1842" type="curve" smooth="yes"/>
      <point x="1220" y="1842"/>
      <point x="1224" y="1838"/>
      <point x="1224" y="1829" type="curve" smooth="yes"/>
      <point x="1224" y="1825"/>
      <point x="1222" y="1819"/>
      <point x="1220" y="1814" type="curve" smooth="no"/>
      <point x="1160" y="1727"/>
      <point x="1093" y="1669"/>
      <point x="992" y="1669" type="curve" smooth="yes"/>
      <point x="901" y="1669"/>
      <point x="760" y="1756"/>
    </contour>
    <contour>
      <point x="877" y="-18" type="curve" smooth="yes"/>
      <point x="452" y="-18"/>
      <point x="105" y="330"/>
      <point x="105" y="760" type="curve" smooth="yes"/>
      <point x="105" y="1188"/>
      <point x="452" y="1537"/>
      <point x="877" y="1537" type="curve" smooth="yes"/>
      <point x="1301" y="1537"/>
      <point x="1650" y="1188"/>
      <point x="1650" y="760" type="curve" smooth="yes"/>
      <point x="1650" y="330"/>
      <point x="1301" y="-18"/>
    </contour>
    <contour>
      <point x="877" y="1356" type="curve" smooth="yes"/>
      <point x="562" y="1356"/>
      <point x="305" y="1089"/>
      <point x="305" y="760" type="curve" smooth="yes"/>
      <point x="305" y="431"/>
      <point x="562" y="163"/>
      <point x="877" y="163" type="curve" smooth="yes"/>
      <point x="1192" y="163"/>
      <point x="1451" y="431"/>
      <point x="1451" y="760" type="curve" smooth="yes"/>
      <point x="1451" y="1089"/>
      <point x="1192" y="1356"/>
    </contour>
  </outline>
</glyph>
<glyph name="multiply" format="1">
  <advance width="1069"/>
  <unicode hex="00d7"/>
  <outline>
    <contour>
      <point x="646" y="782" type="line" smooth="no"/>
      <point x="888" y="531" type="line" smooth="no"/>
      <point x="776" y="420" type="line" smooth="no"/>
      <point x="531" y="667" type="line" smooth="no"/>
      <point x="285" y="421" type="line" smooth="no"/>
      <point x="173" y="533" type="line" smooth="no"/>
      <point x="420" y="780" type="line" smooth="no"/>
      <point x="174" y="1027" type="line" smooth="no"/>
      <point x="286" y="1139" type="line" smooth="no"/>
      <point x="533" y="893" type="line" smooth="no"/>
      <point x="780" y="1140" type="line" smooth="no"/>
      <point x="892" y="1029" type="line" smooth="no"/>
    </contour>
  </outline>
</glyph>
<glyph name="Oslash" format="1">
  <advance width="1751"/>
  <unicode hex="00d8"/>
  <outline>
    <contour>
      <point x="877" y="-19" type="curve" smooth="yes"/>
      <point x="753.844" y="-19"/>
      <point x="637.237" y="10.2224"/>
      <point x="533.726" y="62.1944" type="curve" smooth="no"/>
      <point x="390" y="-175" type="line" smooth="no"/>
      <point x="292" y="-112" type="line" smooth="no"/>
      <point x="434.167" y="121.973" type="line" smooth="no"/>
      <point x="235.372" y="262.668"/>
      <point x="105" y="495.43"/>
      <point x="105" y="759" type="curve" smooth="yes"/>
      <point x="105" y="1186"/>
      <point x="452" y="1536"/>
      <point x="877" y="1536" type="curve" smooth="yes"/>
      <point x="1007.07" y="1536"/>
      <point x="1130.07" y="1503.06"/>
      <point x="1238.11" y="1445.07" type="curve" smooth="no"/>
      <point x="1376" y="1672" type="line" smooth="no"/>
      <point x="1471" y="1609" type="line" smooth="no"/>
      <point x="1334.54" y="1383.79" type="line" smooth="no"/>
      <point x="1525.35" y="1241.88"/>
      <point x="1650" y="1014.19"/>
      <point x="1650" y="759" type="curve" smooth="yes"/>
      <point x="1650" y="329"/>
      <point x="1301" y="-19"/>
    </contour>
    <contour>
      <point x="1236.86" y="1222.6" type="curve" smooth="no"/>
      <point x="629.073" y="219.549" type="line" smooth="no"/>
      <point x="704.149" y="181.421"/>
      <point x="788.274" y="160"/>
      <point x="877" y="160" type="curve" smooth="yes"/>
      <point x="1192" y="160"/>
      <point x="1451" y="430"/>
      <point x="1451" y="759" type="curve" smooth="yes"/>
      <point x="1451" y="946.188"/>
      <point x="1367.16" y="1113.31"/>
    </contour>
    <contour>
      <point x="1142.19" y="1287.2" type="line" smooth="no"/>
      <point x="1062.69" y="1330.5"/>
      <point x="972.415" y="1355"/>
      <point x="877" y="1355" type="curve" smooth="yes"/>
      <point x="562" y="1355"/>
      <point x="305" y="1088"/>
      <point x="305" y="759" type="curve" smooth="yes"/>
      <point x="305" y="565.314"/>
      <point x="394.071" y="392.077"/>
      <point x="531.61" y="282.339" type="curve" smooth="no"/>
    </contour>
  </outline>
</glyph>
<glyph name="Ugrave" format="1">
  <advance width="1486"/>
  <unicode hex="00D9"/>
  <outline>
    <contour>
      <point x="744" y="-21" type="curve" smooth="yes"/>
      <point x="1049" y="-21"/>
      <point x="1356" y="180"/>
      <point x="1356" y="586" type="curve" smooth="yes"/>
      <point x="1356" y="1514" type="line"/>
      <point x="1164" y="1514" type="line"/>
      <point x="1164" y="592" type="line" smooth="yes"/>
      <point x="1164" y="299"/>
      <point x="953" y="153"/>
      <point x="741" y="153" type="curve" smooth="yes"/>
      <point x="529" y="153"/>
      <point x="321" y="299"/>
      <point x="321" y="592" type="curve" smooth="yes"/>
      <point x="321" y="1514" type="line"/>
      <point x="129" y="1514" type="line"/>
      <point x="129" y="584" type="line" smooth="yes"/>
      <point x="129" y="180"/>
      <point x="438" y="-21"/>
    </contour>
    <contour>
      <point x="872" y="1667" type="curve" smooth="yes"/>
      <point x="876" y="1667"/>
      <point x="880" y="1672"/>
      <point x="880" y="1681" type="curve" smooth="yes"/>
      <point x="880" y="1685"/>
      <point x="880" y="1693"/>
      <point x="877" y="1701" type="curve"/>
      <point x="792" y="2078" type="line"/>
      <point x="772" y="2140"/>
      <point x="733" y="2164"/>
      <point x="697" y="2164" type="curve" smooth="yes"/>
      <point x="650" y="2164"/>
      <point x="605" y="2127"/>
      <point x="605" y="2074" type="curve" smooth="yes"/>
      <point x="605" y="2049"/>
      <point x="613" y="2022"/>
      <point x="636" y="1994" type="curve"/>
      <point x="846" y="1685" type="line" smooth="yes"/>
      <point x="855" y="1672"/>
      <point x="865" y="1667"/>
    </contour>
  </outline>
</glyph>
<glyph name="Uacute" format="1">
  <advance width="1486"/>
  <unicode hex="00DA"/>
  <outline>
    <contour>
      <point x="744" y="-20" type="curve" smooth="yes"/>
      <point x="1049" y="-20"/>
      <point x="1356" y="181"/>
      <point x="1356" y="586" type="curve" smooth="yes"/>
      <point x="1356" y="1515" type="line"/>
      <point x="1164" y="1515" type="line"/>
      <point x="1164" y="592" type="line" smooth="yes"/>
      <point x="1164" y="300"/>
      <point x="953" y="154"/>
      <point x="741" y="154" type="curve" smooth="yes"/>
      <point x="529" y="154"/>
      <point x="321" y="300"/>
      <point x="321" y="592" type="curve" smooth="yes"/>
      <point x="321" y="1515" type="line"/>
      <point x="129" y="1515" type="line"/>
      <point x="129" y="585" type="line" smooth="yes"/>
      <point x="129" y="181"/>
      <point x="438" y="-20"/>
    </contour>
    <contour>
      <point x="608" y="1668" type="curve" smooth="yes"/>
      <point x="612" y="1668"/>
      <point x="623" y="1674"/>
      <point x="632" y="1690" type="curve"/>
      <point x="853" y="1981" type="line" smooth="yes"/>
      <point x="876" y="2011"/>
      <point x="887" y="2040"/>
      <point x="887" y="2066" type="curve" smooth="yes"/>
      <point x="887" y="2119"/>
      <point x="842" y="2153"/>
      <point x="796" y="2153" type="curve" smooth="yes"/>
      <point x="756" y="2153"/>
      <point x="716" y="2128"/>
      <point x="698" y="2066" type="curve"/>
      <point x="601" y="1704" type="line" smooth="yes"/>
      <point x="599" y="1696"/>
      <point x="598" y="1687"/>
      <point x="598" y="1683" type="curve" smooth="yes"/>
      <point x="598" y="1674"/>
      <point x="601" y="1668"/>
    </contour>
  </outline>
</glyph>
<glyph name="Udieresis" format="1">
  <advance width="1486"/>
  <unicode hex="00dc"/>
  <outline>
    <contour>
      <point x="813" y="1781" type="curve" smooth="yes"/>
      <point x="813" y="1858"/>
      <point x="873" y="1901"/>
      <point x="931" y="1901" type="curve" smooth="yes"/>
      <point x="989" y="1901"/>
      <point x="1047" y="1858"/>
      <point x="1047" y="1781" type="curve" smooth="yes"/>
      <point x="1047" y="1703"/>
      <point x="989" y="1667"/>
      <point x="931" y="1667" type="curve" smooth="yes"/>
      <point x="873" y="1667"/>
      <point x="813" y="1704"/>
    </contour>
    <contour>
      <point x="438" y="1781" type="curve" smooth="yes"/>
      <point x="438" y="1858"/>
      <point x="496" y="1901"/>
      <point x="554" y="1901" type="curve" smooth="yes"/>
      <point x="612" y="1901"/>
      <point x="672" y="1858"/>
      <point x="672" y="1781" type="curve" smooth="yes"/>
      <point x="672" y="1703"/>
      <point x="612" y="1667"/>
      <point x="554" y="1667" type="curve" smooth="yes"/>
      <point x="496" y="1667"/>
      <point x="438" y="1704"/>
    </contour>
    <contour>
      <point x="744" y="-20" type="curve" smooth="yes"/>
      <point x="438" y="-20"/>
      <point x="129" y="181"/>
      <point x="129" y="585" type="curve" smooth="yes"/>
      <point x="129" y="1514" type="line" smooth="no"/>
      <point x="321" y="1514" type="line" smooth="no"/>
      <point x="321" y="590" type="line" smooth="yes"/>
      <point x="321" y="299"/>
      <point x="529" y="153"/>
      <point x="741" y="153" type="curve" smooth="yes"/>
      <point x="953" y="153"/>
      <point x="1164" y="299"/>
      <point x="1164" y="590" type="curve" smooth="yes"/>
      <point x="1164" y="1514" type="line" smooth="no"/>
      <point x="1356" y="1514" type="line" smooth="no"/>
      <point x="1356" y="586" type="line" smooth="yes"/>
      <point x="1356" y="181"/>
      <point x="1049" y="-20"/>
    </contour>
  </outline>
</glyph>
<glyph name="Yacute" format="1">
  <advance width="1266"/>
  <unicode hex="00DD"/>
  <outline>
    <contour>
      <point x="529" y="0" type="line"/>
      <point x="737" y="0" type="line"/>
      <point x="737" y="798" type="line"/>
      <point x="1259" y="1515" type="line"/>
      <point x="1038" y="1515" type="line"/>
      <point x="630" y="956" type="line"/>
      <point x="239" y="1515" type="line"/>
      <point x="3" y="1515" type="line"/>
      <point x="529" y="805" type="line"/>
    </contour>
    <contour>
      <point x="496" y="1668" type="curve" smooth="yes"/>
      <point x="500" y="1668"/>
      <point x="511" y="1674"/>
      <point x="520" y="1689" type="curve"/>
      <point x="741" y="1980" type="line" smooth="yes"/>
      <point x="764" y="2011"/>
      <point x="775" y="2041"/>
      <point x="775" y="2065" type="curve" smooth="yes"/>
      <point x="775" y="2118"/>
      <point x="729" y="2152"/>
      <point x="684" y="2152" type="curve" smooth="yes"/>
      <point x="644" y="2152"/>
      <point x="604" y="2128"/>
      <point x="586" y="2065" type="curve"/>
      <point x="489" y="1703" type="line" smooth="yes"/>
      <point x="487" y="1696"/>
      <point x="486" y="1688"/>
      <point x="486" y="1683" type="curve" smooth="yes"/>
      <point x="486" y="1674"/>
      <point x="489" y="1668"/>
    </contour>
  </outline>
</glyph>
<glyph name="Thorn" format="1">
  <advance width="801"/>
  <unicode hex="00DE"/>
  <outline>
    <contour>
      <point x="236" y="971" type="line"/>
      <point x="347" y="971" type="line" smooth="yes"/>
      <point x="566" y="971"/>
      <point x="737" y="879"/>
      <point x="737" y="656" type="curve" smooth="yes"/>
      <point x="737" y="458"/>
      <point x="614" y="316"/>
      <point x="309" y="316" type="curve" smooth="yes"/>
      <point x="235" y="316" type="line"/>
      <point x="235" y="0" type="line"/>
      <point x="76" y="0" type="line"/>
      <point x="76" y="1199" type="line"/>
      <point x="236" y="1199" type="line"/>
    </contour>
    <contour>
      <point x="574" y="647" type="curve" smooth="yes"/>
      <point x="574" y="743"/>
      <point x="537" y="838"/>
      <point x="331" y="838" type="curve" smooth="yes"/>
      <point x="237" y="838" type="line"/>
      <point x="237" y="452" type="line"/>
      <point x="423" y="452"/>
      <point x="574" y="469"/>
    </contour>
  </outline>
</glyph>
<glyph name="Thorn" format="1">
  <advance width="1039"/>
  <unicode hex="00DE"/>
  <outline>
    <contour>
      <point x="100" y="0" type="line"/>
      <point x="306" y="0" type="line"/>
      <point x="306" y="409" type="line"/>
      <point x="401" y="409" type="line" smooth="yes"/>
      <point x="796" y="409"/>
      <point x="955" y="593"/>
      <point x="955" y="850" type="curve" smooth="yes"/>
      <point x="955" y="1138"/>
      <point x="734" y="1257"/>
      <point x="451" y="1257" type="curve" smooth="yes"/>
      <point x="307" y="1257" type="line"/>
      <point x="307" y="1553" type="line"/>
      <point x="100" y="1553" type="line"/>
    </contour>
    <contour>
      <point x="308" y="586" type="curve"/>
      <point x="308" y="1084" type="line"/>
      <point x="430" y="1084" type="line" smooth="yes"/>
      <point x="697" y="1084"/>
      <point x="744" y="962"/>
      <point x="744" y="838" type="curve" smooth="yes"/>
      <point x="744" y="607"/>
      <point x="549" y="586"/>
    </contour>
  </outline>
</glyph>
<glyph name="germandbls" format="1">
  <advance width="1190"/>
  <unicode hex="00df"/>
  <outline>
    <contour>
      <point x="539" y="861" type="line" smooth="no"/>
      <point x="599" y="858" type="line" smooth="no"/>
      <point x="744" y="858"/>
      <point x="821" y="978"/>
      <point x="821" y="1101" type="curve" smooth="yes"/>
      <point x="821" y="1229"/>
      <point x="736" y="1358"/>
      <point x="548" y="1358" type="curve" smooth="yes"/>
      <point x="430" y="1358"/>
      <point x="316" y="1278"/>
      <point x="316" y="1079" type="curve" smooth="yes"/>
      <point x="316" y="-3" type="line" smooth="no"/>
      <point x="127" y="-3" type="line" smooth="no"/>
      <point x="127" y="1080" type="line" smooth="yes"/>
      <point x="127" y="1387"/>
      <point x="330" y="1518"/>
      <point x="543" y="1518" type="curve" smooth="yes"/>
      <point x="824" y="1518"/>
      <point x="995" y="1315"/>
      <point x="995" y="1119" type="curve" smooth="yes"/>
      <point x="995" y="1001"/>
      <point x="933" y="886"/>
      <point x="795" y="818" type="curve" smooth="no"/>
      <point x="795" y="813" type="line" smooth="no"/>
      <point x="1052" y="736"/>
      <point x="1081" y="495"/>
      <point x="1081" y="428" type="curve" smooth="yes"/>
      <point x="1081" y="105"/>
      <point x="869" y="0"/>
      <point x="470" y="0" type="curve" smooth="no"/>
      <point x="470" y="173" type="line" smooth="no"/>
      <point x="657" y="173"/>
      <point x="881" y="174"/>
      <point x="881" y="428" type="curve" smooth="yes"/>
      <point x="881" y="547"/>
      <point x="814" y="705"/>
      <point x="630" y="705" type="curve" smooth="yes"/>
      <point x="539" y="705" type="line" smooth="no"/>
    </contour>
  </outline>
</glyph>
<glyph name="agrave" format="1">
  <advance width="958"/>
  <unicode hex="00e0"/>
  <outline>
    <contour>
      <point x="548" y="1559" type="curve" smooth="no"/>
      <point x="633" y="1181" type="line" smooth="no"/>
      <point x="636" y="1174"/>
      <point x="636" y="1167"/>
      <point x="636" y="1162" type="curve" smooth="yes"/>
      <point x="636" y="1154"/>
      <point x="632" y="1147"/>
      <point x="628" y="1147" type="curve" smooth="yes"/>
      <point x="621" y="1147"/>
      <point x="611" y="1154"/>
      <point x="602" y="1167" type="curve" smooth="yes"/>
      <point x="392" y="1474" type="line" smooth="no"/>
      <point x="369" y="1503"/>
      <point x="361" y="1530"/>
      <point x="361" y="1555" type="curve" smooth="yes"/>
      <point x="361" y="1607"/>
      <point x="406" y="1644"/>
      <point x="453" y="1644" type="curve" smooth="yes"/>
      <point x="489" y="1644"/>
      <point x="528" y="1620"/>
    </contour>
    <contour>
      <point x="275" y="245" type="curve" smooth="yes"/>
      <point x="275" y="25"/>
      <point x="527" y="129"/>
      <point x="602" y="223" type="curve" smooth="no"/>
      <point x="602" y="460" type="line" smooth="no"/>
      <point x="477" y="419"/>
      <point x="275" y="380"/>
    </contour>
    <contour>
      <point x="86" y="231" type="curve" smooth="yes"/>
      <point x="86" y="340"/>
      <point x="183" y="458"/>
      <point x="438" y="525" type="curve" smooth="no"/>
      <point x="602" y="567" type="line" smooth="no"/>
      <point x="602" y="572"/>
      <point x="603" y="612"/>
      <point x="603" y="625" type="curve" smooth="yes"/>
      <point x="603" y="755"/>
      <point x="544" y="841"/>
      <point x="433" y="841" type="curve" smooth="yes"/>
      <point x="321" y="841"/>
      <point x="224" y="791"/>
      <point x="155" y="724" type="curve" smooth="no"/>
      <point x="104" y="878" type="line" smooth="no"/>
      <point x="143" y="920"/>
      <point x="288" y="1007"/>
      <point x="429" y="1007" type="curve" smooth="yes"/>
      <point x="595" y="1007"/>
      <point x="780" y="923"/>
      <point x="780" y="693" type="curve" smooth="yes"/>
      <point x="780" y="284" type="line" smooth="yes"/>
      <point x="780" y="177"/>
      <point x="829" y="171"/>
      <point x="911" y="128" type="curve" smooth="no"/>
      <point x="813" y="-15" type="line" smooth="no"/>
      <point x="751" y="15"/>
      <point x="663" y="72"/>
      <point x="631" y="138" type="curve" smooth="no"/>
      <point x="566" y="24"/>
      <point x="435" y="-21"/>
      <point x="354" y="-21" type="curve" smooth="yes"/>
      <point x="207" y="-21"/>
      <point x="86" y="45"/>
    </contour>
  </outline>
</glyph>
<glyph name="aacute" format="1">
  <advance width="958"/>
  <unicode hex="00E1"/>
  <outline>
    <contour>
      <point x="354" y="-21" type="curve" smooth="yes"/>
      <point x="435" y="-21"/>
      <point x="566" y="23"/>
      <point x="631" y="138" type="curve"/>
      <point x="663" y="71"/>
      <point x="751" y="14"/>
      <point x="813" y="-15" type="curve"/>
      <point x="911" y="127" type="line"/>
      <point x="829" y="170"/>
      <point x="780" y="177"/>
      <point x="780" y="284" type="curve" smooth="yes"/>
      <point x="780" y="693" type="line" smooth="yes"/>
      <point x="780" y="923"/>
      <point x="595" y="1004"/>
      <point x="429" y="1004" type="curve" smooth="yes"/>
      <point x="288" y="1004"/>
      <point x="143" y="918"/>
      <point x="104" y="878" type="curve"/>
      <point x="155" y="724" type="line"/>
      <point x="224" y="791"/>
      <point x="321" y="841"/>
      <point x="433" y="841" type="curve" smooth="yes"/>
      <point x="544" y="841"/>
      <point x="603" y="755"/>
      <point x="603" y="625" type="curve" smooth="yes"/>
      <point x="603" y="612"/>
      <point x="602" y="572"/>
      <point x="602" y="567" type="curve"/>
      <point x="438" y="525" type="line"/>
      <point x="183" y="457"/>
      <point x="86" y="340"/>
      <point x="86" y="231" type="curve" smooth="yes"/>
      <point x="86" y="45"/>
      <point x="207" y="-21"/>
    </contour>
    <contour>
      <point x="364" y="1147" type="curve" smooth="yes"/>
      <point x="368" y="1147"/>
      <point x="379" y="1155"/>
      <point x="388" y="1169" type="curve"/>
      <point x="609" y="1460" type="line" smooth="yes"/>
      <point x="632" y="1491"/>
      <point x="643" y="1521"/>
      <point x="643" y="1545" type="curve" smooth="yes"/>
      <point x="643" y="1599"/>
      <point x="598" y="1632"/>
      <point x="552" y="1632" type="curve" smooth="yes"/>
      <point x="512" y="1632"/>
      <point x="472" y="1607"/>
      <point x="454" y="1545" type="curve"/>
      <point x="357" y="1183" type="line" smooth="yes"/>
      <point x="355" y="1176"/>
      <point x="354" y="1168"/>
      <point x="354" y="1163" type="curve" smooth="yes"/>
      <point x="354" y="1155"/>
      <point x="357" y="1147"/>
    </contour>
    <contour>
      <point x="602" y="223" type="line"/>
      <point x="527" y="129"/>
      <point x="275" y="25"/>
      <point x="275" y="245" type="curve" smooth="yes"/>
      <point x="275" y="380"/>
      <point x="477" y="419"/>
      <point x="602" y="459" type="curve"/>
    </contour>
  </outline>
</glyph>
<glyph name="acircumflex" format="1">
  <advance width="958"/>
  <unicode hex="00E2"/>
  <outline>
    <contour>
      <point x="354" y="-21" type="curve" smooth="yes"/>
      <point x="435" y="-21"/>
      <point x="566" y="25"/>
      <point x="631" y="139" type="curve"/>
      <point x="663" y="71"/>
      <point x="751" y="14"/>
      <point x="813" y="-14" type="curve"/>
      <point x="911" y="129" type="line"/>
      <point x="829" y="171"/>
      <point x="780" y="177"/>
      <point x="780" y="285" type="curve" smooth="yes"/>
      <point x="780" y="692" type="line" smooth="yes"/>
      <point x="780" y="923"/>
      <point x="595" y="1006"/>
      <point x="429" y="1006" type="curve" smooth="yes"/>
      <point x="288" y="1006"/>
      <point x="143" y="920"/>
      <point x="104" y="878" type="curve"/>
      <point x="155" y="725" type="line"/>
      <point x="224" y="791"/>
      <point x="321" y="843"/>
      <point x="433" y="843" type="curve" smooth="yes"/>
      <point x="544" y="843"/>
      <point x="603" y="755"/>
      <point x="603" y="626" type="curve" smooth="yes"/>
      <point x="603" y="613"/>
      <point x="602" y="572"/>
      <point x="602" y="569" type="curve"/>
      <point x="438" y="527" type="line"/>
      <point x="183" y="459"/>
      <point x="86" y="341"/>
      <point x="86" y="230" type="curve" smooth="yes"/>
      <point x="86" y="45"/>
      <point x="207" y="-21"/>
    </contour>
    <contour>
      <point x="199" y="1149" type="curve" smooth="yes"/>
      <point x="200" y="1149"/>
      <point x="200" y="1149"/>
      <point x="203" y="1150" type="curve" smooth="yes"/>
      <point x="498" y="1356" type="line"/>
      <point x="794" y="1150" type="line" smooth="yes"/>
      <point x="797" y="1149"/>
      <point x="798" y="1149"/>
      <point x="799" y="1149" type="curve" smooth="yes"/>
      <point x="800" y="1149"/>
      <point x="801" y="1150"/>
      <point x="801" y="1151" type="curve" smooth="yes"/>
      <point x="801" y="1153" type="line"/>
      <point x="537" y="1561" type="line" smooth="yes"/>
      <point x="530" y="1570"/>
      <point x="512" y="1576"/>
      <point x="498" y="1576" type="curve" smooth="yes"/>
      <point x="484" y="1576"/>
      <point x="469" y="1570"/>
      <point x="461" y="1561" type="curve"/>
      <point x="196" y="1153" type="line" smooth="yes"/>
      <point x="195" y="1153"/>
      <point x="195" y="1152"/>
      <point x="195" y="1151" type="curve" smooth="yes"/>
      <point x="195" y="1150"/>
      <point x="197" y="1149"/>
    </contour>
    <contour>
      <point x="602" y="225" type="line"/>
      <point x="527" y="130"/>
      <point x="275" y="26"/>
      <point x="275" y="244" type="curve" smooth="yes"/>
      <point x="275" y="382"/>
      <point x="477" y="420"/>
      <point x="602" y="460" type="curve"/>
    </contour>
  </outline>
</glyph>
<glyph name="atilde" format="1">
  <advance width="958"/>
  <unicode hex="00E3"/>
  <outline>
    <contour>
      <point x="354" y="-20" type="curve" smooth="yes"/>
      <point x="435" y="-20"/>
      <point x="566" y="25"/>
      <point x="631" y="139" type="curve"/>
      <point x="663" y="72"/>
      <point x="751" y="14"/>
      <point x="813" y="-15" type="curve"/>
      <point x="911" y="128" type="line"/>
      <point x="829" y="171"/>
      <point x="780" y="177"/>
      <point x="780" y="285" type="curve" smooth="yes"/>
      <point x="780" y="693" type="line" smooth="yes"/>
      <point x="780" y="923"/>
      <point x="595" y="1006"/>
      <point x="429" y="1006" type="curve" smooth="yes"/>
      <point x="288" y="1006"/>
      <point x="143" y="920"/>
      <point x="104" y="878" type="curve"/>
      <point x="155" y="725" type="line"/>
      <point x="224" y="791"/>
      <point x="321" y="842"/>
      <point x="433" y="842" type="curve" smooth="yes"/>
      <point x="544" y="842"/>
      <point x="603" y="755"/>
      <point x="603" y="626" type="curve" smooth="yes"/>
      <point x="603" y="613"/>
      <point x="602" y="573"/>
      <point x="602" y="569" type="curve"/>
      <point x="438" y="526" type="line" smooth="yes"/>
      <point x="183" y="459"/>
      <point x="86" y="341"/>
      <point x="86" y="231" type="curve" smooth="yes"/>
      <point x="86" y="45"/>
      <point x="207" y="-20"/>
    </contour>
    <contour>
      <point x="615" y="1149" type="curve" smooth="yes"/>
      <point x="715" y="1149"/>
      <point x="784" y="1207"/>
      <point x="842" y="1293" type="curve"/>
      <point x="845" y="1300"/>
      <point x="846" y="1304"/>
      <point x="846" y="1309" type="curve" smooth="yes"/>
      <point x="846" y="1317"/>
      <point x="842" y="1322"/>
      <point x="834" y="1322" type="curve" smooth="yes"/>
      <point x="817" y="1322"/>
      <point x="785" y="1276"/>
      <point x="727" y="1276" type="curve" smooth="yes"/>
      <point x="643" y="1276"/>
      <point x="486" y="1365"/>
      <point x="361" y="1365" type="curve" smooth="yes"/>
      <point x="267" y="1365"/>
      <point x="208" y="1307"/>
      <point x="156" y="1220" type="curve" smooth="yes"/>
      <point x="151" y="1213"/>
      <point x="150" y="1210"/>
      <point x="150" y="1204" type="curve" smooth="yes"/>
      <point x="150" y="1196"/>
      <point x="156" y="1191"/>
      <point x="164" y="1191" type="curve" smooth="yes"/>
      <point x="180" y="1191"/>
      <point x="213" y="1237"/>
      <point x="269" y="1237" type="curve" smooth="yes"/>
      <point x="382" y="1237"/>
      <point x="523" y="1149"/>
    </contour>
    <contour>
      <point x="602" y="224" type="line"/>
      <point x="527" y="129"/>
      <point x="275" y="26"/>
      <point x="275" y="245" type="curve" smooth="yes"/>
      <point x="275" y="381"/>
      <point x="477" y="419"/>
      <point x="602" y="460" type="curve"/>
    </contour>
  </outline>
</glyph>
<glyph name="adieresis" format="1">
  <advance width="958"/>
  <unicode hex="00E4"/>
  <outline>
    <contour>
      <point x="354" y="-20" type="curve" smooth="yes"/>
      <point x="435" y="-20"/>
      <point x="566" y="25"/>
      <point x="631" y="140" type="curve"/>
      <point x="663" y="72"/>
      <point x="751" y="14"/>
      <point x="813" y="-14" type="curve"/>
      <point x="911" y="129" type="line"/>
      <point x="829" y="171"/>
      <point x="780" y="178"/>
      <point x="780" y="286" type="curve" smooth="yes"/>
      <point x="780" y="693" type="line" smooth="yes"/>
      <point x="780" y="923"/>
      <point x="595" y="1007"/>
      <point x="429" y="1007" type="curve" smooth="yes"/>
      <point x="288" y="1007"/>
      <point x="143" y="920"/>
      <point x="104" y="879" type="curve"/>
      <point x="155" y="725" type="line"/>
      <point x="224" y="791"/>
      <point x="321" y="843"/>
      <point x="433" y="843" type="curve" smooth="yes"/>
      <point x="544" y="843"/>
      <point x="603" y="755"/>
      <point x="603" y="626" type="curve" smooth="yes"/>
      <point x="603" y="614"/>
      <point x="602" y="573"/>
      <point x="602" y="569" type="curve"/>
      <point x="438" y="527" type="line"/>
      <point x="183" y="459"/>
      <point x="86" y="341"/>
      <point x="86" y="231" type="curve" smooth="yes"/>
      <point x="86" y="46"/>
      <point x="207" y="-20"/>
    </contour>
    <contour>
      <point x="310" y="1149" type="curve" smooth="yes"/>
      <point x="368" y="1149"/>
      <point x="428" y="1185"/>
      <point x="428" y="1262" type="curve" smooth="yes"/>
      <point x="428" y="1341"/>
      <point x="368" y="1382"/>
      <point x="310" y="1382" type="curve" smooth="yes"/>
      <point x="252" y="1382"/>
      <point x="194" y="1341"/>
      <point x="194" y="1262" type="curve" smooth="yes"/>
      <point x="194" y="1186"/>
      <point x="252" y="1149"/>
    </contour>
    <contour>
      <point x="687" y="1149" type="curve" smooth="yes"/>
      <point x="745" y="1149"/>
      <point x="803" y="1185"/>
      <point x="803" y="1262" type="curve" smooth="yes"/>
      <point x="803" y="1341"/>
      <point x="745" y="1382"/>
      <point x="687" y="1382" type="curve" smooth="yes"/>
      <point x="629" y="1382"/>
      <point x="569" y="1341"/>
      <point x="569" y="1262" type="curve" smooth="yes"/>
      <point x="569" y="1186"/>
      <point x="629" y="1149"/>
    </contour>
    <contour>
      <point x="602" y="225" type="line"/>
      <point x="527" y="130"/>
      <point x="275" y="26"/>
      <point x="275" y="245" type="curve" smooth="yes"/>
      <point x="275" y="380"/>
      <point x="477" y="420"/>
      <point x="602" y="460" type="curve"/>
    </contour>
  </outline>
</glyph>
<glyph name="ae" format="1">
  <advance width="1528"/>
  <unicode hex="00e6"/>
  <outline>
    <contour>
      <point x="715" y="818" type="curve" smooth="no"/>
      <point x="782" y="950"/>
      <point x="908" y="1017"/>
      <point x="1048" y="1017" type="curve" smooth="yes"/>
      <point x="1269" y="1017"/>
      <point x="1412" y="805"/>
      <point x="1412" y="525" type="curve" smooth="yes"/>
      <point x="1412" y="498" type="line" smooth="no"/>
      <point x="781" y="498" type="line" smooth="no"/>
      <point x="784" y="253"/>
      <point x="931" y="134"/>
      <point x="1103" y="134" type="curve" smooth="yes"/>
      <point x="1190" y="134"/>
      <point x="1286" y="167"/>
      <point x="1371" y="230" type="curve" smooth="no"/>
      <point x="1371" y="73" type="line" smooth="no"/>
      <point x="1287" y="12"/>
      <point x="1190" y="-17"/>
      <point x="1094" y="-17" type="curve" smooth="yes"/>
      <point x="940" y="-17"/>
      <point x="791" y="58"/>
      <point x="711" y="186" type="curve" smooth="no"/>
      <point x="666" y="101"/>
      <point x="500" y="-19"/>
      <point x="355" y="-19" type="curve" smooth="yes"/>
      <point x="207" y="-19"/>
      <point x="87" y="48"/>
      <point x="87" y="232" type="curve" smooth="yes"/>
      <point x="87" y="342"/>
      <point x="184" y="460"/>
      <point x="438" y="527" type="curve" smooth="yes"/>
      <point x="603" y="570" type="line" smooth="no"/>
      <point x="603" y="574"/>
      <point x="604" y="615"/>
      <point x="604" y="628" type="curve" smooth="yes"/>
      <point x="604" y="757"/>
      <point x="546" y="843"/>
      <point x="434" y="843" type="curve" smooth="yes"/>
      <point x="322" y="843"/>
      <point x="226" y="792"/>
      <point x="156" y="727" type="curve" smooth="no"/>
      <point x="105" y="879" type="line" smooth="no"/>
      <point x="144" y="921"/>
      <point x="289" y="1008"/>
      <point x="431" y="1008" type="curve" smooth="yes"/>
      <point x="537" y="1008"/>
      <point x="680" y="951"/>
    </contour>
    <contour>
      <point x="276" y="245" type="curve" smooth="yes"/>
      <point x="276.336" y="150.754"/>
      <point x="324.215" y="116"/>
      <point x="385" y="116" type="curve" smooth="yes"/>
      <point x="484" y="116"/>
      <point x="606" y="198"/>
      <point x="658" y="277" type="curve" smooth="no"/>
      <point x="637" y="337"/>
      <point x="625" y="401"/>
      <point x="614" y="467" type="curve" smooth="no"/>
      <point x="485" y="425"/>
      <point x="276" y="385"/>
    </contour>
    <contour>
      <point x="1248" y="618" type="line" smooth="no"/>
      <point x="1249" y="618" type="line" smooth="no"/>
      <point x="1248" y="762"/>
      <point x="1162" y="867"/>
      <point x="1048" y="867" type="curve" smooth="yes"/>
      <point x="898" y="867"/>
      <point x="810" y="757"/>
      <point x="787" y="618" type="curve" smooth="no"/>
    </contour>
  </outline>
</glyph>
<glyph name="ccedilla" format="1">
  <advance width="964"/>
  <unicode hex="00E7"/>
  <outline>
    <contour>
      <point x="457" y="-445" type="curve" smooth="yes"/>
      <point x="561" y="-445"/>
      <point x="663" y="-406"/>
      <point x="663" y="-293" type="curve" smooth="yes"/>
      <point x="663" y="-201"/>
      <point x="586" y="-132"/>
      <point x="470" y="-132" type="curve"/>
      <point x="507.534" y="-13.7664" type="line"/>
      <point x="534.918" y="-17.8836"/>
      <point x="563.124" y="-20"/>
      <point x="592" y="-20" type="curve" smooth="yes"/>
      <point x="617" y="-20"/>
      <point x="772" y="-14"/>
      <point x="863" y="43" type="curve"/>
      <point x="863" y="211" type="line"/>
      <point x="846" y="211" type="line"/>
      <point x="774" y="167"/>
      <point x="683" y="131"/>
      <point x="604" y="131" type="curve" smooth="yes"/>
      <point x="375" y="131"/>
      <point x="265" y="328"/>
      <point x="265" y="501" type="curve" smooth="yes"/>
      <point x="265" y="674"/>
      <point x="384" y="862"/>
      <point x="601" y="862" type="curve" smooth="yes"/>
      <point x="702" y="862"/>
      <point x="751" y="845"/>
      <point x="840" y="795" type="curve"/>
      <point x="840" y="961" type="line"/>
      <point x="785" y="995"/>
      <point x="671" y="1017"/>
      <point x="585" y="1017" type="curve" smooth="yes"/>
      <point x="318" y="1017"/>
      <point x="81" y="808"/>
      <point x="81" y="500" type="curve" smooth="yes"/>
      <point x="81" y="238.337"/>
      <point x="241.227" y="45.9614"/>
      <point x="466.642" y="-6" type="curve"/>
      <point x="434" y="-6" type="line"/>
      <point x="348" y="-261" type="line"/>
      <point x="374" y="-261"/>
      <point x="531" y="-251"/>
      <point x="531" y="-327" type="curve" smooth="yes"/>
      <point x="531" y="-383"/>
      <point x="476" y="-397"/>
      <point x="419" y="-397" type="curve" smooth="yes"/>
      <point x="356" y="-397"/>
      <point x="291" y="-380"/>
      <point x="266" y="-380" type="curve" smooth="yes"/>
      <point x="258" y="-380"/>
      <point x="253" y="-383"/>
      <point x="253" y="-385" type="curve" smooth="yes"/>
      <point x="253" y="-390"/>
      <point x="261" y="-395"/>
      <point x="265" y="-399" type="curve"/>
      <point x="308" y="-426"/>
      <point x="383" y="-445"/>
    </contour>
  </outline>
</glyph>
<glyph name="egrave" format="1">
  <advance width="1051"/>
  <unicode hex="00e8"/>
  <outline>
    <contour>
      <point x="563" y="1558" type="curve" smooth="no"/>
      <point x="649" y="1181" type="line" smooth="yes"/>
      <point x="651" y="1173"/>
      <point x="651" y="1167"/>
      <point x="651" y="1161" type="curve" smooth="yes"/>
      <point x="651" y="1154"/>
      <point x="648" y="1147"/>
      <point x="642" y="1147" type="curve" smooth="yes"/>
      <point x="636" y="1147"/>
      <point x="625" y="1154"/>
      <point x="616" y="1167" type="curve" smooth="yes"/>
      <point x="406" y="1474" type="line" smooth="yes"/>
      <point x="385" y="1503"/>
      <point x="375" y="1530"/>
      <point x="375" y="1555" type="curve" smooth="yes"/>
      <point x="375" y="1607"/>
      <point x="421" y="1644"/>
      <point x="467" y="1644" type="curve" smooth="yes"/>
      <point x="505" y="1644"/>
      <point x="544" y="1620"/>
    </contour>
    <contour>
      <point x="783" y="618" type="line" smooth="no"/>
      <point x="782" y="761"/>
      <point x="678" y="866"/>
      <point x="538" y="866" type="curve" smooth="yes"/>
      <point x="390" y="866"/>
      <point x="302" y="756"/>
      <point x="278" y="618" type="curve" smooth="no"/>
    </contour>
    <contour>
      <point x="615" y="-20" type="curve" smooth="yes"/>
      <point x="292" y="-20"/>
      <point x="80" y="197"/>
      <point x="80" y="514" type="curve" smooth="yes"/>
      <point x="80" y="787"/>
      <point x="269" y="1014"/>
      <point x="532" y="1014" type="curve" smooth="yes"/>
      <point x="812" y="1014"/>
      <point x="946" y="811"/>
      <point x="946" y="524" type="curve" smooth="yes"/>
      <point x="946" y="497" type="line" smooth="no"/>
      <point x="272" y="497" type="line" smooth="no"/>
      <point x="274" y="282"/>
      <point x="401" y="129"/>
      <point x="614" y="129" type="curve" smooth="yes"/>
      <point x="723" y="129"/>
      <point x="829" y="162"/>
      <point x="928" y="227" type="curve" smooth="no"/>
      <point x="928" y="71" type="line" smooth="no"/>
      <point x="837" y="10"/>
      <point x="733" y="-20"/>
    </contour>
  </outline>
</glyph>
<glyph name="eacute" format="1">
  <advance width="1051"/>
  <unicode hex="00E9"/>
  <outline>
    <contour>
      <point x="615" y="-19" type="curve" smooth="yes"/>
      <point x="733" y="-19"/>
      <point x="837" y="11"/>
      <point x="928" y="71" type="curve"/>
      <point x="928" y="227" type="line"/>
      <point x="829" y="163"/>
      <point x="723" y="130"/>
      <point x="614" y="130" type="curve" smooth="yes"/>
      <point x="401" y="130"/>
      <point x="274" y="283"/>
      <point x="272" y="498" type="curve"/>
      <point x="946" y="498" type="line"/>
      <point x="946" y="525" type="line" smooth="yes"/>
      <point x="946" y="811"/>
      <point x="812" y="1015"/>
      <point x="532" y="1015" type="curve" smooth="yes"/>
      <point x="269" y="1015"/>
      <point x="80" y="787"/>
      <point x="80" y="515" type="curve" smooth="yes"/>
      <point x="80" y="198"/>
      <point x="292" y="-19"/>
    </contour>
    <contour>
      <point x="377" y="1148" type="curve" smooth="yes"/>
      <point x="384" y="1148"/>
      <point x="393" y="1156"/>
      <point x="402" y="1170" type="curve"/>
      <point x="624" y="1461" type="line" smooth="yes"/>
      <point x="648" y="1492"/>
      <point x="659" y="1522"/>
      <point x="659" y="1546" type="curve" smooth="yes"/>
      <point x="659" y="1599"/>
      <point x="612" y="1633"/>
      <point x="567" y="1633" type="curve" smooth="yes"/>
      <point x="528" y="1633"/>
      <point x="487" y="1608"/>
      <point x="468" y="1546" type="curve"/>
      <point x="373" y="1184" type="line" smooth="yes"/>
      <point x="371" y="1177"/>
      <point x="370" y="1169"/>
      <point x="370" y="1163" type="curve" smooth="yes"/>
      <point x="370" y="1156"/>
      <point x="373" y="1148"/>
    </contour>
    <contour>
      <point x="278" y="617" type="line"/>
      <point x="302" y="757"/>
      <point x="390" y="867"/>
      <point x="538" y="867" type="curve" smooth="yes"/>
      <point x="678" y="867"/>
      <point x="782" y="761"/>
      <point x="783" y="617" type="curve"/>
    </contour>
  </outline>
</glyph>
<glyph name="igrave" format="1">
  <advance width="456"/>
  <unicode hex="00ec"/>
  <outline>
    <contour>
      <point x="301" y="1558" type="curve" smooth="no"/>
      <point x="386" y="1180" type="line" smooth="no"/>
      <point x="390" y="1175"/>
      <point x="390" y="1166"/>
      <point x="390" y="1163" type="curve" smooth="yes"/>
      <point x="390" y="1153"/>
      <point x="385" y="1149"/>
      <point x="380" y="1149" type="curve" smooth="yes"/>
      <point x="373" y="1149"/>
      <point x="363" y="1153"/>
      <point x="354" y="1166" type="curve" smooth="yes"/>
      <point x="144" y="1473" type="line" smooth="no"/>
      <point x="121" y="1502"/>
      <point x="114" y="1530"/>
      <point x="114" y="1554" type="curve" smooth="yes"/>
      <point x="114" y="1608"/>
      <point x="158" y="1644"/>
      <point x="205" y="1644" type="curve" smooth="yes"/>
      <point x="243" y="1644"/>
      <point x="281" y="1621"/>
    </contour>
    <contour>
      <point x="343" y="996" type="line" smooth="no"/>
      <point x="343" y="0" type="line" smooth="no"/>
      <point x="161" y="0" type="line" smooth="no"/>
      <point x="161" y="996" type="line" smooth="no"/>
    </contour>
  </outline>
</glyph>
<glyph name="iacute" format="1">
  <advance width="456"/>
  <unicode hex="00ed"/>
  <outline>
    <contour>
      <point x="111" y="1182" type="curve" smooth="yes"/>
      <point x="206" y="1545" type="line" smooth="no"/>
      <point x="224" y="1607"/>
      <point x="263" y="1631"/>
      <point x="304" y="1631" type="curve" smooth="yes"/>
      <point x="350" y="1631"/>
      <point x="394" y="1599"/>
      <point x="394" y="1545" type="curve" smooth="yes"/>
      <point x="394" y="1521"/>
      <point x="385" y="1492"/>
      <point x="362" y="1459" type="curve" smooth="no"/>
      <point x="140" y="1168" type="line" smooth="yes"/>
      <point x="130" y="1154"/>
      <point x="121" y="1149"/>
      <point x="115" y="1149" type="curve" smooth="yes"/>
      <point x="111" y="1149"/>
      <point x="105" y="1154"/>
      <point x="105" y="1164" type="curve" smooth="yes"/>
      <point x="105" y="1167"/>
      <point x="109" y="1177"/>
    </contour>
    <contour>
      <point x="342" y="996" type="line" smooth="no"/>
      <point x="342" y="0" type="line" smooth="no"/>
      <point x="161" y="0" type="line" smooth="no"/>
      <point x="161" y="996" type="line" smooth="no"/>
    </contour>
  </outline>
</glyph>
<glyph name="icircumflex" format="1">
  <advance width="455"/>
  <unicode hex="00EE"/>
  <outline>
    <contour>
      <point x="-48" y="1149" type="curve" smooth="yes"/>
      <point x="-47" y="1149"/>
      <point x="-47" y="1149"/>
      <point x="-44" y="1150" type="curve" smooth="yes"/>
      <point x="251" y="1357" type="line"/>
      <point x="547" y="1150" type="line" smooth="yes"/>
      <point x="550" y="1149"/>
      <point x="551" y="1149"/>
      <point x="552" y="1149" type="curve" smooth="yes"/>
      <point x="553" y="1149"/>
      <point x="554" y="1150"/>
      <point x="554" y="1151" type="curve" smooth="yes"/>
      <point x="554" y="1156" type="line"/>
      <point x="290" y="1561" type="line" smooth="yes"/>
      <point x="283" y="1570"/>
      <point x="265" y="1576"/>
      <point x="251" y="1576" type="curve" smooth="yes"/>
      <point x="237" y="1576"/>
      <point x="222" y="1570"/>
      <point x="214" y="1561" type="curve"/>
      <point x="-51" y="1156" type="line" smooth="yes"/>
      <point x="-52" y="1156"/>
      <point x="-52" y="1152"/>
      <point x="-52" y="1151" type="curve" smooth="yes"/>
      <point x="-52" y="1150"/>
      <point x="-50" y="1149"/>
    </contour>
    <contour>
      <point x="161" y="0" type="line"/>
      <point x="341" y="0" type="line"/>
      <point x="341" y="999" type="line"/>
      <point x="161" y="999" type="line"/>
    </contour>
  </outline>
</glyph>
<glyph name="idieresis" format="1">
  <advance width="456"/>
  <unicode hex="00ef"/>
  <outline>
    <contour>
      <point x="321" y="1261" type="curve" smooth="yes"/>
      <point x="321" y="1340"/>
      <point x="381" y="1381"/>
      <point x="439" y="1381" type="curve" smooth="yes"/>
      <point x="497" y="1381"/>
      <point x="555" y="1340"/>
      <point x="555" y="1261" type="curve" smooth="yes"/>
      <point x="555" y="1185"/>
      <point x="497" y="1149"/>
      <point x="439" y="1149" type="curve" smooth="yes"/>
      <point x="381" y="1149"/>
      <point x="321" y="1186"/>
    </contour>
    <contour>
      <point x="-54" y="1261" type="curve" smooth="yes"/>
      <point x="-54" y="1340"/>
      <point x="4" y="1381"/>
      <point x="62" y="1381" type="curve" smooth="yes"/>
      <point x="120" y="1381"/>
      <point x="180" y="1340"/>
      <point x="180" y="1261" type="curve" smooth="yes"/>
      <point x="180" y="1185"/>
      <point x="120" y="1149"/>
      <point x="62" y="1149" type="curve" smooth="yes"/>
      <point x="4" y="1149"/>
      <point x="-54" y="1186"/>
    </contour>
    <contour>
      <point x="342" y="998" type="line" smooth="no"/>
      <point x="342" y="0" type="line" smooth="no"/>
      <point x="161" y="0" type="line" smooth="no"/>
      <point x="161" y="998" type="line" smooth="no"/>
    </contour>
  </outline>
</glyph>
<glyph name="eth" format="1">
  <advance width="1199"/>
  <unicode hex="00F0"/>
  <outline>
    <contour>
      <point x="586" y="-21" type="curve" smooth="yes"/>
      <point x="908" y="-21"/>
      <point x="1096" y="212"/>
      <point x="1096" y="491" type="curve" smooth="yes"/>
      <point x="1096" y="716"/>
      <point x="998" y="843"/>
      <point x="779" y="1106" type="curve"/>
      <point x="584" y="1342" type="line"/>
      <point x="736" y="1469" type="line"/>
      <point x="667" y="1552" type="line"/>
      <point x="515" y="1423" type="line"/>
      <point x="435" y="1519" type="line"/>
      <point x="243" y="1519" type="line"/>
      <point x="403" y="1325" type="line"/>
      <point x="203" y="1164" type="line"/>
      <point x="271" y="1082" type="line"/>
      <point x="470" y="1243" type="line"/>
      <point x="776" y="896" type="line"/>
      <point x="704" y="947"/>
      <point x="631" y="968"/>
      <point x="560" y="968" type="curve" smooth="yes"/>
      <point x="313" y="968"/>
      <point x="84" y="756"/>
      <point x="84" y="462" type="curve"/>
      <point x="83" y="462" type="line"/>
      <point x="83" y="219"/>
      <point x="252" y="-21"/>
    </contour>
    <contour>
      <point x="590" y="131" type="curve" smooth="yes"/>
      <point x="370" y="131"/>
      <point x="261" y="301"/>
      <point x="261" y="473" type="curve" smooth="yes"/>
      <point x="261" y="645"/>
      <point x="373" y="817"/>
      <point x="590" y="817" type="curve" smooth="yes"/>
      <point x="835" y="817"/>
      <point x="925" y="662"/>
      <point x="925" y="473" type="curve"/>
      <point x="924" y="473" type="line"/>
      <point x="924" y="288"/>
      <point x="805" y="131"/>
    </contour>
  </outline>
</glyph>
<glyph name="ntilde" format="1">
  <advance width="1015"/>
  <unicode hex="00F1"/>
  <outline>
    <contour>
      <point x="103" y="0" type="line"/>
      <point x="282" y="0" type="line"/>
      <point x="282" y="710" type="line"/>
      <point x="335" y="789"/>
      <point x="468" y="868"/>
      <point x="578" y="868" type="curve" smooth="yes"/>
      <point x="667" y="868"/>
      <point x="738" y="816"/>
      <point x="738" y="674" type="curve" smooth="yes"/>
      <point x="738" y="0" type="line"/>
      <point x="916" y="0" type="line"/>
      <point x="916" y="681" type="line" smooth="yes"/>
      <point x="916" y="879"/>
      <point x="791" y="1017"/>
      <point x="605" y="1017" type="curve" smooth="yes"/>
      <point x="549" y="1017"/>
      <point x="413" y="1007"/>
      <point x="278" y="854" type="curve"/>
      <point x="278" y="998" type="line"/>
      <point x="103" y="998" type="line"/>
    </contour>
    <contour>
      <point x="626" y="1149" type="curve" smooth="yes"/>
      <point x="726" y="1149"/>
      <point x="795" y="1207"/>
      <point x="853" y="1294" type="curve"/>
      <point x="856" y="1301"/>
      <point x="857" y="1304"/>
      <point x="857" y="1310" type="curve" smooth="yes"/>
      <point x="857" y="1318"/>
      <point x="853" y="1322"/>
      <point x="845" y="1322" type="curve" smooth="yes"/>
      <point x="828" y="1322"/>
      <point x="796" y="1276"/>
      <point x="738" y="1276" type="curve" smooth="yes"/>
      <point x="654" y="1276"/>
      <point x="497" y="1366"/>
      <point x="372" y="1366" type="curve" smooth="yes"/>
      <point x="278" y="1366"/>
      <point x="219" y="1307"/>
      <point x="167" y="1221" type="curve" smooth="yes"/>
      <point x="162" y="1214"/>
      <point x="161" y="1210"/>
      <point x="161" y="1205" type="curve" smooth="yes"/>
      <point x="161" y="1198"/>
      <point x="167" y="1192"/>
      <point x="175" y="1192" type="curve" smooth="yes"/>
      <point x="191" y="1192"/>
      <point x="224" y="1237"/>
      <point x="280" y="1237" type="curve" smooth="yes"/>
      <point x="393" y="1237"/>
      <point x="534" y="1149"/>
    </contour>
  </outline>
</glyph>
<glyph name="oacute" format="1">
  <advance width="1198"/>
  <unicode hex="00F3"/>
  <outline>
    <contour>
      <point x="465" y="1148" type="curve" smooth="yes"/>
      <point x="469" y="1148"/>
      <point x="480" y="1156"/>
      <point x="489" y="1170" type="curve"/>
      <point x="710" y="1461" type="line" smooth="yes"/>
      <point x="733" y="1492"/>
      <point x="744" y="1522"/>
      <point x="744" y="1546" type="curve" smooth="yes"/>
      <point x="744" y="1599"/>
      <point x="698" y="1633"/>
      <point x="653" y="1633" type="curve" smooth="yes"/>
      <point x="613" y="1633"/>
      <point x="573" y="1608"/>
      <point x="555" y="1546" type="curve"/>
      <point x="458" y="1184" type="line" smooth="yes"/>
      <point x="456" y="1177"/>
      <point x="455" y="1169"/>
      <point x="455" y="1163" type="curve" smooth="yes"/>
      <point x="455" y="1156"/>
      <point x="458" y="1148"/>
    </contour>
    <contour>
      <point x="599" y="132" type="curve" smooth="yes"/>
      <point x="397" y="132"/>
      <point x="260" y="298"/>
      <point x="260" y="498" type="curve" smooth="yes"/>
      <point x="260" y="700"/>
      <point x="397" y="863"/>
      <point x="599" y="863" type="curve" smooth="yes"/>
      <point x="801" y="863"/>
      <point x="940" y="700"/>
      <point x="940" y="498" type="curve" smooth="yes"/>
      <point x="940" y="298"/>
      <point x="801" y="132"/>
    </contour>
    <contour>
      <point x="599" y="-19" type="curve" smooth="yes"/>
      <point x="882" y="-19"/>
      <point x="1119" y="186"/>
      <point x="1119" y="500" type="curve" smooth="yes"/>
      <point x="1119" y="811"/>
      <point x="882" y="1016"/>
      <point x="599" y="1016" type="curve" smooth="yes"/>
      <point x="316" y="1016"/>
      <point x="81" y="811"/>
      <point x="81" y="500" type="curve" smooth="yes"/>
      <point x="81" y="186"/>
      <point x="316" y="-19"/>
    </contour>
  </outline>
</glyph>
<glyph name="otilde" format="1">
  <advance width="1198"/>
  <unicode hex="00f5"/>
  <outline>
    <contour>
      <point x="371" y="1237" type="curve" smooth="yes"/>
      <point x="316" y="1237"/>
      <point x="282" y="1191"/>
      <point x="266" y="1191" type="curve" smooth="yes"/>
      <point x="258" y="1191"/>
      <point x="252" y="1196"/>
      <point x="252" y="1204" type="curve" smooth="yes"/>
      <point x="252" y="1210"/>
      <point x="253" y="1213"/>
      <point x="258" y="1220" type="curve" smooth="yes"/>
      <point x="310" y="1307"/>
      <point x="370" y="1364"/>
      <point x="463" y="1364" type="curve" smooth="yes"/>
      <point x="588" y="1364"/>
      <point x="745" y="1276"/>
      <point x="829" y="1276" type="curve" smooth="yes"/>
      <point x="887" y="1276"/>
      <point x="919" y="1322"/>
      <point x="936" y="1322" type="curve" smooth="yes"/>
      <point x="944" y="1322"/>
      <point x="948" y="1317"/>
      <point x="948" y="1309" type="curve" smooth="yes"/>
      <point x="948" y="1304"/>
      <point x="947" y="1300"/>
      <point x="944" y="1293" type="curve" smooth="no"/>
      <point x="886" y="1207"/>
      <point x="817" y="1148"/>
      <point x="717" y="1148" type="curve" smooth="yes"/>
      <point x="625" y="1148"/>
      <point x="484" y="1237"/>
    </contour>
    <contour>
      <point x="599" y="-19" type="curve" smooth="yes"/>
      <point x="316" y="-19"/>
      <point x="81" y="186"/>
      <point x="81" y="500" type="curve" smooth="yes"/>
      <point x="81" y="809"/>
      <point x="316" y="1017"/>
      <point x="599" y="1017" type="curve" smooth="yes"/>
      <point x="882" y="1017"/>
      <point x="1119" y="809"/>
      <point x="1119" y="500" type="curve" smooth="yes"/>
      <point x="1119" y="186"/>
      <point x="882" y="-19"/>
    </contour>
    <contour>
      <point x="599" y="862" type="curve" smooth="yes"/>
      <point x="397" y="862"/>
      <point x="260" y="700"/>
      <point x="260" y="498" type="curve" smooth="yes"/>
      <point x="260" y="298"/>
      <point x="397" y="131"/>
      <point x="599" y="131" type="curve" smooth="yes"/>
      <point x="801" y="131"/>
      <point x="940" y="298"/>
      <point x="940" y="498" type="curve" smooth="yes"/>
      <point x="940" y="700"/>
      <point x="801" y="862"/>
    </contour>
  </outline>
</glyph>
<glyph name="oslash" format="1">
  <advance width="1199"/>
  <unicode hex="00F8"/>
  <outline>
    <contour>
      <point x="318" y="-156" type="line"/>
      <point x="406.22" y="15.2044" type="line"/>
      <point x="465.998" y="-7.14769"/>
      <point x="531.118" y="-19"/>
      <point x="599" y="-19" type="curve" smooth="yes"/>
      <point x="882" y="-19"/>
      <point x="1119" y="187"/>
      <point x="1119" y="501" type="curve" smooth="yes"/>
      <point x="1119" y="696.787"/>
      <point x="1023.85" y="851.625"/>
      <point x="882.141" y="938.803" type="curve"/>
      <point x="992" y="1152" type="line"/>
      <point x="906" y="1192" type="line"/>
      <point x="796.761" y="980.944" type="line"/>
      <point x="735.526" y="1004.46"/>
      <point x="668.656" y="1017"/>
      <point x="599" y="1017" type="curve" smooth="yes"/>
      <point x="316" y="1017"/>
      <point x="81" y="810"/>
      <point x="81" y="501" type="curve" smooth="yes"/>
      <point x="81" y="300.912"/>
      <point x="176.422" y="144.678"/>
      <point x="318.881" y="57.6549" type="curve"/>
      <point x="229" y="-116" type="line"/>
    </contour>
    <contour>
      <point x="393.672" y="202.155" type="line"/>
      <point x="309.82" y="268.992"/>
      <point x="260" y="376.996"/>
      <point x="260" y="497" type="curve" smooth="yes"/>
      <point x="260" y="701"/>
      <point x="397" y="862"/>
      <point x="599" y="862" type="curve" smooth="yes"/>
      <point x="643.896" y="862"/>
      <point x="685.681" y="854.047"/>
      <point x="723.518" y="839.436" type="curve"/>
    </contour>
    <contour>
      <point x="599" y="132" type="curve" smooth="yes"/>
      <point x="555.288" y="132"/>
      <point x="514.62" y="139.773"/>
      <point x="477.726" y="153.972" type="curve"/>
      <point x="806.537" y="792.082" type="line"/>
      <point x="890.056" y="726.114"/>
      <point x="940" y="619.282"/>
      <point x="940" y="497" type="curve" smooth="yes"/>
      <point x="940" y="298"/>
      <point x="801" y="132"/>
    </contour>
  </outline>
</glyph>
<glyph name="ugrave" format="1">
  <advance width="1003"/>
  <unicode hex="00f9"/>
  <outline>
    <contour>
      <point x="547" y="1558" type="curve" smooth="no"/>
      <point x="632" y="1181" type="line" smooth="yes"/>
      <point x="634" y="1173"/>
      <point x="634" y="1167"/>
      <point x="634" y="1161" type="curve" smooth="yes"/>
      <point x="634" y="1154"/>
      <point x="631" y="1147"/>
      <point x="626" y="1147" type="curve" smooth="yes"/>
      <point x="619" y="1147"/>
      <point x="609" y="1154"/>
      <point x="600" y="1167" type="curve" smooth="yes"/>
      <point x="390" y="1474" type="line" smooth="no"/>
      <point x="368" y="1503"/>
      <point x="358" y="1530"/>
      <point x="358" y="1555" type="curve" smooth="yes"/>
      <point x="358" y="1607"/>
      <point x="404" y="1644"/>
      <point x="451" y="1644" type="curve" smooth="yes"/>
      <point x="488" y="1644"/>
      <point x="527" y="1620"/>
    </contour>
    <contour>
      <point x="100" y="335" type="curve" smooth="yes"/>
      <point x="100" y="997" type="line" smooth="no"/>
      <point x="279" y="997" type="line" smooth="no"/>
      <point x="279" y="324" type="line" smooth="yes"/>
      <point x="279" y="182"/>
      <point x="358" y="126"/>
      <point x="452" y="126" type="curve" smooth="yes"/>
      <point x="551" y="126"/>
      <point x="662" y="186"/>
      <point x="718" y="271" type="curve" smooth="no"/>
      <point x="718" y="997" type="line" smooth="no"/>
      <point x="895" y="997" type="line" smooth="no"/>
      <point x="895" y="0" type="line" smooth="no"/>
      <point x="720" y="0" type="line" smooth="no"/>
      <point x="720" y="129" type="line" smooth="no"/>
      <point x="633" y="31"/>
      <point x="524" y="-19"/>
      <point x="418" y="-19" type="curve" smooth="yes"/>
      <point x="252" y="-19"/>
      <point x="100" y="101"/>
    </contour>
  </outline>
</glyph>
<glyph name="uacute" format="1">
  <advance width="1003"/>
  <unicode hex="00fa"/>
  <outline>
    <contour>
      <point x="356" y="1185" type="curve" smooth="yes"/>
      <point x="452" y="1547" type="line" smooth="no"/>
      <point x="471" y="1609"/>
      <point x="511" y="1634"/>
      <point x="551" y="1634" type="curve" smooth="yes"/>
      <point x="596" y="1634"/>
      <point x="642" y="1600"/>
      <point x="642" y="1547" type="curve" smooth="yes"/>
      <point x="642" y="1522"/>
      <point x="631" y="1493"/>
      <point x="608" y="1462" type="curve" smooth="yes"/>
      <point x="386" y="1171" type="line" smooth="no"/>
      <point x="377" y="1157"/>
      <point x="367" y="1149"/>
      <point x="362" y="1149" type="curve" smooth="yes"/>
      <point x="356" y="1149"/>
      <point x="353" y="1157"/>
      <point x="353" y="1164" type="curve" smooth="yes"/>
      <point x="353" y="1170"/>
      <point x="354" y="1178"/>
    </contour>
    <contour>
      <point x="100" y="337" type="curve" smooth="yes"/>
      <point x="100" y="999" type="line" smooth="no"/>
      <point x="279" y="999" type="line" smooth="no"/>
      <point x="279" y="326" type="line" smooth="yes"/>
      <point x="279" y="183"/>
      <point x="358" y="128"/>
      <point x="452" y="128" type="curve" smooth="yes"/>
      <point x="551" y="128"/>
      <point x="662" y="187"/>
      <point x="718" y="273" type="curve" smooth="no"/>
      <point x="718" y="999" type="line" smooth="no"/>
      <point x="895" y="999" type="line" smooth="no"/>
      <point x="895" y="0" type="line" smooth="no"/>
      <point x="720" y="0" type="line" smooth="no"/>
      <point x="720" y="130" type="line" smooth="no"/>
      <point x="633" y="33"/>
      <point x="524" y="-17"/>
      <point x="418" y="-17" type="curve" smooth="yes"/>
      <point x="252" y="-17"/>
      <point x="100" y="102"/>
    </contour>
  </outline>
</glyph>
<glyph name="ucircumflex" format="1">
  <advance width="1003"/>
  <unicode hex="00fb"/>
  <outline>
    <contour>
      <point x="498" y="1355" type="line" smooth="no"/>
      <point x="201" y="1150" type="line" smooth="yes"/>
      <point x="200" y="1149"/>
      <point x="200" y="1149"/>
      <point x="199" y="1149" type="curve" smooth="yes"/>
      <point x="197" y="1149"/>
      <point x="195" y="1150"/>
      <point x="195" y="1151" type="curve" smooth="yes"/>
      <point x="195" y="1152"/>
      <point x="195" y="1153"/>
      <point x="196" y="1153" type="curve" smooth="yes"/>
      <point x="461" y="1560" type="line" smooth="yes"/>
      <point x="468" y="1570"/>
      <point x="484" y="1575"/>
      <point x="498" y="1575" type="curve" smooth="yes"/>
      <point x="512" y="1575"/>
      <point x="529" y="1570"/>
      <point x="537" y="1560" type="curve" smooth="no"/>
      <point x="801" y="1153" type="line" smooth="no"/>
      <point x="801" y="1151" type="line" smooth="yes"/>
      <point x="801" y="1150"/>
      <point x="800" y="1149"/>
      <point x="799" y="1149" type="curve" smooth="yes"/>
      <point x="798" y="1149"/>
      <point x="795" y="1149"/>
      <point x="793" y="1150" type="curve" smooth="yes"/>
    </contour>
    <contour>
      <point x="100" y="335" type="curve" smooth="yes"/>
      <point x="100" y="996" type="line" smooth="no"/>
      <point x="279" y="996" type="line" smooth="no"/>
      <point x="279" y="325" type="line" smooth="yes"/>
      <point x="279" y="183"/>
      <point x="358" y="126"/>
      <point x="452" y="126" type="curve" smooth="yes"/>
      <point x="551" y="126"/>
      <point x="662" y="186"/>
      <point x="718" y="271" type="curve" smooth="no"/>
      <point x="718" y="996" type="line" smooth="no"/>
      <point x="895" y="996" type="line" smooth="no"/>
      <point x="895" y="0" type="line" smooth="no"/>
      <point x="720" y="0" type="line" smooth="no"/>
      <point x="720" y="130" type="line" smooth="no"/>
      <point x="633" y="31"/>
      <point x="524" y="-19"/>
      <point x="418" y="-19" type="curve" smooth="yes"/>
      <point x="252" y="-19"/>
      <point x="100" y="100"/>
    </contour>
  </outline>
</glyph>
<glyph name="udieresis" format="1">
  <advance width="1003"/>
  <unicode hex="00FC"/>
  <outline>
    <contour>
      <point x="418" y="-17" type="curve" smooth="yes"/>
      <point x="524" y="-17"/>
      <point x="633" y="32"/>
      <point x="720" y="130" type="curve"/>
      <point x="720" y="0" type="line"/>
      <point x="895" y="0" type="line"/>
      <point x="895" y="997" type="line"/>
      <point x="718" y="997" type="line"/>
      <point x="718" y="272" type="line"/>
      <point x="662" y="186"/>
      <point x="551" y="128"/>
      <point x="452" y="128" type="curve" smooth="yes"/>
      <point x="358" y="128"/>
      <point x="279" y="183"/>
      <point x="279" y="326" type="curve" smooth="yes"/>
      <point x="279" y="997" type="line"/>
      <point x="100" y="997" type="line"/>
      <point x="100" y="336" type="line" smooth="yes"/>
      <point x="100" y="101"/>
      <point x="252" y="-17"/>
    </contour>
    <contour>
      <point x="309" y="1149" type="curve" smooth="yes"/>
      <point x="367" y="1149"/>
      <point x="426" y="1185"/>
      <point x="426" y="1262" type="curve" smooth="yes"/>
      <point x="426" y="1341"/>
      <point x="367" y="1382"/>
      <point x="309" y="1382" type="curve" smooth="yes"/>
      <point x="250" y="1382"/>
      <point x="193" y="1341"/>
      <point x="193" y="1262" type="curve" smooth="yes"/>
      <point x="193" y="1186"/>
      <point x="250" y="1149"/>
    </contour>
    <contour>
      <point x="685" y="1149" type="curve" smooth="yes"/>
      <point x="743" y="1149"/>
      <point x="802" y="1185"/>
      <point x="802" y="1262" type="curve" smooth="yes"/>
      <point x="802" y="1341"/>
      <point x="743" y="1382"/>
      <point x="685" y="1382" type="curve" smooth="yes"/>
      <point x="628" y="1382"/>
      <point x="568" y="1341"/>
      <point x="568" y="1262" type="curve" smooth="yes"/>
      <point x="568" y="1186"/>
      <point x="628" y="1149"/>
    </contour>
  </outline>
</glyph>
